<svg width="current" height="current" viewBox="0 0 62 62" fill="none" xmlns="http://www.w3.org/2000/svg">
<g clip-path="url(#clip0_6157_6250)">
<path d="M13.7786 32.7221V18.9443H8.61198C7.24169 18.9443 5.92753 19.4887 4.95859 20.4576C3.98966 21.4266 3.44531 22.7407 3.44531 24.111V55.111C3.44788 55.4309 3.53946 55.7437 3.70981 56.0144C3.88015 56.2851 4.12252 56.5031 4.40976 56.6438C4.68648 56.7696 4.99159 56.82 5.29407 56.7897C5.59656 56.7595 5.88565 56.6497 6.13198 56.4716L15.0014 49.9443H38.1481C38.8008 49.9636 39.4506 49.8487 40.0571 49.6067C40.6636 49.3647 41.214 49.0007 41.6741 48.5373C42.1343 48.074 42.4944 47.5211 42.7321 46.9129C42.9699 46.3047 43.0803 45.6541 43.0564 45.0016V43.0554H24.112C21.3714 43.0554 18.7431 41.9668 16.8052 40.0289C14.8673 38.091 13.7786 35.4627 13.7786 32.7221Z" fill="#111111"/>
<path d="M53.3898 6.88867H24.112C22.7417 6.88867 21.4275 7.43302 20.4586 8.40195C19.4897 9.37089 18.9453 10.6851 18.9453 12.0553V32.722C18.9453 34.0923 19.4897 35.4065 20.4586 36.3754C21.4275 37.3443 22.7417 37.8887 24.112 37.8887H47.4481L55.6803 44.2781C55.925 44.459 56.2133 44.5719 56.5159 44.6052C56.8184 44.6385 57.1243 44.591 57.4025 44.4676C57.6956 44.328 57.9433 44.1084 58.117 43.8342C58.2906 43.5599 58.3833 43.2422 58.3842 42.9176V12.0553C58.3849 10.7144 57.8643 9.42566 56.9323 8.46152C56.0003 7.49738 54.73 6.93337 53.3898 6.88867Z" fill="#111111"/>
</g>
<defs>
<clipPath id="clip0_6157_6250">
<rect width="62" height="62" fill="white"/>
</clipPath>
</defs>
</svg>
