<svg width="current" height="current" viewBox="0 0 62 62" fill="none" xmlns="http://www.w3.org/2000/svg">
<path d="M12.2051 39.355C12.2051 39.8081 12.3631 40.1874 12.6793 40.493C13.0059 40.7881 13.4116 40.9356 13.8964 40.9356H17.6109C18.9702 40.9356 20.103 40.709 21.0092 40.256C21.926 39.8028 22.8533 39.0284 23.7911 37.9325L33.512 26.3938C33.9756 25.8459 34.4182 25.4138 34.8398 25.0977C35.2718 24.771 35.7249 24.5392 36.1991 24.4022C36.6838 24.2547 37.2317 24.1809 37.843 24.1809H41.0042V27.6583C41.0042 28.0377 41.1095 28.338 41.3204 28.5593C41.5311 28.77 41.8314 28.8754 42.2214 28.8754C42.4004 28.8754 42.569 28.8438 42.7271 28.7806C42.8851 28.7173 43.0274 28.633 43.1539 28.5277L49.3657 23.359C49.6503 23.1061 49.7926 22.811 49.7926 22.4738C49.7926 22.1366 49.6503 21.8416 49.3657 21.5887L43.1539 16.4042C43.0274 16.2988 42.8851 16.2198 42.7271 16.1671C42.569 16.1039 42.4004 16.0723 42.2214 16.0723C41.8314 16.0723 41.5311 16.1776 41.3204 16.3884C41.1095 16.5991 41.0042 16.8942 41.0042 17.2735V21.0197H37.8587C36.4573 21.0197 35.2665 21.2515 34.2865 21.7151C33.3066 22.1682 32.3107 22.9954 31.2991 24.1967L21.7521 35.5457C21.0777 36.357 20.4191 36.9313 19.7763 37.2686C19.1335 37.6058 18.3748 37.7744 17.5002 37.7744H13.8964C13.4116 37.7744 13.0059 37.9272 12.6793 38.2328C12.3631 38.5278 12.2051 38.9018 12.2051 39.355ZM12.2051 22.6003C12.2051 23.0639 12.3631 23.4433 12.6793 23.7383C13.0059 24.0334 13.4116 24.1809 13.8964 24.1809H17.4054C18.28 24.1809 19.0545 24.3495 19.7289 24.6867C20.4033 25.0239 21.0777 25.5982 21.7521 26.4096L31.394 37.8692C32.3529 39.0072 33.3276 39.8028 34.3182 40.256C35.3087 40.709 36.4837 40.9356 37.843 40.9356H41.0042V44.745C41.0042 45.1243 41.1095 45.4194 41.3204 45.6301C41.5311 45.8409 41.8314 45.9463 42.2214 45.9463C42.4004 45.9463 42.569 45.9147 42.7271 45.8514C42.8851 45.7987 43.0274 45.7197 43.1539 45.6143L49.3657 40.4457C49.6503 40.1927 49.7926 39.8977 49.7926 39.5604C49.7926 39.2233 49.6503 38.9282 49.3657 38.6754L43.1539 33.4908C43.0274 33.3855 42.8851 33.3011 42.7271 33.2379C42.569 33.1747 42.4004 33.1431 42.2214 33.1431C41.8314 33.1431 41.5311 33.2538 41.3204 33.4751C41.1095 33.6858 41.0042 33.9808 41.0042 34.3601V37.7744H37.922C36.9947 37.7744 36.1938 37.6058 35.5194 37.2686C34.8555 36.9313 34.1812 36.357 33.4962 35.5457L23.7911 24.0228C22.8533 22.9164 21.9102 22.1419 20.9618 21.6993C20.0239 21.2462 18.8753 21.0197 17.516 21.0197H13.8964C13.4116 21.0197 13.0059 21.1672 12.6793 21.4622C12.3631 21.7573 12.2051 22.1366 12.2051 22.6003Z" fill="currentColor"/>
</svg>
