<svg width="current" height="current" viewBox="0 0 62 62" fill="none" xmlns="http://www.w3.org/2000/svg">
<path d="M53 43H8V13H53M53 8H8C5.25 8 3 10.25 3 13V43C3 44.3261 3.52678 45.5979 4.46447 46.5355C5.40215 47.4732 6.67392 48 8 48H20.5V53H40.5V48H53C55.775 48 58 45.775 58 43V13C58 11.6739 57.4732 10.4021 56.5355 9.46447C55.5979 8.52678 54.3261 8 53 8ZM38 16.75L36.45 20.175L33 21.75L36.45 23.325L38 26.75L39.575 23.325L43 21.75L39.575 20.175L38 16.75ZM26.75 21.75L24.025 27.775L18 30.5L24.025 33.225L26.75 39.25L29.5 33.225L35.5 30.5L29.5 27.775L26.75 21.75Z" fill="black"/>
</svg>
