<svg width="current" height="current" viewBox="0 0 24 24" fill="none" xmlns="http://www.w3.org/2000/svg">
<path d="M16.1651 5.75H7.83356C6.68264 5.75 5.75 6.68264 5.75 7.83356V16.1664C5.75 17.3174 6.68264 18.25 7.83356 18.25H16.1664C17.3173 18.25 18.25 17.3174 18.25 16.1664V7.83356C18.25 6.68264 17.3173 5.75 16.1664 5.75H16.1651ZM15.837 16.9575H8.16297C7.54252 16.9575 7.03982 16.4548 7.03982 15.8344V9.17762H16.9602V15.8357C16.9602 16.4561 16.4574 16.9588 15.837 16.9588V16.9575Z" fill="currentColor"/>
<path d="M10.4792 12.1021C10.4792 11.6315 10.2114 11.3232 9.78947 11.3232C9.38381 11.3232 9.24587 11.6153 9.24587 12.0778V12.1589C9.19719 12.167 9.15663 12.1751 9.10794 12.1751C8.81584 12.1751 8.60487 11.9317 8.60487 11.5179C8.60487 10.885 9.18906 10.3252 10.3007 10.3252C11.2905 10.3252 11.9234 10.8283 11.9234 11.6478C11.9234 12.2644 11.396 12.6701 10.8767 12.7755C11.8504 12.881 12.256 13.4328 12.256 14.1062C12.256 15.2583 11.3879 15.8588 10.0491 15.8588H10.0167C9.01056 15.8588 8.30469 15.4449 8.30469 14.8039C8.30469 14.4388 8.58056 14.1468 8.99434 14.1468C9.02678 14.1468 9.05925 14.1549 9.09172 14.1549C9.17284 14.8121 9.62722 15.0798 10.0816 15.0798C10.5197 15.0798 10.828 14.8121 10.828 14.4064V14.3902C10.828 13.7573 10.2844 13.6924 9.46494 13.6113L9.33513 12.8486C10.0978 12.7593 10.4792 12.5403 10.4792 12.1021Z" fill="currentColor"/>
<path d="M13.5738 15.0152V11.2342C12.7625 11.4127 12.584 11.0557 12.6732 10.6987C13.1601 10.6175 14.4258 10.3254 14.9045 10.1875V15.0476L15.7889 15.2261C15.7889 15.5426 15.6023 15.7292 15.2696 15.7292C14.9938 15.7292 14.3528 15.7129 14.0445 15.7129C13.5658 15.7129 12.6895 15.7292 12.6895 15.7292C12.6651 15.6642 12.657 15.5994 12.657 15.5426C12.657 15.3884 12.7219 15.2343 12.9329 15.1774L13.5738 15.0152Z" fill="currentColor"/>
<path d="M10.0182 12.1079C10.0182 11.6374 9.75047 11.329 9.32856 11.329C8.92288 11.329 8.78494 11.6211 8.78494 12.0836V12.1647C8.73625 12.1729 8.69569 12.1809 8.647 12.1809C8.35491 12.1809 8.14397 11.9376 8.14397 11.5237C8.14397 10.8909 8.72816 10.3311 9.83972 10.3311C10.8296 10.3311 11.4625 10.8341 11.4625 11.6536C11.4625 12.2702 10.9351 12.6759 10.4158 12.7814C11.3894 12.8869 11.7951 13.4386 11.7951 14.1121C11.7951 15.2642 10.927 15.8646 9.58819 15.8646H9.55575C8.54966 15.8646 7.84375 15.4508 7.84375 14.8098C7.84375 14.4447 8.11962 14.1526 8.53341 14.1526C8.56587 14.1526 8.59831 14.1607 8.63078 14.1607C8.71191 14.8179 9.16628 15.0857 9.62066 15.0857C10.0588 15.0857 10.3671 14.8179 10.3671 14.4122V14.396C10.3671 13.7631 9.8235 13.6982 9.004 13.6171L8.87419 12.8544C9.63687 12.7651 10.0182 12.5461 10.0182 12.1079Z" fill="currentColor"/>
<path d="M14.2589 10.2871C15.519 10.2871 16.2351 11.0652 16.2351 12.9409C16.2351 14.7675 15.4659 15.8731 14.0798 15.8731C12.8198 15.8731 12.1035 15.0951 12.1035 13.2194C12.1035 11.3928 12.8728 10.2871 14.2589 10.2871ZM14.0931 11.0898C13.4962 11.0898 13.2906 11.8597 13.2906 12.8672C13.2906 14.0466 13.6222 15.0623 14.2456 15.0623C14.8425 15.0623 15.0481 14.3006 15.0481 13.2931C15.0481 12.1136 14.7165 11.0898 14.0931 11.0898Z" fill="currentColor"/>
<path d="M10.0495 12.1051C10.0495 11.6344 9.78172 11.3261 9.35981 11.3261C8.92978 11.3261 8.79997 11.6507 8.81619 12.1618C8.45106 12.2429 8.17522 11.9996 8.17522 11.5209C8.17522 10.888 8.74316 10.3281 9.91153 10.3281C10.9014 10.3281 11.583 10.9367 11.583 11.7156C11.583 12.5269 11.1448 13.0949 10.017 14.1172L9.4085 14.6689C10.5363 14.6933 11.2828 14.6365 11.6317 14.4256C11.7777 14.5635 11.8588 14.7582 11.8588 15.0016C11.8588 15.4966 11.299 15.7806 10.7391 15.7806C10.1955 15.7806 7.99672 15.7156 7.99672 15.7156L7.875 15.2531L8.946 13.9955C9.67625 13.1355 10.0495 12.673 10.0495 12.1051Z" fill="currentColor"/>
<path d="M13.9352 15.0053C14.47 14.9773 14.7293 14.5006 14.7765 13.6937C13.3933 14.2781 12.1585 13.6603 12.0918 12.3882C12.0268 11.1485 12.7712 10.3133 13.9785 10.25C15.3073 10.1804 16.0513 11.0432 16.129 12.526C16.2283 14.422 15.4996 15.7114 13.9035 15.7951C12.8825 15.8486 12.2451 15.4676 12.2111 14.8194C12.1903 14.4224 12.4987 14.1056 12.9631 14.13C13.0785 14.7821 13.5058 15.0278 13.9352 15.0053ZM13.335 11.7706C13.3766 12.5646 13.9241 13.2428 14.7868 13.1163C14.7846 13.0758 14.7817 13.0191 14.7791 12.9705C14.7171 11.7875 14.3033 11.0211 13.8252 11.0461C13.5254 11.0619 13.3104 11.3006 13.335 11.7706Z" fill="currentColor"/>
<path d="M9.95575 12.1021C9.95575 11.6315 9.688 11.3232 9.26606 11.3232C8.83603 11.3232 8.70622 11.6478 8.72247 12.1589C8.35734 12.24 8.08147 11.9966 8.08147 11.5179C8.08147 10.8851 8.64944 10.3252 9.81781 10.3252C10.8077 10.3252 11.4892 10.9337 11.4892 11.7126C11.4892 12.524 11.0511 13.0919 9.92328 14.1143L9.31475 14.666C10.4426 14.6904 11.189 14.6336 11.5379 14.4226C11.6839 14.5606 11.7651 14.7553 11.7651 14.9987C11.7651 15.4936 11.2052 15.7776 10.6454 15.7776C10.1018 15.7776 7.90297 15.7127 7.90297 15.7127L7.78125 15.2502L8.85228 13.9926C9.5825 13.1326 9.95575 12.6701 9.95575 12.1021Z" fill="currentColor"/>
<path d="M16.1292 14.2198C16.1292 15.1853 15.2692 15.8588 14.0521 15.8588C12.6404 15.8588 12.0156 15.2015 12.0156 14.4713C12.0156 13.8546 12.4051 13.3678 12.9974 13.1244C12.4537 12.6782 12.2834 12.3212 12.2834 11.8506C12.2834 11.0554 12.8919 10.3252 14.1576 10.3252C15.2449 10.3252 15.8372 10.8769 15.8372 11.5666C15.8372 12.1833 15.4721 12.5403 15.0582 12.7918C15.8696 13.2948 16.1292 13.6843 16.1292 14.2198ZM14.7905 11.7776C14.7905 11.3394 14.4903 11.0636 14.0359 11.0636C13.6303 11.0636 13.4761 11.2745 13.4761 11.5179C13.4761 11.737 13.5572 11.8993 13.9467 12.1346L14.5471 12.4997C14.7256 12.2563 14.7905 12.0534 14.7905 11.7776ZM14.7499 14.6254C14.7499 14.3902 14.5958 14.2198 14.0765 13.8953L13.5248 13.5463C13.2813 13.7979 13.1921 14.0331 13.1921 14.3253C13.1921 14.8364 13.5572 15.0798 14.1333 15.0798C14.5146 15.0798 14.7499 14.9094 14.7499 14.6254Z" fill="currentColor"/>
<path d="M10.2643 12.1021C10.2643 11.6315 9.99656 11.3232 9.57463 11.3232C9.14463 11.3232 9.01478 11.6478 9.03103 12.1589C8.66591 12.24 8.39003 11.9966 8.39003 11.5179C8.39003 10.8851 8.958 10.3252 10.1264 10.3252C11.1163 10.3252 11.7978 10.9337 11.7978 11.7126C11.7978 12.524 11.3597 13.0919 10.2318 14.1143L9.62331 14.666C10.7511 14.6904 11.4976 14.6336 11.8465 14.4226C11.9925 14.5606 12.0737 14.7553 12.0737 14.9987C12.0737 15.4936 11.5138 15.7776 10.954 15.7776C10.4103 15.7776 8.21153 15.7127 8.21153 15.7127L8.08984 15.2502L9.16084 13.9926C9.89106 13.1326 10.2643 12.6701 10.2643 12.1021Z" fill="currentColor"/>
<path d="M16.007 10.4389C15.3903 11.5667 14.3193 14.0982 13.8568 15.8589H13.7919C13.1672 15.8589 12.7128 15.5019 12.7128 14.9015C12.7128 14.5931 12.8183 14.228 13.0455 13.8142C13.2158 13.5059 13.4512 13.1813 13.6783 12.8649L14.587 11.5911C14.2625 11.6398 13.7108 11.7046 13.1672 11.7046C12.5505 11.7046 12.1367 11.3801 12.1367 10.8446C12.1367 10.7067 12.1692 10.5444 12.2341 10.374C12.6641 10.4389 13.6215 10.4633 14.4816 10.4633C15.082 10.4633 15.7067 10.4551 16.007 10.4389Z" fill="currentColor"/>
<path d="M14.1843 11.1042C13.5758 11.1042 13.3649 11.6884 13.3324 12.727C14.7604 12.1914 16.018 12.6296 16.018 13.9034C16.018 15.0718 15.231 15.8589 14.0464 15.8589C12.4967 15.8589 11.9531 14.7554 11.9531 13.4166C11.9531 11.6072 12.7321 10.3253 14.1762 10.3253C15.1986 10.3172 15.8152 10.731 15.8152 11.3801C15.8152 11.7777 15.4907 12.0779 15.0282 12.0292C14.947 11.4287 14.6144 11.1042 14.1843 11.1042ZM14.7523 14.3741C14.7523 13.5789 14.1925 13.1813 13.3243 13.2868C13.3649 14.4227 13.7219 15.0718 14.1762 15.0718C14.4765 15.0718 14.7523 14.8446 14.7523 14.3741Z" fill="currentColor"/>
<path d="M10.0241 12.1021C10.0241 11.6315 9.75636 11.3232 9.33442 11.3232C8.90439 11.3232 8.77458 11.6478 8.79083 12.1589C8.4257 12.24 8.14983 11.9966 8.14983 11.5179C8.14983 10.8851 8.7178 10.3252 9.88617 10.3252C10.876 10.3252 11.5576 10.9337 11.5576 11.7126C11.5576 12.524 11.1195 13.0919 9.99164 14.1143L9.38311 14.666C10.5109 14.6904 11.2574 14.6336 11.6063 14.4226C11.7523 14.5606 11.8335 14.7553 11.8335 14.9987C11.8335 15.4936 11.2736 15.7776 10.7138 15.7776C10.1701 15.7776 7.97133 15.7127 7.97133 15.7127L7.84961 15.2502L8.92064 13.9926C9.65086 13.1326 10.0241 12.6701 10.0241 12.1021Z" fill="currentColor"/>
<path d="M10.069 12.1021C10.069 11.6315 9.80125 11.3232 9.37934 11.3232C8.94931 11.3232 8.81947 11.6478 8.83572 12.1589C8.47059 12.24 8.19475 11.9966 8.19475 11.5179C8.19475 10.8851 8.76269 10.3252 9.93106 10.3252C10.9209 10.3252 11.6025 10.9337 11.6025 11.7126C11.6025 12.524 11.1643 13.0919 10.0365 14.1143L9.428 14.666C10.5558 14.6904 11.3023 14.6336 11.6512 14.4226C11.7972 14.5606 11.8783 14.7553 11.8783 14.9987C11.8783 15.4936 11.3185 15.7776 10.7587 15.7776C10.215 15.7776 8.01622 15.7127 8.01622 15.7127L7.89453 15.2502L8.96553 13.9926C9.69575 13.1326 10.069 12.6701 10.069 12.1021Z" fill="currentColor"/>
<path d="M16.0071 13.9924C16.0152 15.2176 15.1957 15.8586 13.8164 15.8586C12.794 15.8667 12.0801 15.4529 12.0801 14.8038C12.0801 14.4062 12.4046 14.1061 12.8671 14.1547C12.9482 14.8119 13.3864 15.0797 13.8407 15.0797C14.2707 15.0797 14.6034 14.8119 14.6034 14.4062C14.6034 13.676 13.8894 13.3271 12.4939 13.4813V10.4387H14.287C14.717 10.4387 15.1146 10.4143 15.504 10.3413C15.577 10.463 15.6257 10.6253 15.6257 10.7957C15.6257 11.2744 15.2525 11.7125 14.4979 11.7125C13.9949 11.7125 13.5567 11.6557 13.1916 11.599V12.4347C15.001 12.1588 16.0071 12.7511 16.0071 13.9924Z" fill="currentColor"/>
<path d="M10.0651 12.1021C10.0651 11.6315 9.79734 11.3232 9.37544 11.3232C8.94541 11.3232 8.81559 11.6478 8.83181 12.1589C8.46669 12.24 8.19084 11.9966 8.19084 11.5179C8.19084 10.8851 8.75878 10.3252 9.92716 10.3252C10.917 10.3252 11.5986 10.9337 11.5986 11.7126C11.5986 12.524 11.1604 13.0919 10.0327 14.1143L9.42412 14.666C10.5519 14.6904 11.2984 14.6336 11.6473 14.4226C11.7933 14.5606 11.8744 14.7553 11.8744 14.9987C11.8744 15.4936 11.3146 15.7776 10.7547 15.7776C10.2112 15.7776 8.01234 15.7127 8.01234 15.7127L7.89062 15.2502L8.96163 13.9926C9.69188 13.1326 10.0651 12.6701 10.0651 12.1021Z" fill="currentColor"/>
<path d="M16.0995 13.8622C16.3267 14.1787 16.2699 14.9089 15.4747 14.8521L15.4829 14.99C15.5234 15.6879 15.1827 15.8582 14.6958 15.8582C14.5011 15.8582 14.2739 15.8095 14.0873 15.7122L14.1116 14.8278H12.1968L11.9453 14.13C12.3834 13.0265 13.4788 11.1442 14.1198 10.3652L15.4747 10.5762V13.9434C15.7182 13.9434 15.8967 13.919 16.0995 13.8622ZM14.1441 11.4119C13.7141 12.0204 13.0001 13.3267 12.7323 13.984H14.1441V11.4119Z" fill="currentColor"/>
<path d="M14.278 12.1021C14.278 11.6315 14.0103 11.3232 13.5883 11.3232C13.1826 11.3232 13.0447 11.6153 13.0447 12.0778V12.1589C12.996 12.167 12.9555 12.1751 12.9068 12.1751C12.6147 12.1751 12.4037 11.9317 12.4037 11.5179C12.4037 10.8851 12.9879 10.3252 14.0995 10.3252C15.0894 10.3252 15.7222 10.8283 15.7222 11.6478C15.7222 12.2644 15.1948 12.6701 14.6756 12.7755C15.6492 12.881 16.0549 13.4328 16.0549 14.1062C16.0549 15.2583 15.1867 15.8588 13.848 15.8588H13.8155C12.8094 15.8588 12.1035 15.4449 12.1035 14.8039C12.1035 14.4388 12.3794 14.1468 12.7932 14.1468C12.8256 14.1468 12.8581 14.1549 12.8906 14.1549C12.9717 14.8121 13.4261 15.0798 13.8805 15.0798C14.3186 15.0798 14.6269 14.8121 14.6269 14.4064V14.3902C14.6269 13.7573 14.0833 13.6924 13.2638 13.6113L13.134 12.8486C13.8966 12.7593 14.278 12.5403 14.278 12.1021Z" fill="currentColor"/>
<path d="M10.0924 12.1021C10.0924 11.6315 9.82469 11.3232 9.40278 11.3232C8.97275 11.3232 8.84294 11.6478 8.85916 12.1589C8.49403 12.24 8.21819 11.9966 8.21819 11.5179C8.21819 10.8851 8.78612 10.3252 9.9545 10.3252C10.9444 10.3252 11.6259 10.9337 11.6259 11.7126C11.6259 12.524 11.1878 13.0919 10.06 14.1143L9.45144 14.666C10.5792 14.6904 11.3257 14.6336 11.6746 14.4226C11.8207 14.5606 11.9018 14.7553 11.9018 14.9987C11.9018 15.4936 11.3419 15.7776 10.7821 15.7776C10.2385 15.7776 8.03966 15.7127 8.03966 15.7127L7.91797 15.2502L8.98897 13.9926C9.71922 13.1326 10.0924 12.6701 10.0924 12.1021Z" fill="currentColor"/>
<path d="M14.2878 12.1021C14.2878 11.6315 14.02 11.3232 13.5981 11.3232C13.168 11.3232 13.0382 11.6478 13.0545 12.1589C12.6893 12.24 12.4135 11.9966 12.4135 11.5179C12.4135 10.8851 12.9815 10.3252 14.1498 10.3252C15.1397 10.3252 15.8212 10.9337 15.8212 11.7126C15.8212 12.524 15.3831 13.0919 14.2553 14.1143L13.6468 14.666C14.7746 14.6904 15.521 14.6336 15.8699 14.4226C16.016 14.5606 16.0971 14.7553 16.0971 14.9987C16.0971 15.4936 15.5373 15.7776 14.9774 15.7776C14.4338 15.7776 12.235 15.7127 12.235 15.7127L12.1133 15.2502L13.1843 13.9926C13.9145 13.1326 14.2878 12.6701 14.2878 12.1021Z" fill="currentColor"/>
<path d="M10.1667 12.1021C10.1667 11.6315 9.89891 11.3232 9.477 11.3232C9.04697 11.3232 8.91712 11.6478 8.93337 12.1589C8.56825 12.24 8.29241 11.9966 8.29241 11.5179C8.29241 10.8851 8.86034 10.3252 10.0287 10.3252C11.0186 10.3252 11.7002 10.9337 11.7002 11.7126C11.7002 12.524 11.262 13.0919 10.1342 14.1143L9.52566 14.666C10.6535 14.6904 11.3999 14.6336 11.7488 14.4226C11.8949 14.5606 11.976 14.7553 11.976 14.9987C11.976 15.4936 11.4162 15.7776 10.8563 15.7776C10.3127 15.7776 8.11388 15.7127 8.11388 15.7127L7.99219 15.2502L9.06319 13.9926C9.79341 13.1326 10.1667 12.6701 10.1667 12.1021Z" fill="currentColor"/>
<path d="M10.4538 12.1021C10.4538 11.6315 10.186 11.3232 9.76411 11.3232C9.33411 11.3232 9.20427 11.6478 9.22052 12.1589C8.85539 12.24 8.57952 11.9966 8.57952 11.5179C8.57952 10.885 9.14748 10.3252 10.3159 10.3252C11.3057 10.3252 11.9873 10.9337 11.9873 11.7126C11.9873 12.524 11.5491 13.0919 10.4213 14.1143L9.8128 14.666C10.9406 14.6904 11.6871 14.6336 12.036 14.4226C12.182 14.5606 12.2631 14.7553 12.2631 14.9987C12.2631 15.4936 11.7033 15.7776 11.1435 15.7776C10.5998 15.7776 8.40102 15.7127 8.40102 15.7127L8.2793 15.2502L9.35033 13.9926C10.0805 13.1326 10.4538 12.6701 10.4538 12.1021Z" fill="currentColor"/>
<path d="M13.5836 15.0152V11.2342C12.7722 11.4127 12.5937 11.0557 12.683 10.6987C13.1698 10.6175 14.4355 10.3254 14.9143 10.1875V15.0476L15.7987 15.2261C15.7987 15.5426 15.612 15.7292 15.2794 15.7292C15.0035 15.7292 14.3625 15.7129 14.0542 15.7129C13.5755 15.7129 12.6992 15.7292 12.6992 15.7292C12.6748 15.6642 12.6668 15.5994 12.6668 15.5426C12.6668 15.3884 12.7317 15.2343 12.9427 15.1774L13.5836 15.0152Z" fill="currentColor"/>
<path d="M10.0788 12.1051C10.0788 11.6344 9.81102 11.3261 9.38911 11.3261C8.95908 11.3261 8.82927 11.6507 8.84548 12.1618C8.48036 12.2429 8.20452 11.9996 8.20452 11.5209C8.20452 10.888 8.77245 10.3281 9.94083 10.3281C10.9307 10.3281 11.6123 10.9367 11.6123 11.7156C11.6123 12.5269 11.1741 13.0949 10.0463 14.1172L9.43777 14.6689C10.5656 14.6933 11.312 14.6365 11.6609 14.4256C11.807 14.5635 11.8881 14.7582 11.8881 15.0016C11.8881 15.4966 11.3283 15.7806 10.7684 15.7806C10.2248 15.7806 8.02598 15.7156 8.02598 15.7156L7.9043 15.2531L8.9753 13.9955C9.70552 13.1355 10.0788 12.673 10.0788 12.1051Z" fill="currentColor"/>
<path d="M14.1925 10.269C15.4525 10.269 16.1688 11.0472 16.1688 12.9228C16.1688 14.7494 15.3995 15.8551 14.0134 15.8551C12.7534 15.8551 12.0371 15.077 12.0371 13.2013C12.0371 11.3748 12.8064 10.269 14.1925 10.269ZM14.0267 11.0717C13.4298 11.0717 13.2242 11.8416 13.2242 12.8491C13.2242 14.0286 13.5558 15.0442 14.1792 15.0442C14.7761 15.0442 14.9817 14.2825 14.9817 13.275C14.9817 12.0956 14.6501 11.0717 14.0267 11.0717Z" fill="currentColor"/>
<path d="M9.275 15.0152V11.2342C8.46362 11.4127 8.28512 11.0557 8.37437 10.6987C8.86119 10.6175 10.1269 10.3254 10.6056 10.1875V15.0476L11.49 15.2261C11.49 15.5426 11.3034 15.7292 10.9707 15.7292C10.6949 15.7292 10.0539 15.7129 9.74559 15.7129C9.26687 15.7129 8.39059 15.7292 8.39059 15.7292C8.36625 15.6642 8.35816 15.5994 8.35816 15.5426C8.35816 15.3884 8.42306 15.2343 8.634 15.1774L9.275 15.0152Z" fill="currentColor"/>
<path d="M13.6665 14.9921C14.2077 14.9637 14.4702 14.4812 14.5179 13.6646C13.1181 14.256 11.8683 13.6308 11.8009 12.3433C11.7351 11.0886 12.4884 10.2433 13.7103 10.1793C15.0552 10.1088 15.8082 10.9821 15.8868 12.4828C15.9874 14.4017 15.2499 15.7067 13.6344 15.7914C12.6011 15.8455 11.956 15.4599 11.9216 14.8039C11.9005 14.4021 12.2126 14.0814 12.6827 14.1062C12.7995 14.7661 13.2319 15.0148 13.6665 14.9921ZM13.0591 11.7182C13.1012 12.5219 13.6552 13.2083 14.5284 13.0803C14.5262 13.0393 14.5232 12.9818 14.5207 12.9326C14.4579 11.7353 14.039 10.9597 13.5552 10.985C13.2517 11.0009 13.0342 11.2426 13.0591 11.7182Z" fill="currentColor"/>
<path d="M9.14805 15.0152V11.2342C8.33667 11.4127 8.15817 11.0557 8.24742 10.6987C8.73423 10.6175 9.99998 10.3254 10.4787 10.1875V15.0476L11.3631 15.2261C11.3631 15.5426 11.1765 15.7292 10.8438 15.7292C10.568 15.7292 9.92695 15.7129 9.61864 15.7129C9.13992 15.7129 8.26364 15.7292 8.26364 15.7292C8.2393 15.6642 8.2312 15.5994 8.2312 15.5426C8.2312 15.3884 8.29611 15.2343 8.50708 15.1774L9.14805 15.0152ZM9.14805 15.0152V11.2342C8.33667 11.4127 8.15817 11.0557 8.24742 10.6987C8.73423 10.6175 9.99998 10.3254 10.4787 10.1875V15.0476L11.3631 15.2261C11.3631 15.5426 11.1765 15.7292 10.8438 15.7292C10.568 15.7292 9.92695 15.7129 9.61864 15.7129C9.13992 15.7129 8.26364 15.7292 8.26364 15.7292M9.14805 15.0152V11.2342C8.33667 11.4127 8.15817 11.0557 8.24742 10.6987C8.73423 10.6175 9.99998 10.3254 10.4787 10.1875V15.0476L11.3631 15.2261M9.14805 15.0152V11.2342C8.33667 11.4127 8.15817 11.0557 8.24742 10.6987C8.73423 10.6175 9.99998 10.3254 10.4787 10.1875V15.0476L11.3631 15.2261" fill="currentColor"/>
<path d="M13.7455 15.8588C14.9626 15.8588 15.8226 15.1853 15.8226 14.2198C15.8226 13.6843 15.563 13.2948 14.7516 12.7918C15.1654 12.5403 15.5305 12.1833 15.5305 11.5666C15.5305 10.8769 14.9382 10.3252 13.851 10.3252C12.5852 10.3252 11.9767 11.0554 11.9767 11.8506C11.9767 12.3212 12.1471 12.6782 12.6907 13.1244C12.0984 13.3678 11.709 13.8546 11.709 14.4713C11.709 15.2015 12.3337 15.8588 13.7455 15.8588ZM13.7294 11.0634C14.1838 11.0634 14.484 11.3393 14.484 11.7774C14.484 12.0533 14.4191 12.2561 14.2406 12.4996L13.6402 12.1344C13.2507 11.8991 13.1695 11.7369 13.1695 11.5178C13.1695 11.2744 13.3237 11.0634 13.7294 11.0634ZM14.4435 14.6254C14.4435 14.9094 14.2082 15.0798 13.8269 15.0798C13.2509 15.0798 12.8857 14.8364 12.8857 14.3253C12.8857 14.0331 12.975 13.7979 13.2184 13.5463L13.7701 13.8953C14.2894 14.2198 14.4435 14.3902 14.4435 14.6254Z" fill="currentColor"/>
<path d="M9.61676 15.0152V11.2342C8.80542 11.4127 8.62692 11.0557 8.71617 10.6987C9.20298 10.6175 10.4687 10.3254 10.9474 10.1875V15.0476L11.8318 15.2261C11.8318 15.5426 11.6452 15.7292 11.3125 15.7292C11.0367 15.7292 10.3957 15.7129 10.0874 15.7129C9.60867 15.7129 8.73239 15.7292 8.73239 15.7292C8.70805 15.6642 8.69995 15.5994 8.69995 15.5426C8.69995 15.3884 8.76486 15.2343 8.9758 15.1774L9.61676 15.0152ZM9.61676 15.0152V11.2342C8.80542 11.4127 8.62692 11.0557 8.71617 10.6987C9.20298 10.6175 10.4687 10.3254 10.9474 10.1875V15.0476L11.8318 15.2261C11.8318 15.5426 11.6452 15.7292 11.3125 15.7292C11.0367 15.7292 10.3957 15.7129 10.0874 15.7129C9.60867 15.7129 8.73239 15.7292 8.73239 15.7292C8.70805 15.6642 8.69995 15.5994 8.69995 15.5426C8.69995 15.3884 8.76486 15.2343 8.9758 15.1774L9.61676 15.0152Z" fill="currentColor"/>
<path d="M13.6302 15.8589C14.0927 14.0982 15.1637 11.5667 15.7804 10.4389C15.4802 10.4551 14.8554 10.4633 14.255 10.4633C13.3949 10.4633 12.4375 10.4389 12.0075 10.374C11.9426 10.5444 11.9102 10.7067 11.9102 10.8446C11.9102 11.3801 12.3239 11.7046 12.9406 11.7046C13.4842 11.7046 14.0359 11.6398 14.3605 11.5911L13.4517 12.8649C13.2246 13.1813 12.9892 13.5059 12.8189 13.8142C12.5917 14.228 12.4862 14.5931 12.4862 14.9015C12.4862 15.5019 12.9406 15.8589 13.5653 15.8589H13.6302Z" fill="currentColor"/>
<path d="M9.21445 15.0152V11.2342C8.40308 11.4127 8.22458 11.0557 8.31383 10.6987C8.80064 10.6175 10.0664 10.3254 10.5451 10.1875V15.0476L11.4295 15.2261C11.4295 15.5426 11.2429 15.7292 10.9102 15.7292C10.6344 15.7292 9.99336 15.7129 9.68505 15.7129C9.20633 15.7129 8.33005 15.7292 8.33005 15.7292C8.30573 15.6642 8.29761 15.5994 8.29761 15.5426C8.29761 15.3884 8.36251 15.2343 8.57348 15.1774L9.21445 15.0152ZM9.21445 15.0152V11.2342C8.40308 11.4127 8.22458 11.0557 8.31383 10.6987C8.80064 10.6175 10.0664 10.3254 10.5451 10.1875V15.0476L11.4295 15.2261C11.4295 15.5426 11.2429 15.7292 10.9102 15.7292C10.6344 15.7292 9.99336 15.7129 9.68505 15.7129C9.20633 15.7129 8.33005 15.7292 8.33005 15.7292M9.21445 15.0152V11.2342C8.40308 11.4127 8.22458 11.0557 8.31383 10.6987C8.80064 10.6175 10.0664 10.3254 10.5451 10.1875" fill="currentColor"/>
<path d="M13.87 11.1042C13.2614 11.1042 13.0505 11.6884 13.018 12.727C14.446 12.1914 15.7036 12.6296 15.7036 13.9034C15.7036 15.0718 14.9166 15.8589 13.732 15.8589C12.1823 15.8589 11.6387 14.7554 11.6387 13.4166C11.6387 11.6072 12.4176 10.3253 13.8618 10.3253C14.8841 10.3172 15.5008 10.731 15.5008 11.3801C15.5008 11.7777 15.1763 12.0779 14.7138 12.0292C14.6326 11.4287 14.3 11.1042 13.87 11.1042ZM14.4375 14.3738C14.4375 13.5787 13.8776 13.1811 13.0095 13.2866C13.0501 14.4225 13.4071 15.0716 13.8615 15.0716C14.1616 15.0716 14.4375 14.8444 14.4375 14.3738Z" fill="currentColor"/>
<path d="M9.25742 15.0152V11.2342C8.44605 11.4127 8.26755 11.0557 8.3568 10.6987C8.84361 10.6175 10.1094 10.3254 10.5881 10.1875V15.0476L11.4725 15.2261C11.4725 15.5426 11.2859 15.7292 10.9532 15.7292C10.6773 15.7292 10.0363 15.7129 9.72801 15.7129C9.2493 15.7129 8.37305 15.7292 8.37305 15.7292C8.3487 15.6642 8.34058 15.5994 8.34058 15.5426C8.34058 15.3884 8.40548 15.2343 8.61645 15.1774L9.25742 15.0152Z" fill="currentColor"/>
<path d="M15.6927 13.9924C15.7008 15.2176 14.8813 15.8586 13.502 15.8586C12.4796 15.8667 11.7656 15.4529 11.7656 14.8038C11.7656 14.4062 12.0902 14.1061 12.5527 14.1547C12.6338 14.8119 13.0719 15.0797 13.5263 15.0797C13.9564 15.0797 14.289 14.8119 14.289 14.4062C14.289 13.676 13.575 13.3271 12.1794 13.4813V10.4387H13.9726C14.4026 10.4387 14.8002 10.4143 15.1896 10.3413C15.2626 10.463 15.3113 10.6253 15.3113 10.7957C15.3113 11.2744 14.9381 11.7125 14.1835 11.7125C13.6805 11.7125 13.2423 11.6557 12.8773 11.5989V12.4346C14.6866 12.1587 15.6927 12.7511 15.6927 13.9924Z" fill="currentColor"/>
<path d="M9.32185 15.0152V11.2342C8.51051 11.4127 8.33198 11.0557 8.42126 10.6987C8.90807 10.6175 10.1738 10.3254 10.6525 10.1875V15.0476L11.5369 15.2261C11.5369 15.5426 11.3503 15.7292 11.0176 15.7292C10.7418 15.7292 10.1008 15.7129 9.79245 15.7129C9.31376 15.7129 8.43748 15.7292 8.43748 15.7292C8.41313 15.6642 8.40501 15.5994 8.40501 15.5426C8.40501 15.3884 8.46992 15.2343 8.68088 15.1774L9.32185 15.0152ZM9.32185 15.0152V11.2342C8.51051 11.4127 8.33198 11.0557 8.42126 10.6987C8.90807 10.6175 10.1738 10.3254 10.6525 10.1875V15.0476L11.5369 15.2261C11.5369 15.5426 11.3503 15.7292 11.0176 15.7292C10.7418 15.7292 10.1008 15.7129 9.79245 15.7129C9.31376 15.7129 8.43748 15.7292 8.43748 15.7292C8.41313 15.6642 8.40501 15.5994 8.40501 15.5426C8.40501 15.3884 8.46992 15.2343 8.68088 15.1774L9.32185 15.0152ZM9.32185 15.0152V11.2342C8.51051 11.4127 8.33198 11.0557 8.42126 10.6987C8.90807 10.6175 10.1738 10.3254 10.6525 10.1875" fill="currentColor"/>
<path d="M15.7773 13.8632C16.0045 14.1796 15.9476 14.9099 15.1525 14.8531L15.1606 14.991C15.2012 15.6888 14.8604 15.8592 14.3736 15.8592C14.1788 15.8592 13.9516 15.8105 13.7651 15.7131L13.7894 14.8288H11.8746L11.623 14.131C12.0612 13.0275 13.1565 11.1451 13.7975 10.3662L15.1525 10.5772V13.9443C15.3959 13.9443 15.5744 13.92 15.7773 13.8632ZM13.8221 11.413C13.3921 12.0215 12.6781 13.3278 12.4104 13.985H13.8221V11.413Z" fill="currentColor"/>
<path d="M9.25937 15.0152V11.2342C8.448 11.4127 8.2695 11.0557 8.35875 10.6987C8.84556 10.6175 10.1113 10.3254 10.59 10.1875V15.0476L11.4744 15.2261C11.4744 15.5426 11.2878 15.7292 10.9551 15.7292C10.6793 15.7292 10.0383 15.7129 9.72997 15.7129C9.25125 15.7129 8.37497 15.7292 8.37497 15.7292C8.35062 15.6642 8.34253 15.5994 8.34253 15.5426C8.34253 15.3884 8.40744 15.2343 8.61837 15.1774L9.25937 15.0152Z" fill="currentColor"/>
<path d="M13.8619 12.1021C13.8619 11.6315 13.5942 11.3232 13.1723 11.3232C12.7666 11.3232 12.6287 11.6153 12.6287 12.0778V12.1589C12.58 12.167 12.5394 12.1751 12.4908 12.1751C12.1986 12.1751 11.9877 11.9317 11.9877 11.5179C11.9877 10.885 12.5719 10.3252 13.6834 10.3252C14.6733 10.3252 15.3062 10.8283 15.3062 11.6478C15.3062 12.2644 14.7788 12.6701 14.2596 12.7755C15.2332 12.881 15.6389 13.4328 15.6389 14.1062C15.6389 15.2583 14.7707 15.8588 13.4319 15.8588H13.3995C12.3934 15.8588 11.6875 15.4449 11.6875 14.8039C11.6875 14.4388 11.9634 14.1468 12.3771 14.1468C12.4096 14.1468 12.4421 14.1549 12.4745 14.1549C12.5556 14.8121 13.01 15.0798 13.4644 15.0798C13.9025 15.0798 14.2109 14.8121 14.2109 14.4064V14.3902C14.2109 13.7573 13.6673 13.6924 12.8478 13.6113L12.7179 12.8486C13.4806 12.7593 13.8619 12.5403 13.8619 12.1021Z" fill="currentColor"/>
<path d="M9.29255 15.0152V11.2342C8.4812 11.4127 8.3027 11.0557 8.39195 10.6987C8.87876 10.6175 10.1445 10.3254 10.6232 10.1875V15.0476L11.5076 15.2261C11.5076 15.5426 11.321 15.7292 10.9883 15.7292C10.7125 15.7292 10.0715 15.7129 9.76314 15.7129C9.28445 15.7129 8.40817 15.7292 8.40817 15.7292C8.38383 15.6642 8.3757 15.5994 8.3757 15.5426C8.3757 15.3884 8.44061 15.2343 8.65158 15.1774L9.29255 15.0152Z" fill="currentColor"/>
<path d="M13.9109 12.1021C13.9109 11.6315 13.643 11.3232 13.2212 11.3232C12.7911 11.3232 12.6613 11.6478 12.6775 12.1589C12.3124 12.24 12.0365 11.9966 12.0365 11.5179C12.0365 10.885 12.6045 10.3252 13.7729 10.3252C14.7628 10.3252 15.4443 10.9337 15.4443 11.7126C15.4443 12.524 15.0061 13.0919 13.8784 14.1143L13.2699 14.666C14.3977 14.6904 15.1441 14.6336 15.493 14.4226C15.639 14.5606 15.7201 14.7553 15.7201 14.9987C15.7201 15.4936 15.1603 15.7776 14.6005 15.7776C14.0569 15.7776 11.858 15.7127 11.858 15.7127L11.7363 15.2502L12.8074 13.9926C13.5376 13.1326 13.9109 12.6701 13.9109 12.1021Z" fill="currentColor"/>
<path d="M9.58555 15.0152V11.2342C8.77417 11.4127 8.59567 11.0557 8.68492 10.6987C9.17173 10.6175 10.4375 10.3254 10.9162 10.1875V15.0476L11.8006 15.2261C11.8006 15.5426 11.614 15.7292 11.2813 15.7292C11.0055 15.7292 10.3645 15.7129 10.0561 15.7129C9.57742 15.7129 8.70114 15.7292 8.70114 15.7292C8.67683 15.6642 8.6687 15.5994 8.6687 15.5426C8.6687 15.3884 8.73361 15.2343 8.94458 15.1774L9.58555 15.0152ZM9.58555 15.0152V11.2342C8.77417 11.4127 8.59567 11.0557 8.68492 10.6987C9.17173 10.6175 10.4375 10.3254 10.9162 10.1875V15.0476L11.8006 15.2261C11.8006 15.5426 11.614 15.7292 11.2813 15.7292C11.0055 15.7292 10.3645 15.7129 10.0561 15.7129C9.57742 15.7129 8.70114 15.7292 8.70114 15.7292C8.67683 15.6642 8.6687 15.5994 8.6687 15.5426C8.6687 15.3884 8.73361 15.2343 8.94458 15.1774L9.58555 15.0152Z" fill="currentColor"/>
<path d="M13.2105 11.2342V15.0152L12.5696 15.1774C12.3586 15.2343 12.2937 15.3884 12.2937 15.5426C12.2937 15.5994 12.3018 15.6642 12.3261 15.7292C12.3261 15.7292 13.2024 15.7129 13.6811 15.7129C13.9894 15.7129 14.6304 15.7292 14.9063 15.7292C15.2389 15.7292 15.4256 15.5426 15.4256 15.2261L14.5412 15.0476V10.1875C14.0624 10.3254 12.7968 10.6175 12.3099 10.6987C12.2206 11.0557 12.3992 11.4127 13.2105 11.2342Z" fill="currentColor"/>
<path d="M9.22225 15.0201V11.2391C8.41088 11.4176 8.23241 11.0606 8.32163 10.7036C8.80847 10.6224 10.0742 10.3303 10.5529 10.1924V15.0525L11.4373 15.231C11.4373 15.5474 11.2507 15.7341 10.918 15.7341C10.6422 15.7341 10.0012 15.7178 9.69285 15.7178C9.21416 15.7178 8.33788 15.7341 8.33788 15.7341C8.31354 15.6691 8.30541 15.6043 8.30541 15.5474C8.30541 15.3933 8.37032 15.2391 8.58129 15.1823L9.22225 15.0201Z" fill="currentColor"/>
<path d="M13.7901 10.2275C15.0502 10.2275 15.7665 11.0057 15.7665 12.8813C15.7665 14.7078 14.9971 15.8136 13.6111 15.8136C12.351 15.8136 11.6348 15.0355 11.6348 13.1598C11.6348 11.3333 12.4041 10.2275 13.7901 10.2275ZM13.6243 11.0302C13.0275 11.0302 12.8219 11.8002 12.8219 12.8076C12.8219 13.9871 13.1535 15.0027 13.7769 15.0027C14.3738 15.0027 14.5793 14.241 14.5793 13.2335C14.5793 12.0541 14.2477 11.0302 13.6243 11.0302Z" fill="currentColor"/>
<path d="M11.9137 15.0854C12.4485 15.0574 12.7079 14.5806 12.755 13.7738C11.3719 14.3582 10.137 13.7404 10.0703 12.4683C10.0054 11.2286 10.7497 10.3934 11.957 10.3301C13.2858 10.2604 14.0298 11.1233 14.1075 12.6061C14.2068 14.5021 13.4782 15.7915 11.882 15.8751C10.8611 15.9286 10.2236 15.5477 10.1897 14.8995C10.1688 14.5024 10.4772 14.1857 10.9416 14.2101C11.057 14.8621 11.4843 15.1079 11.9137 15.0854ZM11.3136 11.8507C11.3552 12.6447 11.9026 13.3229 12.7654 13.1964C12.7632 13.1559 12.7602 13.0992 12.7577 13.0506C12.6957 11.8676 12.2818 11.1012 11.8037 11.1262C11.5039 11.1419 11.2889 11.3807 11.3136 11.8507Z" fill="currentColor"/>
<path d="M14.1019 14.2202C14.1019 15.1858 13.2419 15.8592 12.0248 15.8592C10.6131 15.8592 9.98828 15.202 9.98828 14.4718C9.98828 13.8551 10.3778 13.3683 10.9701 13.1249C10.4264 12.6787 10.256 12.3217 10.256 11.8511C10.256 11.0559 10.8646 10.3257 12.1303 10.3257C13.2176 10.3257 13.8099 10.8774 13.8099 11.5671C13.8099 12.1837 13.4448 12.5407 13.0309 12.7922C13.8423 13.2953 14.1019 13.6847 14.1019 14.2202ZM12.7632 11.7781C12.7632 11.3399 12.463 11.064 12.0086 11.064C11.6029 11.064 11.4488 11.275 11.4488 11.5184C11.4488 11.7375 11.5299 11.8997 11.9193 12.1351L12.5198 12.5002C12.6983 12.2567 12.7632 12.0539 12.7632 11.7781ZM12.7226 14.6259C12.7226 14.3907 12.5684 14.2202 12.0492 13.8957L11.4974 13.5468C11.254 13.7984 11.1648 14.0336 11.1648 14.3257C11.1648 14.8369 11.5299 15.0803 12.1059 15.0803C12.4873 15.0803 12.7226 14.9099 12.7226 14.6259Z" fill="currentColor"/>
<path d="M14.0988 10.4389C13.4821 11.5667 12.4111 14.0982 11.9486 15.8589H11.8837C11.259 15.8589 10.8046 15.5019 10.8046 14.9015C10.8046 14.5931 10.9101 14.228 11.1373 13.8142C11.3076 13.5059 11.543 13.1813 11.7701 12.8649L12.6789 11.5911C12.3543 11.6398 11.8026 11.7046 11.259 11.7046C10.6423 11.7046 10.2285 11.3801 10.2285 10.8446C10.2285 10.7067 10.261 10.5444 10.3259 10.374C10.7559 10.4389 11.7133 10.4633 12.5734 10.4633C13.1738 10.4633 13.7985 10.4551 14.0988 10.4389Z" fill="currentColor"/>
<path d="M12.2743 11.1038C11.6657 11.1038 11.4547 11.6879 11.4223 12.7265C12.8503 12.1909 14.1079 12.6291 14.1079 13.9029C14.1079 15.0713 13.3209 15.8584 12.1363 15.8584C10.5866 15.8584 10.043 14.7549 10.043 13.4161C10.043 11.6068 10.8219 10.3248 12.2661 10.3248C13.2884 10.3167 13.9051 10.7305 13.9051 11.3796C13.9051 11.7772 13.5805 12.0774 13.1181 12.0287C13.0369 11.4283 12.7043 11.1038 12.2743 11.1038ZM12.8422 14.3736C12.8422 13.5784 12.2823 13.1808 11.4142 13.2863C11.4548 14.4223 11.8118 15.0713 12.2661 15.0713C12.5663 15.0713 12.8422 14.8441 12.8422 14.3736Z" fill="currentColor"/>
<path d="M13.9739 13.9934C13.9821 15.2186 13.1626 15.8596 11.7832 15.8596C10.7609 15.8678 10.0469 15.4539 10.0469 14.8048C10.0469 14.4073 10.3714 14.1071 10.8339 14.1558C10.9151 14.8129 11.3532 15.0807 11.8076 15.0807C12.2376 15.0807 12.5703 14.8129 12.5703 14.4073C12.5703 13.677 11.8563 13.3281 10.4607 13.4823V10.4397H12.2538C12.6838 10.4397 13.0814 10.4153 13.4709 10.3423C13.5439 10.464 13.5926 10.6263 13.5926 10.7967C13.5926 11.2754 13.2194 11.7135 12.4648 11.7135C11.9617 11.7135 11.5236 11.6567 11.1585 11.5999V12.4356C12.9678 12.1598 13.9739 12.7521 13.9739 13.9934Z" fill="currentColor"/>
<path d="M13.871 13.8627C14.0982 14.1791 14.0414 14.9094 13.2463 14.8526L13.2543 14.9905C13.295 15.6883 12.9541 15.8587 12.4673 15.8587C12.2726 15.8587 12.0454 15.81 11.8588 15.7126L11.8831 14.8283H9.9683L9.7168 14.1304C10.1549 13.027 11.2503 11.1446 11.8913 10.3657L13.2463 10.5767V13.9438C13.4896 13.9438 13.6681 13.9195 13.871 13.8627ZM11.9156 11.4124C11.4856 12.0209 10.7715 13.3272 10.5038 13.9844H11.9156V11.4124Z" fill="currentColor"/>
<path d="M12.1901 12.1021C12.1901 11.6315 11.9223 11.3232 11.5004 11.3232C11.0948 11.3232 10.9568 11.6153 10.9568 12.0778V12.1589C10.9081 12.167 10.8676 12.1751 10.8189 12.1751C10.5268 12.1751 10.3158 11.9317 10.3158 11.5179C10.3158 10.885 10.9 10.3252 12.0116 10.3252C13.0015 10.3252 13.6343 10.8282 13.6343 11.6478C13.6343 12.2644 13.1069 12.6701 12.5877 12.7755C13.5613 12.881 13.967 13.4328 13.967 14.1062C13.967 15.2583 13.0988 15.8587 11.7601 15.8587H11.7276C10.7215 15.8587 10.0156 15.4449 10.0156 14.8039C10.0156 14.4388 10.2915 14.1467 10.7053 14.1467C10.7377 14.1467 10.7702 14.1549 10.8027 14.1549C10.8838 14.812 11.3382 15.0798 11.7925 15.0798C12.2307 15.0798 12.539 14.812 12.539 14.4064V14.3902C12.539 13.7573 11.9954 13.6924 11.1759 13.6113L11.0461 12.8486C11.8087 12.7593 12.1901 12.5403 12.1901 12.1021Z" fill="currentColor"/>
<path d="M12.1998 12.1016C12.1998 11.631 11.9321 11.3227 11.5102 11.3227C11.0802 11.3227 10.9504 11.6473 10.9666 12.1584C10.6015 12.2395 10.3256 11.9961 10.3256 11.5174C10.3256 10.8846 10.8935 10.3247 12.062 10.3247C13.0518 10.3247 13.7333 10.9332 13.7333 11.7121C13.7333 12.5235 13.2952 13.0915 12.1674 14.1138L11.5589 14.6655C12.6867 14.6899 13.4331 14.6331 13.782 14.4221C13.9281 14.5601 14.0092 14.7547 14.0092 14.9982C14.0092 15.4931 13.4494 15.7771 12.8895 15.7771C12.3459 15.7771 10.1471 15.7122 10.1471 15.7122L10.0254 15.2497L11.0964 13.9921C11.8266 13.1321 12.1998 12.6696 12.1998 12.1016Z" fill="currentColor"/>
<path d="M11.3746 15.0147V11.2337C10.5632 11.4122 10.3847 11.0552 10.474 10.6982C10.9608 10.617 12.2265 10.3249 12.7052 10.187V15.0471L13.5897 15.2256C13.5897 15.542 13.403 15.7287 13.0704 15.7287C12.7945 15.7287 12.1535 15.7124 11.8452 15.7124C11.3665 15.7124 10.4902 15.7287 10.4902 15.7287C10.4659 15.6637 10.4578 15.5989 10.4578 15.542C10.4578 15.3879 10.5227 15.2337 10.7336 15.1769L11.3746 15.0147Z" fill="currentColor"/>
</svg>
