<svg width="current" height="current" viewBox="0 0 24 24" fill="none" xmlns="http://www.w3.org/2000/svg">
<path d="M7.26748 10.6136C7.67128 10.6136 8.03848 10.517 8.36968 10.3232C8.70028 10.1258 8.96428 9.85941 9.16168 9.52401C9.35961 9.18848 9.4623 8.80534 9.45868 8.41581C9.45868 8.01621 9.35968 7.65081 9.16228 7.32021C8.96893 6.99341 8.69633 6.72061 8.36968 6.52701C8.03652 6.32875 7.65515 6.22619 7.26748 6.23061C6.86308 6.23061 6.49588 6.32961 6.16528 6.52701C5.83408 6.72501 5.57008 6.98901 5.37208 7.32021C5.17463 7.65127 5.07228 8.03036 5.07628 8.41581C5.07628 8.81961 5.17528 9.18921 5.37268 9.52401C5.57068 9.85941 5.83468 10.1258 6.16588 10.3232C6.50035 10.5177 6.88061 10.618 7.26748 10.6136ZM10.5159 9.02781C10.6659 9.02781 10.7973 8.97381 10.9089 8.86701C10.9627 8.8154 11.0053 8.75332 11.0342 8.68459C11.0631 8.61587 11.0776 8.54195 11.0769 8.46741C11.0777 8.39471 11.0631 8.32268 11.0341 8.256C11.0052 8.18931 10.9625 8.12948 10.9089 8.08041C10.8583 8.02705 10.7974 7.98462 10.7298 7.95572C10.6622 7.92683 10.5894 7.91209 10.5159 7.91241C10.3653 7.91241 10.2339 7.96881 10.1223 8.08041C10.0688 8.12954 10.0262 8.18939 9.99736 8.25607C9.96851 8.32275 9.95404 8.39476 9.95488 8.46741C9.95488 8.62221 10.0089 8.75541 10.1163 8.86701C10.1689 8.919 10.2313 8.96 10.2999 8.98761C10.3685 9.01522 10.4419 9.02888 10.5159 9.02781ZM12.1335 9.02781C12.2883 9.02781 12.4191 8.97381 12.5265 8.86701C12.5803 8.8154 12.6229 8.75332 12.6518 8.68459C12.6807 8.61587 12.6952 8.54195 12.6945 8.46741C12.6953 8.39471 12.6807 8.32268 12.6517 8.256C12.6228 8.18931 12.5801 8.12948 12.5265 8.08041C12.4764 8.02638 12.4156 7.9835 12.3479 7.95455C12.2802 7.9256 12.2071 7.91124 12.1335 7.91241C11.9835 7.91241 11.8515 7.96881 11.7405 8.08041C11.6886 8.13045 11.6474 8.19061 11.6197 8.25718C11.5919 8.32374 11.5781 8.39529 11.5791 8.46741C11.5775 8.54096 11.5907 8.61409 11.6179 8.68245C11.6451 8.75081 11.6857 8.813 11.7375 8.86533C11.7892 8.91766 11.8509 8.95906 11.9189 8.98708C11.9869 9.01509 12.0599 9.02855 12.1335 9.02781ZM13.7703 9.02781C13.9251 9.02781 14.0565 8.97381 14.1639 8.86701C14.2176 8.81534 14.2601 8.75324 14.2889 8.68452C14.3177 8.6158 14.3321 8.54191 14.3313 8.46741C14.3321 8.39471 14.3175 8.32268 14.2885 8.256C14.2596 8.18931 14.2169 8.12948 14.1633 8.08041C14.1127 8.02705 14.0518 7.98462 13.9842 7.95572C13.9166 7.92683 13.8438 7.91209 13.7703 7.91241C13.6967 7.91124 13.6236 7.9256 13.5559 7.95455C13.4882 7.9835 13.4273 8.02638 13.3773 8.08041C13.3255 8.13052 13.2845 8.19071 13.2568 8.25727C13.2292 8.32383 13.2155 8.39534 13.2165 8.46741C13.2165 8.62221 13.2705 8.75541 13.3773 8.86701C13.4284 8.9192 13.4896 8.96039 13.5572 8.98805C13.6247 9.0157 13.6973 9.02923 13.7703 9.02781ZM17.0193 10.6136C17.4231 10.6136 17.7903 10.517 18.1209 10.3232C18.4516 10.13 18.7269 9.85471 18.9201 9.52401C19.118 9.18848 19.2207 8.80534 19.2171 8.41581C19.2171 8.01621 19.1181 7.65081 18.9207 7.32021C18.7257 6.99201 18.4502 6.719 18.1203 6.52701C17.7871 6.32875 17.4057 6.22619 17.0181 6.23061C16.6308 6.22741 16.2499 6.32988 15.9165 6.52701C15.5853 6.72501 15.3213 6.98901 15.1233 7.32021C14.9296 7.65258 14.8295 8.03115 14.8335 8.41581C14.8335 8.81961 14.9301 9.18921 15.1233 9.52401C15.3213 9.85941 15.5853 10.1258 15.9165 10.3232C16.2513 10.517 16.6185 10.6136 17.0187 10.6136H17.0193ZM15.3435 11.954C15.4171 11.9552 15.4901 11.941 15.5578 11.9121C15.6255 11.8833 15.6864 11.8405 15.7365 11.7866C15.7898 11.736 15.8323 11.6751 15.8612 11.6075C15.8901 11.5399 15.9048 11.4671 15.9045 11.3936C15.9057 11.3199 15.8914 11.2467 15.8625 11.1789C15.8335 11.1111 15.7906 11.0501 15.7365 11C15.6864 10.9461 15.6255 10.9033 15.5578 10.8745C15.4901 10.8456 15.4171 10.8314 15.3435 10.8326C15.2708 10.8319 15.1988 10.8465 15.1321 10.8754C15.0654 10.9043 15.0056 10.947 14.9565 11.0006C14.9043 11.0517 14.8631 11.1129 14.8354 11.1805C14.8078 11.2481 14.7943 11.3206 14.7957 11.3936C14.7957 11.5436 14.8491 11.675 14.9565 11.7866C15.0645 11.8982 15.1929 11.954 15.3435 11.954ZM14.1255 13.295C14.1991 13.2961 14.2721 13.2818 14.3399 13.2528C14.4076 13.2239 14.4684 13.181 14.5185 13.127C14.5722 13.0753 14.6147 13.0132 14.6435 12.9445C14.6723 12.8758 14.6867 12.8019 14.6859 12.7274C14.6866 12.6548 14.672 12.5829 14.643 12.5163C14.6141 12.4497 14.5714 12.39 14.5179 12.341C14.4678 12.287 14.407 12.2441 14.3393 12.2152C14.2715 12.1863 14.1985 12.1719 14.1249 12.173C14.0524 12.1732 13.9808 12.1881 13.9143 12.217C13.8479 12.2459 13.788 12.2881 13.7385 12.341C13.6849 12.39 13.6423 12.4497 13.6134 12.5163C13.5844 12.5829 13.5698 12.6548 13.5705 12.7274C13.5705 12.8822 13.6245 13.0154 13.7319 13.127C13.8435 13.2392 13.9755 13.295 14.1255 13.295ZM12.1461 17.7872C12.5505 17.7872 12.9177 17.6882 13.2483 17.4908C13.577 17.2997 13.8504 17.0264 14.0415 16.6976C14.2386 16.3642 14.3411 15.9833 14.3379 15.596C14.3379 15.1916 14.2389 14.8244 14.0415 14.4938C13.8504 14.1651 13.577 13.8917 13.2483 13.7006C12.9151 13.5023 12.5337 13.3998 12.1461 13.4042C11.7423 13.4042 11.3751 13.5032 11.0445 13.7006C10.7157 13.8917 10.4424 14.1651 10.2513 14.4938C10.053 14.827 9.95047 15.2083 9.95488 15.596C9.95488 15.9956 10.0539 16.3628 10.2513 16.6976C10.4493 17.0336 10.7133 17.2976 11.0445 17.4908C11.3751 17.6888 11.7423 17.7872 12.1461 17.7872ZM10.1547 13.295C10.2283 13.2962 10.3014 13.2818 10.3691 13.2529C10.4368 13.2239 10.4976 13.181 10.5477 13.127C10.5998 13.0745 10.6409 13.0121 10.6686 12.9435C10.6963 12.8748 10.7101 12.8014 10.7091 12.7274C10.7091 12.5774 10.6551 12.4484 10.5477 12.341C10.4976 12.287 10.4368 12.2441 10.3691 12.2152C10.3014 12.1862 10.2283 12.1718 10.1547 12.173C10.0801 12.1722 10.0062 12.1868 9.9375 12.2157C9.86877 12.2445 9.80669 12.2872 9.75508 12.341C9.70333 12.391 9.66237 12.4511 9.63472 12.5176C9.60706 12.584 9.5933 12.6554 9.59428 12.7274C9.59428 12.8822 9.64828 13.0154 9.75508 13.127C9.80669 13.1808 9.86877 13.2235 9.9375 13.2524C10.0062 13.2813 10.0801 13.2958 10.1547 13.295ZM8.93668 11.954C9.08668 11.954 9.21568 11.8982 9.32308 11.7866C9.37644 11.736 9.41887 11.6751 9.44777 11.6075C9.47666 11.5399 9.4914 11.4671 9.49108 11.3936C9.49233 11.3199 9.47801 11.2467 9.44906 11.1789C9.42011 11.1111 9.37719 11.0501 9.32308 11C9.27402 10.9466 9.21426 10.904 9.14769 10.8752C9.08112 10.8464 9.00923 10.8318 8.93668 10.8326C8.78668 10.8326 8.65468 10.8884 8.54368 11.0006C8.48966 11.0506 8.44678 11.1115 8.41783 11.1792C8.38888 11.2469 8.37452 11.32 8.37568 11.3936C8.37568 11.5436 8.42968 11.675 8.53708 11.7866C8.58869 11.8404 8.65077 11.8831 8.7195 11.912C8.78822 11.9409 8.86214 11.9548 8.93668 11.954Z" fill="currentColor"/>
</svg>
