<svg width="current" height="current" viewBox="0 0 24 24" fill="none" xmlns="http://www.w3.org/2000/svg">
<g clip-path="url(#clip0_6157_6360)">
<path fill-rule="evenodd" clip-rule="evenodd" d="M19.2562 7.30283L17.3719 9.21533L17.3625 9.19657C16.4344 10.1435 15.7406 10.3591 14.3906 10.2185L13.425 11.1935C13.7625 11.8122 13.6781 12.6091 13.1625 13.1341C12.5344 13.781 11.4937 13.781 10.8469 13.1528C10.2 12.5247 10.1906 11.4841 10.8281 10.8372C11.3437 10.3122 12.1312 10.2185 12.7594 10.5466L13.725 9.57157C13.5656 8.22157 13.7625 7.52783 14.6906 6.58096L16.575 4.66846L17.1 6.82471L19.2562 7.30283ZM14.8032 11.2122H15.0563V11.2309C15.4032 11.2309 15.7126 11.1934 16.0032 11.1278C16.0688 11.4184 16.1063 11.7091 16.1063 12.0184C16.1063 14.2872 14.2688 16.1247 12.0001 16.1247C9.7313 16.1247 7.8938 14.2872 7.8938 12.0184C7.8938 9.7497 9.7313 7.9122 12.0001 7.9122C12.2813 7.9122 12.5626 7.9403 12.8251 7.99657C12.7501 8.3622 12.7219 8.75594 12.7501 9.19657C12.5063 9.13094 12.2626 9.08407 12.0001 9.08407C10.3876 9.08407 9.07506 10.3966 9.07506 12.0091C9.07506 13.6216 10.3876 14.9341 12.0001 14.9341C13.6126 14.9341 14.9251 13.6216 14.9251 12.0091C14.9251 11.7278 14.8782 11.4653 14.8032 11.2122ZM17.4 10.4341C17.6156 10.2747 17.8219 10.0872 18.0375 9.87157L18.525 9.3747C18.8438 10.1903 19.0313 11.0716 19.0313 11.9997C19.0313 15.8809 15.8812 19.031 12 19.031C8.11873 19.031 4.96875 15.8809 4.96875 11.9997C4.96875 8.11844 8.11873 4.96845 12 4.96845C12.8812 4.96845 13.725 5.1372 14.5031 5.4372L14.025 5.9247C13.8094 6.14033 13.6312 6.35595 13.4719 6.57158C13.0031 6.4497 12.5062 6.3747 12 6.3747C8.89687 6.3747 6.375 8.89657 6.375 11.9997C6.375 15.1028 8.89687 17.6247 12 17.6247C15.1031 17.6247 17.625 15.1028 17.625 11.9997C17.625 11.4559 17.5406 10.9309 17.4 10.4341Z" fill="currentColor"/>
</g>
<defs>
<clipPath id="clip0_6157_6360">
<rect width="15" height="15" fill="white" transform="translate(4.5 4.5)"/>
</clipPath>
</defs>
</svg>
