<svg width="current" height="current" viewBox="0 0 62 62" fill="none" xmlns="http://www.w3.org/2000/svg">
<path d="M54.2506 20.6667C50.3756 20.6667 48.309 24.2833 49.3423 27.125L40.0423 36.425C39.2673 36.1667 38.234 36.1667 37.459 36.425L30.7423 29.7083C31.7757 26.8667 29.709 23.25 25.834 23.25C22.2173 23.25 19.8923 26.8667 20.9257 29.7083L9.04232 41.3333C6.20065 40.5583 2.58398 42.625 2.58398 46.5C2.58398 49.3417 4.90898 51.6667 7.75065 51.6667C11.3673 51.6667 13.6923 48.05 12.659 45.2083L24.284 33.325C25.059 33.5833 26.0923 33.5833 26.8673 33.325L33.584 40.0417C32.809 42.625 34.8756 46.5 38.7506 46.5C42.6256 46.5 44.6923 42.8833 43.659 40.0417L52.959 30.7417C55.8006 31.5167 59.4173 29.45 59.4173 25.8333C59.4173 22.9917 57.0923 20.6667 54.2506 20.6667ZM38.7506 23.25L41.0756 17.825L46.5006 15.5L41.0756 13.175L38.7506 7.75L36.4257 13.175L31.0007 15.5L36.4257 17.825L38.7506 23.25ZM9.04232 28.4167L10.334 23.25L15.5007 21.9583L10.334 20.6667L9.04232 15.5L7.75065 20.6667L2.58398 21.9583L7.75065 23.25L9.04232 28.4167Z" fill="#111111"/>
</svg>
