<svg width="current" height="current" viewBox="0 0 62 62" fill="none" xmlns="http://www.w3.org/2000/svg">
<g clip-path="url(#clip0_6157_6247)">
<path d="M35.9175 6.675C34.472 1.775 27.528 1.775 26.0825 6.675L25.7325 7.865C25.5165 8.59858 25.1391 9.27452 24.6279 9.84324C24.1167 10.412 23.4846 10.8591 22.7781 11.1517C22.0716 11.4444 21.3086 11.5752 20.545 11.5346C19.7813 11.494 19.0365 11.283 18.365 10.917L17.28 10.322C12.7895 7.879 7.879 12.7895 10.3255 17.2765L10.917 18.365C12.478 21.235 10.9975 24.8085 7.865 25.7325L6.675 26.0825C1.775 27.528 1.775 34.472 6.675 35.9175L7.865 36.2675C8.59858 36.4835 9.27452 36.8609 9.84324 37.3721C10.412 37.8833 10.8591 38.5154 11.1517 39.2219C11.4444 39.9284 11.5752 40.6914 11.5346 41.455C11.494 42.2187 11.283 42.9635 10.917 43.635L10.322 44.72C7.879 49.2105 12.7895 54.121 17.2765 51.6745L18.365 51.083C19.0365 50.717 19.7813 50.506 20.545 50.4654C21.3086 50.4248 22.0716 50.5556 22.7781 50.8483C23.4846 51.1409 24.1167 51.588 24.6279 52.1568C25.1391 52.7255 25.5165 53.4014 25.7325 54.135L26.0825 55.325C27.528 60.225 34.472 60.225 35.9175 55.325L36.2675 54.135C36.4835 53.4014 36.8609 52.7255 37.3721 52.1568C37.8833 51.588 38.5154 51.1409 39.2219 50.8483C39.9284 50.5556 40.6914 50.4248 41.455 50.4654C42.2187 50.506 42.9635 50.717 43.635 51.083L44.72 51.678C49.2105 54.121 54.121 49.2105 51.6745 44.7235L51.083 43.635C50.717 42.9635 50.506 42.2187 50.4654 41.455C50.4248 40.6914 50.5556 39.9284 50.8483 39.2219C51.1409 38.5154 51.588 37.8833 52.1568 37.3721C52.7255 36.8609 53.4014 36.4835 54.135 36.2675L55.325 35.9175C60.225 34.472 60.225 27.528 55.325 26.0825L54.135 25.7325C53.4014 25.5165 52.7255 25.1391 52.1568 24.6279C51.588 24.1167 51.1409 23.4846 50.8483 22.7781C50.5556 22.0716 50.4248 21.3086 50.4654 20.545C50.506 19.7813 50.717 19.0365 51.083 18.365L51.678 17.28C54.121 12.7895 49.2105 7.879 44.7235 10.3255L43.635 10.917C42.9635 11.283 42.2187 11.494 41.455 11.5346C40.6914 11.5752 39.9284 11.4444 39.2219 11.1517C38.5154 10.8591 37.8833 10.412 37.3721 9.84324C36.8609 9.27452 36.4835 8.59858 36.2675 7.865L35.9175 6.675ZM31 41.255C28.2802 41.255 25.6718 40.1746 23.7486 38.2514C21.8254 36.3282 20.745 33.7198 20.745 31C20.745 28.2802 21.8254 25.6718 23.7486 23.7486C25.6718 21.8254 28.2802 20.745 31 20.745C33.7189 20.745 36.3264 21.8251 38.2489 23.7476C40.1714 25.6701 41.2515 28.2776 41.2515 30.9965C41.2515 33.7154 40.1714 36.3229 38.2489 38.2454C36.3264 40.1679 33.7189 41.248 31 41.248V41.255Z" fill="#111111"/>
</g>
<defs>
<clipPath id="clip0_6157_6247">
<rect width="56" height="56" fill="white" transform="translate(3 3)"/>
</clipPath>
</defs>
</svg>
