<svg
  viewBox="0 0 16 16"
  fill="none"
  xmlns="http://www.w3.org/2000/svg"
>
  <path
    fill-rule="evenodd"
    clip-rule="evenodd"
    d="M3.79137 10.9268L4.3885 9.13352H5.13953L5.73665 10.9268L7.52803 11.5245V12.2763L5.73665 12.8741L5.13953 14.6673H4.3885L3.79137 12.8741L2 12.2763V11.5245L3.79137 10.9268Z"
    fill="#89A4BB"
  />
  <path
    d="M8.92336 1.33402C8.88234 1.33396 8.84034 1.33398 8.79726 1.334L8.73431 1.33402H8.92336Z"
    fill="#89A4BB"
  />
  <path
    d="M8.72228 1.33403L7.24367 1.33403C6.71262 1.33402 6.27433 1.33401 5.9173 1.36321C5.54648 1.39354 5.20561 1.45863 4.88543 1.62194C4.3889 1.8752 3.9852 2.27932 3.73221 2.77636C3.56907 3.09688 3.50404 3.43811 3.47375 3.80932C3.44458 4.16672 3.44458 4.60546 3.44459 5.13706V7.93802H5.75358L6.41329 9.91922L8.72228 10.5796V13.2212H10.2009C10.7319 13.2212 11.1702 13.2212 11.5272 13.192C11.8981 13.1617 12.2389 13.0966 12.5591 12.9333C13.0557 12.68 13.4593 12.2759 13.7123 11.7789C13.8755 11.4584 13.9405 11.1171 13.9708 10.7459C14 10.3885 14 9.94979 14 9.41819V6.61722H9.38199C9.01764 6.61722 8.72228 6.32155 8.72228 5.95682V1.33403Z"
    fill="#89A4BB"
  />
  <path d="M14 6.60945L14 6.54216C14 6.49872 14 6.45636 14 6.41501V6.60945Z" fill="#89A4BB" />
  <path
    d="M13.8694 5.29642C13.8055 5.10067 13.7188 4.91284 13.6111 4.73683C13.4471 4.46889 13.2232 4.24495 12.9268 3.94857L11.3882 2.40832C11.0921 2.11165 10.8684 1.88749 10.6007 1.72329C10.4249 1.61543 10.2372 1.52871 10.0417 1.46473V5.29642H13.8694Z"
    fill="#89A4BB"
  />
</svg>
