<svg
  viewBox="0 0 24 24"
  fill="none"
  xmlns="http://www.w3.org/2000/svg"
>
  <path
    fill-rule="evenodd"
    clip-rule="evenodd"
    d="M15.2413 3H8.7587C7.95375 2.99999 7.28936 2.99998 6.74818 3.0442C6.18608 3.09012 5.66938 3.18868 5.18404 3.43598C4.43139 3.81947 3.81947 4.43139 3.43598 5.18404C3.18868 5.66938 3.09012 6.18608 3.0442 6.74818C2.99998 7.28936 2.99999 7.95373 3 8.75869V15.2413C2.99999 16.0463 2.99998 16.7106 3.0442 17.2518C3.09012 17.8139 3.18868 18.3306 3.43598 18.816C3.81947 19.5686 4.43139 20.1805 5.18404 20.564C5.66938 20.8113 6.18608 20.9099 6.74818 20.9558C7.28937 21 7.95372 21 8.75868 21H15.2413C16.0463 21 16.7106 21 17.2518 20.9558C17.8139 20.9099 18.3306 20.8113 18.816 20.564C19.5686 20.1805 20.1805 19.5686 20.564 18.816C20.8113 18.3306 20.9099 17.8139 20.9558 17.2518C21 16.7106 21 16.0463 21 15.2413V8.75868C21 7.95372 21 7.28937 20.9558 6.74818C20.9099 6.18608 20.8113 5.66938 20.564 5.18404C20.1805 4.43139 19.5686 3.81947 18.816 3.43598C18.3306 3.18868 17.8139 3.09012 17.2518 3.0442C16.7106 2.99998 16.0463 2.99999 15.2413 3ZM11.5257 6.84186L10.3547 10.3547L6.84192 11.5256V12.4743L10.3547 13.6453L11.5257 17.1581H12.4744L13.6453 13.6453L17.1581 12.4743V11.5256L13.6453 10.3547L12.4744 6.84186H11.5257Z"
    fill="#89A4BB"
  />
</svg>
