<svg
  viewBox="0 0 16 16"
  fill="none"
  xmlns="http://www.w3.org/2000/svg"
>
  <path
    fill-rule="evenodd"
    clip-rule="evenodd"
    d="M4.78822 1.33398L4.09117 3.39778L2 4.08572V4.64307L4.09117 5.33101L4.78822 7.3948H5.35297L6.05003 5.33101L8.1412 4.64307V4.08572L7.20248 3.77691L9.23761 3.77691V5.24567L6.85643 6.12692L5.96349 8.47694H4.1776L3.29886 6.16439C3.28468 6.44531 3.28469 6.77539 3.28469 7.16016V9.20588C3.28469 9.67879 3.28468 10.0691 3.311 10.3871C3.33834 10.7173 3.39702 11.0209 3.54423 11.306C3.77252 11.7482 4.13679 12.1077 4.58484 12.333C4.87376 12.4783 5.18135 12.5362 5.51596 12.5632C5.83814 12.5891 6.23363 12.5891 6.71283 12.5891H6.83777L8.64235 14.6673L10.4469 12.5891H10.5719C11.0511 12.5891 11.4466 12.5891 11.7687 12.5632C12.1033 12.5362 12.4109 12.4783 12.6999 12.333C13.1479 12.1077 13.5122 11.7482 13.7405 11.306C13.8877 11.0209 13.9464 10.7173 13.9737 10.3871C14 10.0691 14 9.67881 14 9.20589V7.16015C14 6.68723 14 6.29692 13.9737 5.97897C13.9464 5.64874 13.8877 5.34517 13.7405 5.06004C13.5122 4.61785 13.1479 4.25835 12.6999 4.03304C12.4109 3.88776 12.1033 3.82985 11.7687 3.80287C11.4466 3.77689 11.0511 3.7769 10.5719 3.77691L7.20248 3.77691L6.05003 3.39778L5.35297 1.33398H4.78822ZM9.55058 6.62152L9.15117 7.80406L7.95295 8.19824V8.7556L9.15117 9.14978L9.55058 10.3323H10.1153L10.5147 9.14978L11.713 8.7556V8.19824L10.5147 7.80406L10.1153 6.62152H9.55058Z"
    fill="#89A4BB"
  />
</svg>
