<svg
  width="current"
  height="current"
  viewBox="0 0 20 20"
  fill="none"
  xmlns="http://www.w3.org/2000/svg"
>
  <path
    d="M6.11133 8.18367C6.11133 7.63353 6.32987 7.10593 6.71887 6.71692C7.10788 6.32792 7.63548 6.10938 8.18562 6.10938H14.9257C15.1981 6.10937 15.4678 6.16303 15.7195 6.26727C15.9712 6.37151 16.1998 6.5243 16.3924 6.71692C16.5851 6.90954 16.7379 7.1382 16.8421 7.38987C16.9463 7.64153 17 7.91127 17 8.18367V14.9238C17 15.1962 16.9463 15.4659 16.8421 15.7175C16.7379 15.9692 16.5851 16.1979 16.3924 16.3905C16.1998 16.5831 15.9712 16.7359 15.7195 16.8401C15.4678 16.9444 15.1981 16.998 14.9257 16.998H8.18562C7.91322 16.998 7.64349 16.9444 7.39182 16.8401C7.14016 16.7359 6.91149 16.5831 6.71887 16.3905C6.52626 16.1979 6.37347 15.9692 6.26922 15.7175C6.16498 15.4659 6.11133 15.1962 6.11133 14.9238V8.18367Z"
    stroke="#505050"
    stroke-width="1.25"
    stroke-linecap="round"
    stroke-linejoin="round"
  />
  <path
    d="M3.7871 13.6841C3.54832 13.5485 3.34972 13.352 3.21147 13.1147C3.07323 12.8774 3.00026 12.6078 3 12.3331V4.55552C3 3.69999 3.69999 3 4.55552 3H12.3331C12.9165 3 13.2338 3.29944 13.4998 3.77776"
    stroke="#505050"
    stroke-width="1.25"
    stroke-linecap="round"
    stroke-linejoin="round"
  />
</svg>
