<svg
  width="current"
  height="current"
  viewBox="0 0 20 20"
  fill="none"
  xmlns="http://www.w3.org/2000/svg"
>
  <path
    d="M8.75638 4.66489H4.64468C4.20848 4.66489 3.79015 4.83817 3.48172 5.14661C3.17328 5.45504 3 5.87338 3 6.30957V15.3553C3 15.7915 3.17328 16.2098 3.48172 16.5183C3.79015 16.8267 4.20848 17 4.64468 17H13.6904C14.1266 17 14.545 16.8267 14.8534 16.5183C15.1618 16.2098 15.3351 15.7915 15.3351 15.3553V11.2436M14.1723 3.5021C14.324 3.34502 14.5055 3.21972 14.7062 3.13353C14.9068 3.04733 15.1226 3.00196 15.341 3.00006C15.5594 2.99816 15.776 3.03978 15.9781 3.12247C16.1802 3.20517 16.3639 3.32729 16.5183 3.48172C16.6727 3.63614 16.7948 3.81977 16.8775 4.0219C16.9602 4.22402 17.0018 4.44059 16.9999 4.65897C16.998 4.87735 16.9527 5.09317 16.8665 5.29383C16.7803 5.49448 16.655 5.67596 16.4979 5.82768L9.43728 12.8883H7.1117V10.5627L14.1723 3.5021Z"
    stroke="#505050"
    stroke-width="1.25"
    stroke-linecap="round"
    stroke-linejoin="round"
  />
</svg>
