<svg
  viewBox="0 0 20 20"
  fill="none"
  xmlns="http://www.w3.org/2000/svg"
>
  <path
    d="M11.46 8.53999C10.8766 7.95675 10.0854 7.6291 9.26045 7.6291C8.4355 7.6291 7.64432 7.95675 7.0609 8.53999L3.94979 11.6511C3.65264 11.9381 3.41563 12.2814 3.25258 12.661C3.08953 13.0405 3.00371 13.4488 3.00012 13.8619C2.99653 14.2749 3.07524 14.6846 3.23167 15.067C3.3881 15.4493 3.61911 15.7967 3.91122 16.0888C4.20333 16.3809 4.5507 16.6119 4.93304 16.7683C5.31538 16.9248 5.72505 17.0035 6.13814 16.9999C6.55124 16.9963 6.95948 16.9105 7.33904 16.7474C7.71861 16.5844 8.06191 16.3474 8.3489 16.0502L9.20601 15.1939M8.61645 11.3835C9.19987 11.9668 9.99105 12.2944 10.816 12.2944C11.641 12.2944 12.4321 11.9668 13.0156 11.3835L16.1267 8.27244C16.6934 7.68567 17.007 6.8998 16.9999 6.08408C16.9928 5.26835 16.6656 4.48805 16.0888 3.91122C15.512 3.3344 14.7316 3.00721 13.9159 3.00012C13.1002 2.99303 12.3143 3.30661 11.7276 3.87333L10.872 4.72888"
    stroke="#505050"
    stroke-width="1.25"
    stroke-linecap="round"
    stroke-linejoin="round"
  />
</svg>
