<svg viewBox="0 0 99 24" fill="none" xmlns="http://www.w3.org/2000/svg">
<path d="M10.1113 20.6733C10.1148 21.2939 10.3589 21.8878 10.79 22.3241C11.2211 22.7605 11.8038 23.0037 12.41 23.0002C13.0162 22.9966 13.5962 22.7467 14.0224 22.3053C14.4487 21.8639 14.6862 21.2673 14.6827 20.6466C14.6755 19.342 12.371 15.9795 12.371 15.9795C12.371 15.9795 10.1041 19.3686 10.1113 20.6733Z" fill="url(#paint0_linear_6106_4970)"/>
<path d="M21.0531 14.3025C21.6593 14.299 22.2393 14.049 22.6656 13.6077C23.0918 13.1663 23.3293 12.5697 23.3258 11.949C23.3224 11.3283 23.0783 10.7345 22.6472 10.2981C22.2161 9.86174 21.6333 9.61858 21.0271 9.62211C19.7528 9.6295 16.4688 11.9889 16.4688 11.9889C16.4688 11.9889 19.7788 14.3099 21.0531 14.3025Z" fill="url(#paint1_linear_6106_4970)"/>
<path d="M19.1126 8.0589C19.4304 7.72977 19.6075 7.28486 19.6049 6.82206C19.6024 6.35926 19.4204 5.91642 19.0989 5.59104C18.7774 5.26563 18.3429 5.0843 17.8909 5.08694C17.4389 5.08959 17.0063 5.27597 16.6885 5.60506C16.0205 6.29689 15.5039 9.3139 15.5039 9.3139C15.5039 9.3139 18.4445 8.75072 19.1126 8.0589Z" fill="url(#paint2_linear_6106_4970)"/>
<path d="M16.4953 18.3823C16.8167 18.7077 17.2513 18.889 17.7033 18.8864C18.1553 18.8837 18.5878 18.6973 18.9056 18.3682C19.2235 18.0391 19.4006 17.5942 19.398 17.1314C19.3954 16.6686 19.2134 16.2258 18.8919 15.9004C18.2162 15.2163 15.2695 14.6875 15.2695 14.6875C15.2695 14.6875 15.8196 17.6983 16.4953 18.3823Z" fill="url(#paint3_linear_6106_4970)"/>
<path d="M14.5705 3.32695C14.567 2.70628 14.3229 2.11244 13.8918 1.67606C13.4607 1.23968 12.878 0.996508 12.2718 1.00004C11.6656 1.00357 11.0856 1.25351 10.6593 1.69488C10.2331 2.13625 9.99562 2.7329 9.99906 3.35357C10.0063 4.65824 12.3108 8.02069 12.3108 8.02069C12.3108 8.02069 14.5777 4.63162 14.5705 3.32695Z" fill="url(#paint4_linear_6106_4970)"/>
<path d="M3.5989 9.7383C2.9927 9.74182 2.41269 9.99177 1.98648 10.4331C1.56027 10.8745 1.32276 11.4712 1.32621 12.0918C1.32966 12.7125 1.57377 13.3063 2.00486 13.7427C2.43595 14.1791 3.0187 14.4223 3.6249 14.4187C4.89917 14.4113 8.18329 12.0519 8.18329 12.0519C8.18329 12.0519 4.87318 9.7309 3.5989 9.7383Z" fill="url(#paint5_linear_6106_4970)"/>
<path d="M5.83612 15.9796C5.51833 16.3087 5.34123 16.7536 5.34378 17.2164C5.34636 17.6792 5.5284 18.1221 5.84985 18.4475C6.17131 18.7729 6.60584 18.9542 7.05785 18.9516C7.5099 18.9489 7.94241 18.7626 8.2602 18.4334C8.92829 17.7416 9.44484 14.7246 9.44484 14.7246C9.44484 14.7246 6.50422 15.2878 5.83612 15.9796Z" fill="url(#paint6_linear_6106_4970)"/>
<path d="M8.18494 5.65549C7.86352 5.33008 7.42895 5.14875 6.97694 5.1514C6.5249 5.154 6.09242 5.34038 5.7746 5.66952C5.45677 5.99865 5.27967 6.44356 5.28225 6.90636C5.2848 7.36916 5.46684 7.812 5.78829 8.13737C6.46402 8.82138 9.41071 9.35027 9.41071 9.35027C9.41071 9.35027 8.86067 6.33947 8.18494 5.65549Z" fill="url(#paint7_linear_6106_4970)"/>
<path d="M92.8356 15.3998L92.8661 7.26003C92.8669 7.06131 93.0339 6.9008 93.2391 6.90152L96.6628 6.9135C96.8681 6.91422 97.0339 7.07591 97.0332 7.2746L96.9808 21.3475C96.98 21.5462 96.813 21.7067 96.6074 21.706L93.3529 21.6946C93.1477 21.6939 92.9818 21.5322 92.9825 21.3335L92.9907 19.1209C92.9907 19.0672 92.9461 19.0234 92.8903 19.0232C92.849 19.0231 92.8122 19.0474 92.7962 19.0843C92.0725 20.7639 90.4466 21.8751 88.1654 21.8671C85.0962 21.8564 83.0206 19.7514 83.0333 16.2917L83.0675 7.2257C83.0682 7.02698 83.2352 6.86647 83.4405 6.86719L86.8641 6.87921C87.0694 6.87993 87.2353 7.04159 87.2345 7.24031L87.2033 15.598C87.197 17.3415 88.2346 18.4621 89.8676 18.4678C91.3882 18.4731 92.8282 17.4157 92.8356 15.3998Z" fill="#E65787"/>
<path d="M66.3859 21.814C66.1903 21.8133 66.0325 21.6498 66.0332 21.4488L66.1008 2.22975C66.1015 2.02879 66.2607 1.86646 66.456 1.86719L73.7099 1.89419C78.1295 1.91065 80.6386 4.48223 80.6249 8.42201C80.6157 10.9998 79.5203 12.9091 77.5316 13.9181C77.3441 14.0132 77.2624 14.2488 77.3618 14.4379L80.99 21.3301C81.118 21.573 80.9461 21.8682 80.6776 21.8672L77.0388 21.8536C76.9086 21.8532 76.789 21.7791 76.7278 21.6608L73.2549 14.9506C73.1937 14.8323 73.0741 14.7582 72.9439 14.7578L70.4288 14.7484C70.2335 14.7477 70.0743 14.91 70.0736 15.1109L70.0513 21.4637C70.0506 21.6647 69.8917 21.827 69.6964 21.8263L66.3859 21.814ZM70.0881 11.022C70.0874 11.2229 70.2452 11.3865 70.4408 11.3872L72.9262 11.3964C75.3105 11.4053 76.4656 10.3902 76.4727 8.40655C76.4798 6.39536 75.3317 5.28904 72.9478 5.28016L70.462 5.27092C70.2667 5.27019 70.1079 5.43248 70.1072 5.63345L70.0881 11.022Z" fill="#E65787"/>
<path d="M49.0332 17.5083C49.0458 14.2657 51.8802 13.2033 54.8843 13.0526C55.8509 12.9984 57.5395 12.9268 58.4198 12.8921C58.6239 12.8841 58.7844 12.7287 58.7852 12.5392L58.7883 11.699C58.7642 10.493 57.8717 9.76641 56.2834 9.76107C54.9778 9.75668 54.0952 10.2577 53.7645 11.0863C53.7019 11.2426 53.5497 11.3598 53.3705 11.3592L50.0257 11.348C49.8007 11.3472 49.6241 11.1662 49.6649 10.9608C50.126 8.62962 52.4665 6.85402 56.4104 6.86726C59.8181 6.87869 63.0469 8.30986 63.0332 11.8204L62.9962 21.2746C62.9954 21.4701 62.8241 21.628 62.6136 21.6273L59.3333 21.6163C59.1228 21.6156 58.9526 21.4565 58.9534 21.261L58.9595 19.6723C58.9595 19.6352 58.9275 19.605 58.8874 19.6049C58.8607 19.6048 58.8363 19.6183 58.8233 19.6398C58.0334 20.9583 56.5622 21.8749 54.2435 21.8671C51.2402 21.8571 49.0222 20.4025 49.0332 17.5083ZM53.1347 17.4149C53.1302 18.5404 54.1097 19.1332 55.4672 19.1378C57.4021 19.1443 58.7928 17.943 58.7699 16.4155L58.7726 15.7135C58.7734 15.5119 58.5933 15.3505 58.3763 15.3601C57.5635 15.3959 56.1854 15.4663 55.5679 15.5203C54.0944 15.6494 53.1389 16.2893 53.1347 17.4149Z" fill="#E65787"/>
<path d="M30.3955 21.8085C30.1947 21.8078 30.0325 21.6443 30.0332 21.4434L30.1027 2.22966C30.1034 2.02875 30.2668 1.86646 30.4676 1.86719L33.8698 1.87951C34.0706 1.88024 34.2328 2.0437 34.232 2.24461L34.2048 9.78003C34.204 9.98095 34.3662 10.1444 34.5671 10.1451L42.4839 10.1738C42.685 10.1745 42.8482 10.0122 42.8489 9.81131L42.8762 2.27591C42.8769 2.075 43.0402 1.91272 43.2409 1.91345L46.6707 1.92587C46.8714 1.9266 47.0339 2.09006 47.0332 2.29097L46.9634 21.5047C46.9627 21.7057 46.7994 21.8679 46.5987 21.8672L43.1689 21.8548C42.9682 21.8541 42.806 21.6906 42.8068 21.4897L42.834 13.9543C42.8348 13.7534 42.6726 13.5899 42.4715 13.5891L34.5547 13.5605C34.3539 13.5598 34.1905 13.722 34.1898 13.923L34.1625 21.4584C34.1618 21.6593 33.9984 21.8216 33.7976 21.8208L30.3955 21.8085Z" fill="#E65787"/>
<defs>
<linearGradient id="paint0_linear_6106_4970" x1="12.371" y1="15.9795" x2="12.4119" y2="23.0002" gradientUnits="userSpaceOnUse">
<stop stop-color="#E65787" stop-opacity="0.7"/>
<stop offset="1" stop-color="#E65787"/>
</linearGradient>
<linearGradient id="paint1_linear_6106_4970" x1="16.4687" y1="11.9889" x2="23.3258" y2="11.9509" gradientUnits="userSpaceOnUse">
<stop stop-color="#E65787" stop-opacity="0.7"/>
<stop offset="1" stop-color="#E65787"/>
</linearGradient>
<linearGradient id="paint2_linear_6106_4970" x1="15.5039" y1="9.3139" x2="19.1846" y2="5.67782" gradientUnits="userSpaceOnUse">
<stop stop-color="#E65787" stop-opacity="0.7"/>
<stop offset="1" stop-color="#E65787"/>
</linearGradient>
<linearGradient id="paint3_linear_6106_4970" x1="15.2695" y1="14.6875" x2="18.9904" y2="18.2805" gradientUnits="userSpaceOnUse">
<stop stop-color="#E65787" stop-opacity="0.7"/>
<stop offset="1" stop-color="#E65787"/>
</linearGradient>
<linearGradient id="paint4_linear_6106_4970" x1="12.3108" y1="8.02069" x2="12.2699" y2="1.00005" gradientUnits="userSpaceOnUse">
<stop stop-color="#E65787" stop-opacity="0.7"/>
<stop offset="1" stop-color="#E65787"/>
</linearGradient>
<linearGradient id="paint5_linear_6106_4970" x1="8.18329" y1="12.0519" x2="1.3262" y2="12.09" gradientUnits="userSpaceOnUse">
<stop stop-color="#E65787" stop-opacity="0.7"/>
<stop offset="1" stop-color="#E65787"/>
</linearGradient>
<linearGradient id="paint6_linear_6106_4970" x1="9.44484" y1="14.7246" x2="5.76413" y2="18.3607" gradientUnits="userSpaceOnUse">
<stop stop-color="#E65787" stop-opacity="0.7"/>
<stop offset="1" stop-color="#E65787"/>
</linearGradient>
<linearGradient id="paint7_linear_6106_4970" x1="9.41071" y1="9.35027" x2="5.68989" y2="5.75724" gradientUnits="userSpaceOnUse">
<stop stop-color="#E65787" stop-opacity="0.7"/>
<stop offset="1" stop-color="#E65787"/>
</linearGradient>
</defs>
</svg>
