<svg width="240" height="240" viewBox="0 0 240 240" fill="none" xmlns="http://www.w3.org/2000/svg">
<path d="M100.724 201.397C100.724 206.332 102.684 211.064 106.173 214.553C109.662 218.042 114.394 220.002 119.328 220.002C124.263 220.002 128.995 218.042 132.484 214.553C135.973 211.064 137.933 206.332 137.933 201.397C137.933 191.025 119.328 164.188 119.328 164.188C119.328 164.188 100.724 191.025 100.724 201.397Z" fill="url(#paint0_linear_2537_1730)"/>
<path d="M198.399 138.611C203.333 138.611 208.065 136.651 211.554 133.162C215.043 129.673 217.003 124.941 217.003 120.006C217.003 115.072 215.043 110.34 211.554 106.851C208.065 103.362 203.333 101.402 198.399 101.402C188.027 101.402 161.189 120.006 161.189 120.006C161.189 120.006 188.027 138.611 198.399 138.611Z" fill="url(#paint1_linear_2537_1730)"/>
<path d="M174.636 86.6372C177.238 84.0354 178.699 80.5067 178.699 76.8273C178.699 73.1479 177.238 69.6192 174.636 67.0175C172.034 64.4157 168.506 62.9541 164.826 62.9541C161.147 62.9541 157.618 64.4157 155.017 67.0175C149.548 72.4865 145.207 96.447 145.207 96.447C145.207 96.447 169.167 92.1061 174.636 86.6372Z" fill="url(#paint2_linear_2537_1730)"/>
<path d="M155.019 172.987C157.62 175.589 161.149 177.05 164.828 177.05C168.508 177.05 172.036 175.589 174.638 172.987C177.24 170.385 178.701 166.856 178.701 163.177C178.701 159.498 177.24 155.969 174.638 153.367C169.169 147.898 145.209 143.557 145.209 143.557C145.209 143.557 149.55 167.518 155.019 172.987Z" fill="url(#paint3_linear_2537_1730)"/>
<path d="M137.934 38.6076C137.934 33.6732 135.973 28.941 132.484 25.4519C128.995 21.9628 124.263 20.0026 119.329 20.0026C114.395 20.0026 109.663 21.9628 106.174 25.4519C102.684 28.941 100.724 33.6732 100.724 38.6076C100.724 48.9798 119.329 75.8174 119.329 75.8174C119.329 75.8174 137.934 48.9798 137.934 38.6076Z" fill="url(#paint4_linear_2537_1730)"/>
<path d="M35.6081 101.403C30.6739 101.403 25.9417 103.363 22.4527 106.853C18.9636 110.342 17.0035 115.074 17.0035 120.008C17.0035 124.943 18.9636 129.675 22.4527 133.164C25.9417 136.653 30.6739 138.613 35.6081 138.613C45.9802 138.613 72.8174 120.008 72.8174 120.008C72.8174 120.008 45.9802 101.403 35.6081 101.403Z" fill="url(#paint5_linear_2537_1730)"/>
<path d="M64.0222 153.367C61.4205 155.968 59.9589 159.497 59.9589 163.177C59.9589 166.856 61.4205 170.385 64.0222 172.986C66.6239 175.588 70.1526 177.05 73.8319 177.05C77.5113 177.05 81.0399 175.588 83.6416 172.986C89.1105 167.517 93.4513 143.557 93.4513 143.557C93.4513 143.557 69.4911 147.898 64.0222 153.367Z" fill="url(#paint6_linear_2537_1730)"/>
<path d="M83.6394 67.018C81.0377 64.4163 77.5091 62.9546 73.8297 62.9546C70.1504 62.9546 66.6217 64.4163 64.02 67.018C61.4183 69.6197 59.9567 73.1484 59.9567 76.8279C59.9567 80.5073 61.4183 84.036 64.02 86.6377C69.4889 92.1067 93.4491 96.4475 93.4491 96.4475C93.4491 96.4475 89.1083 72.487 83.6394 67.018Z" fill="url(#paint7_linear_2537_1730)"/>
<defs>
<linearGradient id="paint0_linear_2537_1730" x1="119.328" y1="164.187" x2="119.328" y2="220.002" gradientUnits="userSpaceOnUse">
<stop stop-color="#E65787" stop-opacity="0.7"/>
<stop offset="1" stop-color="#E65787"/>
</linearGradient>
<linearGradient id="paint1_linear_2537_1730" x1="161.189" y1="120.006" x2="217.003" y2="120.006" gradientUnits="userSpaceOnUse">
<stop stop-color="#E65787" stop-opacity="0.7"/>
<stop offset="1" stop-color="#E65787"/>
</linearGradient>
<linearGradient id="paint2_linear_2537_1730" x1="145.207" y1="96.447" x2="174.636" y2="67.0179" gradientUnits="userSpaceOnUse">
<stop stop-color="#E65787" stop-opacity="0.7"/>
<stop offset="1" stop-color="#E65787"/>
</linearGradient>
<linearGradient id="paint3_linear_2537_1730" x1="145.209" y1="143.557" x2="174.639" y2="172.986" gradientUnits="userSpaceOnUse">
<stop stop-color="#E65787" stop-opacity="0.7"/>
<stop offset="1" stop-color="#E65787"/>
</linearGradient>
<linearGradient id="paint4_linear_2537_1730" x1="119.329" y1="75.8174" x2="119.329" y2="20.0026" gradientUnits="userSpaceOnUse">
<stop stop-color="#E65787" stop-opacity="0.7"/>
<stop offset="1" stop-color="#E65787"/>
</linearGradient>
<linearGradient id="paint5_linear_2537_1730" x1="72.8174" y1="120.008" x2="17.0035" y2="120.008" gradientUnits="userSpaceOnUse">
<stop stop-color="#E65787" stop-opacity="0.7"/>
<stop offset="1" stop-color="#E65787"/>
</linearGradient>
<linearGradient id="paint6_linear_2537_1730" x1="93.4513" y1="143.557" x2="64.0218" y2="172.986" gradientUnits="userSpaceOnUse">
<stop stop-color="#E65787" stop-opacity="0.7"/>
<stop offset="1" stop-color="#E65787"/>
</linearGradient>
<linearGradient id="paint7_linear_2537_1730" x1="93.4491" y1="96.4475" x2="64.0196" y2="67.0185" gradientUnits="userSpaceOnUse">
<stop stop-color="#E65787" stop-opacity="0.7"/>
<stop offset="1" stop-color="#E65787"/>
</linearGradient>
</defs>
</svg>
