<svg xmlns="http://www.w3.org/2000/svg" viewBox="0 0 67 20" fill="none">
  <path d="M62.8024 13.5326L62.8329 5.39284C62.8337 5.19412 63.0006 5.03361 63.2059 5.03433L66.6296 5.04631C66.8349 5.04703 67.0007 5.20873 67 5.40741L66.9476 19.4803C66.9468 19.679 66.7798 19.8395 66.5742 19.8388L63.3197 19.8274C63.1144 19.8267 62.9486 19.665 62.9493 19.4663L62.9575 17.2537C62.9575 17.2 62.9129 17.1562 62.8571 17.156C62.8158 17.1559 62.779 17.1803 62.763 17.2171C62.0393 18.8967 60.4134 20.0079 58.1322 20C55.0629 19.9892 52.9874 17.8843 53.0001 14.4245L53.0343 5.35851C53.035 5.15979 53.202 4.99928 53.4073 5L56.8309 5.01202C57.0362 5.01274 57.2021 5.1744 57.2013 5.37312L57.1701 13.7308C57.1638 15.4743 58.2014 16.5949 59.8343 16.6006C61.355 16.6059 62.795 15.5485 62.8024 13.5326Z" fill="#E65787"/>
  <path d="M36.3527 19.9468C36.1571 19.9461 35.9993 19.7826 36 19.5816L36.0676 0.362566C36.0683 0.1616 36.2275 -0.000725332 36.4228 2.43762e-06L43.6767 0.0270064C48.0963 0.0434576 50.6054 2.61505 50.5916 6.55482C50.5824 9.13262 49.4871 11.0419 47.4984 12.0509C47.3109 12.1461 47.2292 12.3816 47.3286 12.5707L50.9568 19.4629C51.0848 19.7058 50.9129 20.001 50.6444 20L47.0056 19.9865C46.8754 19.986 46.7558 19.9119 46.6946 19.7936L43.2217 13.0835C43.1605 12.9652 43.0409 12.891 42.9107 12.8906L40.3956 12.8812C40.2003 12.8805 40.0411 13.0428 40.0404 13.2438L40.0181 19.5966C40.0174 19.7975 39.8585 19.9599 39.6632 19.9591L36.3527 19.9468ZM40.0549 9.15478C40.0542 9.35575 40.212 9.51928 40.4076 9.52001L42.893 9.52925C45.2773 9.53813 46.4324 8.52304 46.4395 6.53936C46.4466 4.52817 45.2985 3.42185 42.9146 3.41297L40.4288 3.40373C40.2335 3.403 40.0747 3.56529 40.074 3.76627L40.0549 9.15478Z" fill="#E65787"/>
  <path d="M19 15.6411C19.0126 12.3985 21.847 11.3361 24.8511 11.1854C25.8177 11.1312 27.5063 11.0597 28.3866 11.0249C28.5907 11.0169 28.7512 10.8615 28.752 10.672L28.7551 9.83179C28.731 8.62576 27.8385 7.89922 26.2502 7.89388C24.9446 7.88949 24.062 8.39053 23.7313 9.21912C23.6687 9.37538 23.5165 9.49261 23.3373 9.49201L19.9925 9.48079C19.7675 9.48001 19.5909 9.299 19.6317 9.09364C20.0928 6.76243 22.4333 4.98684 26.3772 5.00007C29.7849 5.01151 33.0137 6.44268 33 9.95323L32.963 19.4074C32.9622 19.6029 32.7909 19.7608 32.5804 19.7601L29.3001 19.7491C29.0896 19.7484 28.9194 19.5893 28.9202 19.3939L28.9263 17.8051C28.9263 17.768 28.8943 17.7378 28.8542 17.7377C28.8275 17.7376 28.8031 17.7511 28.7901 17.7727C28.0002 19.0911 26.529 20.0077 24.2103 20C21.207 19.9899 18.989 18.5353 19 15.6411ZM23.1015 15.5477C23.097 16.6732 24.0765 17.2661 25.434 17.2706C27.3689 17.2771 28.7596 16.0759 28.7367 14.5483L28.7394 13.8464C28.7402 13.6447 28.5601 13.4833 28.3431 13.4929C27.5303 13.5287 26.1522 13.5991 25.5347 13.6531C24.0612 13.7822 23.1057 14.4222 23.1015 15.5477Z" fill="#E65787"/>
  <path d="M0.362253 19.9414C0.161475 19.9406 -0.000724756 19.7771 2.43564e-06 19.5762L0.069486 0.36247C0.0702132 0.161559 0.233613 -0.000725133 0.434391 2.4369e-06L3.83656 0.0123239C4.03737 0.0130515 4.19957 0.176511 4.19884 0.377422L4.17157 7.91284C4.17085 8.11376 4.33305 8.27721 4.53386 8.27794L12.4507 8.3066C12.6518 8.30733 12.815 8.14505 12.8157 7.94413L12.843 0.408726C12.8437 0.207815 13.007 0.0455338 13.2077 0.0462614L16.6375 0.058681C16.8382 0.0594086 17.0007 0.222868 17 0.423779L16.9302 19.6376C16.9295 19.8385 16.7662 20.0007 16.5655 20L13.1357 19.9876C12.935 19.9869 12.7728 19.8234 12.7736 19.6225L12.8008 12.0871C12.8016 11.8862 12.6394 11.7227 12.4383 11.722L4.5215 11.6933C4.32068 11.6926 4.15732 11.8549 4.15659 12.0558L4.12932 19.5912C4.1286 19.7921 3.96523 19.9544 3.76442 19.9537L0.362253 19.9414Z" fill="#E65787"/>
</svg>