<svg
  width="current"
  height="current"
  viewBox="0 0 20 20"
  fill="none"
  xmlns="http://www.w3.org/2000/svg"
>
  <path
    d="M17.6998 4.22578V10.9633V15.7758C17.6998 16.2863 17.497 16.776 17.136 17.137C16.775 17.498 16.2853 17.7008 15.7748 17.7008H4.2248C3.71426 17.7008 3.22463 17.498 2.86362 17.137C2.50262 16.776 2.2998 16.2863 2.2998 15.7758V10.9633V4.22578C2.2998 3.71524 2.50262 3.22561 2.86362 2.8646C3.22463 2.50359 3.71426 2.30078 4.2248 2.30078H15.7748C16.2853 2.30078 16.775 2.50359 17.136 2.8646C17.497 3.22561 17.6998 3.71524 17.6998 4.22578Z"
    fill="#303030"
    stroke="#303030"
    stroke-width="1.25"
    stroke-linecap="round"
    stroke-linejoin="round"
  />
  <path
    d="M6.40039 10.5922L8.45753 12.7865L13.6004 7.30078"
    stroke="white"
    stroke-width="2"
    stroke-linecap="round"
    stroke-linejoin="round"
  />
</svg>
