<svg
  width="current"
  height="current"
  viewBox="0 0 20 20"
  fill="none"
  xmlns="http://www.w3.org/2000/svg"
>
  <rect width="20" height="20" fill="white" />
  <g clip-path="url(#clip0_2557_14571)">
    <path
      d="M20 10C20 4.47715 15.5228 0 10 0C4.47715 0 0 4.47715 0 10C0 15.5228 4.47715 20 10 20C15.5228 20 20 15.5228 20 10Z"
      fill="#F4F4F6"
    />
    <path
      fill-rule="evenodd"
      clip-rule="evenodd"
      d="M13.5053 11.278L10.5222 14.2609C10.446 13.9553 10.2903 13.6645 10.052 13.4265L9.63569 13.0104L6.14231 9.51706C5.96144 9.33569 5.8726 9.10222 5.87225 8.86488C5.8726 8.62731 5.96144 8.39372 6.14231 8.21263C6.32366 8.03153 6.55697 7.94281 6.79475 7.94213C7.03203 7.94281 7.26563 8.03153 7.44694 8.21238C7.62785 8.39353 7.71663 8.62713 7.71728 8.86488C7.71663 9.10222 7.62785 9.33597 7.44694 9.51706L8.06369 10.1338L10.8647 7.33284L13.0892 9.55694L13.5053 9.97331C13.6863 10.1544 13.7751 10.3881 13.7754 10.6255C13.7751 10.863 13.6863 11.0965 13.5053 11.278ZM9.4351 15.3479C9.25394 15.5291 9.02003 15.6175 8.78138 15.6183C8.54488 15.6175 8.31156 15.5288 8.13066 15.3479C7.94956 15.1668 7.86075 14.9331 7.86035 14.6957C7.86075 14.4579 7.94956 14.2247 8.13047 14.0435L8.78288 13.391L9.01894 13.6272L9.43531 14.0433C9.61625 14.2247 9.70497 14.4582 9.70541 14.6957C9.70497 14.9331 9.61625 15.1666 9.4351 15.3479ZM10.2131 4.14163C10.3938 3.96144 10.6273 3.87259 10.8648 3.87219C11.1024 3.87259 11.3358 3.96113 11.5171 4.14234C11.698 4.32366 11.7868 4.55725 11.7874 4.79478C11.7868 5.03216 11.698 5.26563 11.5171 5.44694L11.2592 5.70481L8.53569 8.42841C8.45931 8.12303 8.30144 7.83338 8.06344 7.59575C7.82878 7.36075 7.54316 7.20391 7.24213 7.12656L10.2131 4.14163ZM14.122 9.35656L13.7057 8.94025L11.4815 6.71597L12.1338 6.06359C12.4833 5.71438 12.66 5.25263 12.6594 4.79478C12.66 4.33678 12.4833 3.87509 12.1338 3.52563C11.7844 3.17581 11.3224 2.99963 10.8648 3C10.4069 2.99963 9.9451 3.17606 9.59572 3.52581L5.68681 7.4525C5.63081 7.49656 5.57691 7.54447 5.52544 7.59594C5.17603 7.94513 4.99956 8.40716 5 8.86488C4.99956 9.32256 5.17603 9.78441 5.5256 10.1338L8.16613 12.7743L7.51375 13.4265C7.16397 13.7758 6.98769 14.2377 6.98816 14.6957C6.98769 15.1535 7.16419 15.6152 7.51397 15.9648C7.8625 16.3135 8.32363 16.4906 8.78138 16.4903H8.7831C9.24028 16.4903 9.70216 16.3144 10.0518 15.9647L14.122 11.8946C14.4716 11.5452 14.6482 11.0834 14.6475 10.6255C14.6482 10.1677 14.4716 9.70563 14.122 9.35656Z"
      fill="currentColor"
    />
  </g>
  <defs>
    <clipPath id="clip0_2557_14571">
      <rect width="20" height="20" fill="white" />
    </clipPath>
  </defs>
</svg>
