<svg viewBox="0 0 16 16" fill="none" xmlns="http://www.w3.org/2000/svg">
    <path d="M2.67365 13.9453H13.3255C13.4985 13.9453 13.6686 13.9004 13.819 13.815C13.9695 13.7296 14.0952 13.6066 14.1839 13.458C14.2726 13.3095 14.3213 13.1405 14.3251 12.9675C14.3289 12.7946 14.2879 12.6236 14.2058 12.4712L8.88021 2.58062C8.5024 1.87937 7.49677 1.87937 7.11896 2.58062L1.79334 12.4712C1.71132 12.6236 1.67023 12.7946 1.67408 12.9675C1.67792 13.1405 1.72657 13.3095 1.81528 13.458C1.90398 13.6066 2.0297 13.7296 2.18016 13.815C2.33061 13.9004 2.50065 13.9453 2.67365 13.9453Z"
          stroke="#C83028" stroke-width="1.25" stroke-linecap="round" stroke-linejoin="round"/>
    <path d="M7.82043 6.10587L7.99981 9.91837L8.17887 6.10743C8.17998 6.08307 8.1761 6.05874 8.16749 6.03592C8.15887 6.01311 8.14569 5.99229 8.12876 5.97474C8.11182 5.95719 8.09149 5.94328 8.06899 5.93385C8.0465 5.92443 8.02232 5.91969 7.99793 5.91993C7.97397 5.92016 7.9503 5.9252 7.92832 5.93473C7.90634 5.94426 7.88649 5.95811 7.86994 5.97544C7.8534 5.99277 7.84049 6.01324 7.83199 6.03564C7.82348 6.05804 7.81956 6.08192 7.82043 6.10587Z"
          stroke="#C83028" stroke-width="1.25" stroke-linecap="round" stroke-linejoin="round"/>
    <path d="M8 12.4141C7.87639 12.4141 7.75555 12.3774 7.65277 12.3087C7.54999 12.2401 7.46988 12.1424 7.42258 12.0282C7.37527 11.914 7.36289 11.7884 7.38701 11.6671C7.41113 11.5459 7.47065 11.4345 7.55806 11.3471C7.64547 11.2597 7.75683 11.2002 7.87807 11.1761C7.99931 11.152 8.12497 11.1643 8.23918 11.2116C8.35338 11.2589 8.45099 11.339 8.51967 11.4418C8.58834 11.5446 8.625 11.6654 8.625 11.7891C8.625 11.9548 8.55915 12.1138 8.44194 12.231C8.32473 12.3482 8.16576 12.4141 8 12.4141Z"
          fill="#C83028"/>
</svg>
