<svg width="current" height="current" viewBox="0 0 16 16" fill="none" xmlns="http://www.w3.org/2000/svg">
<path d="M9.33366 9.29134C9.67884 9.29134 9.95866 9.01152 9.95866 8.66634C9.95866 8.32116 9.67884 8.04134 9.33366 8.04134V9.29134ZM9.33366 14.6247C9.67884 14.6247 9.95866 14.3449 9.95866 13.9997C9.95866 13.6545 9.67884 13.3747 9.33366 13.3747V14.6247ZM10.0003 10.708C9.65515 10.708 9.37533 10.9878 9.37533 11.333C9.37533 11.6782 9.65515 11.958 10.0003 11.958V10.708ZM14.0003 11.958C14.3455 11.958 14.6253 11.6782 14.6253 11.333C14.6253 10.9878 14.3455 10.708 14.0003 10.708V11.958ZM11.3753 13.333C11.3753 13.6782 11.6551 13.958 12.0003 13.958C12.3455 13.958 12.6253 13.6782 12.6253 13.333H11.3753ZM12.6253 9.33301C12.6253 8.98783 12.3455 8.70801 12.0003 8.70801C11.6551 8.70801 11.3753 8.98783 11.3753 9.33301H12.6253ZM10.0003 3.99967H9.37533C9.37533 5.12726 8.46124 6.04134 7.33366 6.04134V6.66634V7.29134C9.1516 7.29134 10.6253 5.81761 10.6253 3.99967H10.0003ZM7.33366 6.66634V6.04134C6.20608 6.04134 5.29199 5.12726 5.29199 3.99967H4.66699H4.04199C4.04199 5.81761 5.51572 7.29134 7.33366 7.29134V6.66634ZM4.66699 3.99967H5.29199C5.29199 2.87209 6.20608 1.95801 7.33366 1.95801V1.33301V0.708008C5.51572 0.708008 4.04199 2.18174 4.04199 3.99967H4.66699ZM7.33366 1.33301V1.95801C8.46124 1.95801 9.37533 2.87209 9.37533 3.99967H10.0003H10.6253C10.6253 2.18174 9.1516 0.708008 7.33366 0.708008V1.33301ZM5.33366 8.66634V9.29134H9.33366V8.66634V8.04134H5.33366V8.66634ZM9.33366 13.9997V13.3747H5.33366V13.9997V14.6247H9.33366V13.9997ZM5.33366 13.9997V13.3747C4.20608 13.3747 3.29199 12.4606 3.29199 11.333H2.66699H2.04199C2.04199 13.1509 3.51572 14.6247 5.33366 14.6247V13.9997ZM5.33366 8.66634V8.04134C3.51572 8.04134 2.04199 9.51507 2.04199 11.333H2.66699H3.29199C3.29199 10.2054 4.20608 9.29134 5.33366 9.29134V8.66634ZM10.0003 11.333V11.958H14.0003V11.333V10.708H10.0003V11.333ZM12.0003 13.333H12.6253V9.33301H12.0003H11.3753V13.333H12.0003Z" fill="#767676"/>
</svg>
