<svg width="current" height="current" viewBox="0 0 16 16" fill="none" xmlns="http://www.w3.org/2000/svg">
<path d="M9.33333 2V2.625V2ZM10 2V1.375V2ZM14 6H14.625H14ZM14 10H13.375H14ZM10 14V14.625V14ZM9.33333 14V13.375V14ZM13.959 11.1881L14.5763 11.2859V11.2859L13.959 11.1881ZM11.1881 13.959L11.0903 13.3417L11.1881 13.959ZM11.1881 2.04104L11.2859 1.42373L11.2859 1.42373L11.1881 2.04104ZM13.959 4.81188L14.5763 4.71411V4.71411L13.959 4.81188ZM6.95797 2.16669C6.68198 2.374 6.6263 2.76579 6.8336 3.04178C7.04091 3.31778 7.4327 3.37346 7.70869 3.16615L6.95797 2.16669ZM7.70869 12.8338C7.4327 12.6265 7.04091 12.6822 6.8336 12.9582C6.6263 13.2342 6.68198 13.626 6.95797 13.8333L7.70869 12.8338ZM2 7.375C1.65482 7.375 1.375 7.65482 1.375 8C1.375 8.34518 1.65482 8.625 2 8.625L2 7.375ZM10.6667 8V7.375V8ZM8.27836 10.1769C8.00788 10.3914 7.96247 10.7845 8.17693 11.055C8.39139 11.3254 8.7845 11.3709 9.05498 11.1564L8.27836 10.1769ZM9.84198 9.73477L9.45367 9.24503L9.84198 9.73477ZM9.84198 6.26523L9.45367 6.75497H9.45367L9.84198 6.26523ZM9.05497 4.8436C8.7845 4.62914 8.39139 4.67455 8.17693 4.94503C7.96247 5.2155 8.00788 5.60861 8.27836 5.82307L9.05497 4.8436ZM11.3201 8.16711L11.9373 8.26545L11.9373 8.26545L11.3201 8.16711ZM11.3201 7.83289L11.9373 7.73455L11.9373 7.73455L11.3201 7.83289ZM9.33333 2V2.625H10V2V1.375H9.33333V2ZM14 6H13.375V10H14H14.625V6H14ZM10 14V13.375H9.33333V14V14.625H10V14ZM14 10H13.375C13.375 10.6432 13.3731 10.8921 13.3417 11.0903L13.959 11.1881L14.5763 11.2859C14.6269 10.9659 14.625 10.5955 14.625 10H14ZM10 14V14.625C10.5955 14.625 10.9659 14.6269 11.2859 14.5763L11.1881 13.959L11.0903 13.3417C10.8921 13.3731 10.6432 13.375 10 13.375V14ZM13.959 11.1881L13.3417 11.0903C13.1581 12.2492 12.2492 13.1581 11.0903 13.3417L11.1881 13.959L11.2859 14.5763C12.9796 14.308 14.308 12.9796 14.5763 11.2859L13.959 11.1881ZM10 2V2.625C10.6432 2.625 10.8921 2.62694 11.0903 2.65834L11.1881 2.04104L11.2859 1.42373C10.9659 1.37306 10.5955 1.375 10 1.375V2ZM14 6H14.625C14.625 5.40455 14.6269 5.03405 14.5763 4.71411L13.959 4.81188L13.3417 4.90966C13.3731 5.10794 13.375 5.35678 13.375 6H14ZM11.1881 2.04104L11.0903 2.65834C12.2492 2.84189 13.1581 3.75078 13.3417 4.90966L13.959 4.81188L14.5763 4.71411C14.308 3.02037 12.9796 1.692 11.2859 1.42373L11.1881 2.04104ZM9.33333 2V1.375C8.44295 1.375 7.6196 1.66973 6.95797 2.16669L7.33333 2.66642L7.70869 3.16615C8.16128 2.8262 8.72291 2.625 9.33333 2.625V2ZM9.33333 14V13.375C8.72291 13.375 8.16129 13.1738 7.70869 12.8338L7.33333 13.3336L6.95797 13.8333C7.6196 14.3303 8.44295 14.625 9.33333 14.625L9.33333 14ZM2 8L2 8.625L10.6667 8.625V8V7.375L2 7.375L2 8ZM8.66667 10.6667L9.05498 11.1564L10.2303 10.2245L9.84198 9.73477L9.45367 9.24503L8.27836 10.1769L8.66667 10.6667ZM9.84198 6.26523L10.2303 5.7755L9.05497 4.8436L8.66667 5.33333L8.27836 5.82307L9.45367 6.75497L9.84198 6.26523ZM9.84198 9.73477L10.2303 10.2245C10.687 9.86241 11.0721 9.55825 11.3465 9.28488C11.6238 9.00873 11.8702 8.68648 11.9373 8.26545L11.3201 8.16711L10.7029 8.06877C10.6978 8.10065 10.6738 8.19064 10.4644 8.3993C10.2521 8.61074 9.93428 8.86396 9.45367 9.24503L9.84198 9.73477ZM9.84198 6.26523L9.45367 6.75497C9.93428 7.13604 10.2521 7.38926 10.4644 7.6007C10.6738 7.80936 10.6978 7.89935 10.7029 7.93123L11.3201 7.83289L11.9373 7.73455C11.8702 7.31352 11.6238 6.99127 11.3465 6.71512C11.0721 6.44175 10.687 6.13759 10.2303 5.7755L9.84198 6.26523ZM11.3201 8.16711L11.9373 8.26545C11.9513 8.17756 11.9583 8.08887 11.9583 8H11.3333H10.7083C10.7083 8.02276 10.7065 8.04569 10.7029 8.06877L11.3201 8.16711ZM11.3333 8H11.9583C11.9583 7.91113 11.9513 7.82244 11.9373 7.73455L11.3201 7.83289L10.7029 7.93123C10.7065 7.95431 10.7083 7.97724 10.7083 8H11.3333ZM10.6667 8V8.625H11.3333V8V7.375H10.6667V8Z" fill="#999999"/>
</svg>
