<svg width="current" height="current" viewBox="0 0 16 16" fill="none" xmlns="http://www.w3.org/2000/svg">
<path d="M10.6663 5.99967H10.0413C10.0413 7.12726 9.12726 8.04134 7.99967 8.04134V8.66634V9.29134C9.81761 9.29134 11.2913 7.81761 11.2913 5.99967H10.6663ZM7.99967 8.66634V8.04134C6.87209 8.04134 5.95801 7.12726 5.95801 5.99967H5.33301H4.70801C4.70801 7.81761 6.18174 9.29134 7.99967 9.29134V8.66634ZM5.33301 5.99967H5.95801C5.95801 4.87209 6.87209 3.95801 7.99967 3.95801V3.33301V2.70801C6.18174 2.70801 4.70801 4.18174 4.70801 5.99967H5.33301ZM7.99967 3.33301V3.95801C9.12726 3.95801 10.0413 4.87209 10.0413 5.99967H10.6663H11.2913C11.2913 4.18174 9.81761 2.70801 7.99967 2.70801V3.33301ZM5.99967 10.6663V11.2913H9.99967V10.6663V10.0413H5.99967V10.6663ZM1.33301 7.99967H1.95801C1.95801 4.66295 4.66295 1.95801 7.99967 1.95801V1.33301V0.708008C3.9726 0.708008 0.708008 3.9726 0.708008 7.99967H1.33301ZM7.99967 1.33301V1.95801C11.3364 1.95801 14.0413 4.66295 14.0413 7.99967H14.6663H15.2913C15.2913 3.9726 12.0268 0.708008 7.99967 0.708008V1.33301ZM14.6663 7.99967H14.0413C14.0413 9.71311 13.3289 11.2591 12.1824 12.3594L12.6151 12.8103L13.0479 13.2612C14.4298 11.935 15.2913 10.0674 15.2913 7.99967H14.6663ZM12.6151 12.8103L12.1824 12.3594C11.0962 13.4017 9.62331 14.0413 7.99967 14.0413V14.6663V15.2913C9.95866 15.2913 11.7383 14.518 13.0479 13.2612L12.6151 12.8103ZM9.99967 10.6663V11.2913C10.9896 11.2913 11.8162 11.9965 12.0021 12.9321L12.6151 12.8103L13.2281 12.6885C12.9282 11.1792 11.5975 10.0413 9.99967 10.0413V10.6663ZM7.99967 14.6663V14.0413C6.37604 14.0413 4.90311 13.4017 3.81697 12.3594L3.38422 12.8103L2.95146 13.2612C4.26102 14.518 6.04069 15.2913 7.99967 15.2913V14.6663ZM3.38422 12.8103L3.81697 12.3594C2.67046 11.2591 1.95801 9.71311 1.95801 7.99967H1.33301H0.708008C0.708008 10.0674 1.56951 11.935 2.95146 13.2612L3.38422 12.8103ZM5.99967 10.6663V10.0413C4.40185 10.0413 3.07116 11.1792 2.77121 12.6885L3.38422 12.8103L3.99723 12.9321C4.18318 11.9965 5.00978 11.2913 5.99967 11.2913V10.6663Z" fill="#767676"/>
</svg>
