<svg viewBox="0 0 22 22" fill="none" xmlns="http://www.w3.org/2000/svg">
<path d="M20.6258 11.2139C20.6258 10.4225 20.5603 9.84497 20.4185 9.24609H11.1973V12.818H16.6099C16.5008 13.7057 15.9115 15.0425 14.602 15.9408L14.5836 16.0603L17.4992 18.2738L17.7012 18.2936C19.5563 16.6145 20.6258 14.1441 20.6258 11.2139Z" fill="#4285F4"/>
<path d="M11.1967 20.6258C13.8484 20.6258 16.0745 19.7702 17.7006 18.2944L14.6014 15.9415C13.772 16.5083 12.6589 16.904 11.1967 16.904C8.59946 16.904 6.39512 15.225 5.60933 12.9043L5.49415 12.9139L2.4625 15.2132L2.42285 15.3212C4.03791 18.4654 7.35536 20.6258 11.1967 20.6258Z" fill="#34A853"/>
<path d="M5.61006 12.9038C5.40272 12.305 5.28273 11.6632 5.28273 11.0002C5.28273 10.3371 5.40272 9.69549 5.59915 9.09661L5.59366 8.96906L2.524 6.63281L2.42357 6.67963C1.75792 7.98437 1.37598 9.44954 1.37598 11.0002C1.37598 12.5509 1.75792 14.016 2.42357 15.3207L5.61006 12.9038Z" fill="#FBBC05"/>
<path d="M11.1967 5.09664C13.0409 5.09664 14.2849 5.87733 14.9943 6.52974L17.7661 3.8775C16.0638 2.32681 13.8485 1.375 11.1967 1.375C7.35539 1.375 4.03792 3.53526 2.42285 6.6794L5.59844 9.09638C6.39514 6.77569 8.59949 5.09664 11.1967 5.09664Z" fill="#EB4335"/>
</svg>
