<svg viewBox="0 0 20 20" fill="none" xmlns="http://www.w3.org/2000/svg">
<g clip-path="url(#clip0_3861_47321)">
<path d="M16.192 4.92312C16.192 4.29246 15.6808 3.7832 15.0525 3.7832C14.4242 3.7832 13.9126 4.29246 13.9126 4.92312C13.9126 5.55147 14.4242 6.0607 15.0525 6.0607C15.6808 6.0607 16.192 5.55147 16.192 4.92312Z" fill="url(#paint0_linear_3861_47321)"/>
<path d="M17.7103 13.8217C17.6681 14.7469 17.5134 15.2495 17.385 15.5834C17.2124 16.026 17.0065 16.3426 16.6727 16.6745C16.3425 17.0065 16.026 17.2119 15.5834 17.3826C15.2495 17.5129 14.745 17.6681 13.8198 17.7122C12.8197 17.7563 12.5233 17.7657 9.98698 17.7657C7.453 17.7657 7.15427 17.7563 6.1541 17.7122C5.22897 17.6681 4.72675 17.5129 4.39287 17.3826C3.94788 17.2119 3.63373 17.0065 3.30174 16.6745C2.9674 16.3426 2.76156 16.026 2.59135 15.5834C2.46284 15.2495 2.30578 14.7469 2.2659 13.8217C2.21716 12.8215 2.20822 12.5205 2.20822 9.9893C2.20822 7.45298 2.21716 7.15428 2.2659 6.15408C2.30578 5.22895 2.46284 4.72677 2.59135 4.39007C2.76156 3.94789 2.9674 3.63324 3.30174 3.30125C3.63373 2.96976 3.94788 2.76388 4.39287 2.59135C4.72675 2.46052 5.22897 2.30765 6.1541 2.26358C7.15427 2.21948 7.453 2.20822 9.98698 2.20822C12.5233 2.20822 12.8197 2.21948 13.8198 2.26358C14.745 2.30765 15.2495 2.46052 15.5834 2.59135C16.026 2.76388 16.3425 2.96976 16.6727 3.30125C17.0065 3.63324 17.2124 3.94789 17.385 4.39007C17.5134 4.72677 17.6681 5.22895 17.7103 6.15408C17.7568 7.15428 17.768 7.45298 17.768 9.9893C17.768 12.5205 17.7568 12.8215 17.7103 13.8217ZM19.4186 6.07626C19.3722 5.06528 19.2127 4.37459 18.9759 3.77299C18.7349 3.14886 18.4118 2.61994 17.8829 2.09101C17.3563 1.56444 16.8274 1.24135 16.2033 0.997524C15.5993 0.763059 14.911 0.601742 13.8995 0.557676C12.8881 0.508898 12.565 0.5 9.98698 0.5C7.41123 0.5 7.08585 0.508898 6.0744 0.557676C5.0653 0.601742 4.37739 0.763059 3.77064 0.997524C3.14887 1.24135 2.61994 1.56444 2.09336 2.09101C1.56443 2.61994 1.24135 3.14886 0.997982 3.77299C0.763515 4.37459 0.604098 5.06528 0.55532 6.07626C0.511254 7.08771 0.5 7.41125 0.5 9.9893C0.5 12.565 0.511254 12.8881 0.55532 13.8995C0.604098 14.9086 0.763515 15.5989 0.997982 16.2033C1.24135 16.8251 1.56443 17.3564 2.09336 17.8829C2.61994 18.4095 3.14887 18.7349 3.77064 18.9783C4.37739 19.2127 5.0653 19.3722 6.0744 19.4186C7.08585 19.465 7.41123 19.4763 9.98698 19.4763C12.565 19.4763 12.8881 19.465 13.8995 19.4186C14.911 19.3722 15.5993 19.2127 16.2033 18.9783C16.8274 18.7349 17.3563 18.4095 17.8829 17.8829C18.4118 17.3564 18.7349 16.8251 18.9759 16.2033C19.2127 15.5989 19.3722 14.9086 19.4186 13.8995C19.465 12.8881 19.4763 12.565 19.4763 9.9893C19.4763 7.41125 19.465 7.08771 19.4186 6.07626Z" fill="url(#paint1_linear_3861_47321)"/>
<path d="M9.98676 13.1485C8.241 13.1485 6.82443 11.7342 6.82443 9.98849C6.82443 8.23992 8.241 6.82385 9.98676 6.82385C11.733 6.82385 13.1514 8.23992 13.1514 9.98849C13.1514 11.7342 11.733 13.1485 9.98676 13.1485ZM9.98676 5.11328C7.2957 5.11328 5.11621 7.29743 5.11621 9.98849C5.11621 12.6772 7.2957 14.8591 9.98676 14.8591C12.6778 14.8591 14.8597 12.6772 14.8597 9.98849C14.8597 7.29743 12.6778 5.11328 9.98676 5.11328Z" fill="url(#paint2_linear_3861_47321)"/>
</g>
<defs>
<linearGradient id="paint0_linear_3861_47321" x1="0.671101" y1="19.2795" x2="17.8957" y2="2.05497" gradientUnits="userSpaceOnUse">
<stop stop-color="#FFD521"/>
<stop offset="0.05" stop-color="#FFD521"/>
<stop offset="0.501119" stop-color="#F50000"/>
<stop offset="0.95" stop-color="#B900B4"/>
<stop offset="0.950079" stop-color="#B900B4"/>
<stop offset="1" stop-color="#B900B4"/>
</linearGradient>
<linearGradient id="paint1_linear_3861_47321" x1="0.671163" y1="19.3037" x2="17.9099" y2="2.06499" gradientUnits="userSpaceOnUse">
<stop stop-color="#FFD521"/>
<stop offset="0.05" stop-color="#FFD521"/>
<stop offset="0.501119" stop-color="#F50000"/>
<stop offset="0.95" stop-color="#B900B4"/>
<stop offset="0.950079" stop-color="#B900B4"/>
<stop offset="1" stop-color="#B900B4"/>
</linearGradient>
<linearGradient id="paint2_linear_3861_47321" x1="0.675428" y1="19.3034" x2="17.91" y2="2.06879" gradientUnits="userSpaceOnUse">
<stop stop-color="#FFD521"/>
<stop offset="0.05" stop-color="#FFD521"/>
<stop offset="0.501119" stop-color="#F50000"/>
<stop offset="0.95" stop-color="#B900B4"/>
<stop offset="0.950079" stop-color="#B900B4"/>
<stop offset="1" stop-color="#B900B4"/>
</linearGradient>
<clipPath id="clip0_3861_47321">
<rect width="19" height="19" fill="white" transform="translate(0.5 0.5)"/>
</clipPath>
</defs>
</svg>
