<svg viewBox="0 0 32 32" fill="none" xmlns="http://www.w3.org/2000/svg">
<path d="M0 5C0 2.23858 2.23858 0 5 0H27C29.7614 0 32 2.23858 32 5V27C32 29.7614 29.7614 32 27 32H5C2.23858 32 0 29.7614 0 27V5Z" fill="#FCE7D9"/>
<path d="M9.69079 14.1518C10.2292 14.1518 10.7188 14.023 11.1604 13.7646C11.6012 13.5014 11.9532 13.1462 12.2164 12.699C12.4803 12.2516 12.6172 11.7408 12.6124 11.2214C12.6124 10.6886 12.4804 10.2014 12.2172 9.7606C11.9594 9.32487 11.5959 8.96114 11.1604 8.703C10.7162 8.43866 10.2077 8.30191 9.69079 8.3078C9.15159 8.3078 8.66199 8.4398 8.22119 8.703C7.77959 8.967 7.42759 9.319 7.16359 9.7606C6.90033 10.202 6.76386 10.7075 6.76919 11.2214C6.76919 11.7598 6.90119 12.2526 7.16439 12.699C7.42839 13.1462 7.78039 13.5014 8.22199 13.7646C8.66795 14.0239 9.17496 14.1577 9.69079 14.1518ZM14.022 12.0374C14.222 12.0374 14.3972 11.9654 14.546 11.823C14.6177 11.7542 14.6746 11.6714 14.7131 11.5798C14.7517 11.4881 14.771 11.3896 14.77 11.2902C14.771 11.1933 14.7516 11.0972 14.713 11.0083C14.6744 10.9194 14.6175 10.8396 14.546 10.7742C14.4786 10.7031 14.3973 10.6465 14.3072 10.608C14.2171 10.5694 14.12 10.5498 14.022 10.5502C13.8212 10.5502 13.646 10.6254 13.4972 10.7742C13.4258 10.8397 13.3691 10.9195 13.3306 11.0084C13.2922 11.0973 13.2729 11.1933 13.274 11.2902C13.274 11.4966 13.346 11.6742 13.4892 11.823C13.5593 11.8923 13.6425 11.947 13.734 11.9838C13.8255 12.0206 13.9234 12.0388 14.022 12.0374ZM16.1788 12.0374C16.3852 12.0374 16.5596 11.9654 16.7028 11.823C16.7745 11.7542 16.8314 11.6714 16.8699 11.5798C16.9085 11.4881 16.9278 11.3896 16.9268 11.2902C16.9278 11.1933 16.9084 11.0972 16.8698 11.0083C16.8312 10.9194 16.7743 10.8396 16.7028 10.7742C16.6361 10.7022 16.5549 10.645 16.4646 10.6064C16.3744 10.5678 16.277 10.5487 16.1788 10.5502C15.9788 10.5502 15.8028 10.6254 15.6548 10.7742C15.5855 10.8409 15.5307 10.9211 15.4937 11.0099C15.4567 11.0986 15.4383 11.194 15.4396 11.2902C15.4374 11.3883 15.455 11.4858 15.4913 11.5769C15.5276 11.6681 15.5818 11.751 15.6508 11.8208C15.7197 11.8905 15.802 11.9457 15.8927 11.9831C15.9834 12.0204 16.0807 12.0384 16.1788 12.0374ZM18.3612 12.0374C18.5676 12.0374 18.7428 11.9654 18.886 11.823C18.9576 11.7541 19.0143 11.6713 19.0527 11.5797C19.0911 11.4881 19.1103 11.3895 19.1092 11.2902C19.1102 11.1933 19.0908 11.0972 19.0522 11.0083C19.0136 10.9194 18.9567 10.8396 18.8852 10.7742C18.8178 10.7031 18.7365 10.6465 18.6464 10.608C18.5563 10.5694 18.4592 10.5498 18.3612 10.5502C18.263 10.5487 18.1656 10.5678 18.0753 10.6064C17.9851 10.645 17.9039 10.7022 17.8372 10.7742C17.7681 10.841 17.7135 10.9213 17.6766 11.01C17.6397 11.0988 17.6214 11.1941 17.6228 11.2902C17.6228 11.4966 17.6948 11.6742 17.8372 11.823C17.9053 11.8926 17.9869 11.9475 18.077 11.9844C18.1671 12.0213 18.2638 12.0393 18.3612 12.0374ZM22.6932 14.1518C23.2316 14.1518 23.7212 14.023 24.162 13.7646C24.6029 13.507 24.97 13.1399 25.2276 12.699C25.4915 12.2516 25.6284 11.7408 25.6236 11.2214C25.6236 10.6886 25.4916 10.2014 25.2284 9.7606C24.9684 9.32301 24.6011 8.95899 24.1612 8.703C23.717 8.43866 23.2085 8.30191 22.6916 8.3078C22.1752 8.30353 21.6674 8.44017 21.2228 8.703C20.7812 8.967 20.4292 9.319 20.1652 9.7606C19.907 10.2038 19.7735 10.7085 19.7788 11.2214C19.7788 11.7598 19.9076 12.2526 20.1652 12.699C20.4292 13.1462 20.7812 13.5014 21.2228 13.7646C21.6692 14.023 22.1588 14.1518 22.6924 14.1518H22.6932ZM20.4588 15.939C20.5569 15.9406 20.6543 15.9216 20.7445 15.8832C20.8348 15.8447 20.916 15.7877 20.9828 15.7158C21.0539 15.6484 21.1105 15.5671 21.149 15.477C21.1876 15.3869 21.2072 15.2898 21.2068 15.1918C21.2085 15.0935 21.1894 14.9959 21.1508 14.9055C21.1122 14.8151 21.0549 14.7338 20.9828 14.667C20.916 14.5951 20.8348 14.5381 20.7445 14.4996C20.6543 14.4612 20.5569 14.4421 20.4588 14.4438C20.3619 14.4428 20.2658 14.4623 20.1769 14.5009C20.088 14.5395 20.0083 14.5963 19.9428 14.6678C19.8732 14.7359 19.8183 14.8175 19.7814 14.9076C19.7445 14.9977 19.7265 15.0945 19.7284 15.1918C19.7284 15.3918 19.7996 15.567 19.9428 15.7158C20.0868 15.8646 20.258 15.939 20.4588 15.939ZM18.8348 17.727C18.933 17.7285 19.0303 17.7093 19.1206 17.6707C19.2109 17.6321 19.292 17.575 19.3588 17.503C19.4304 17.4341 19.4871 17.3513 19.5255 17.2597C19.5639 17.1681 19.5831 17.0695 19.582 16.9702C19.5829 16.8734 19.5634 16.7775 19.5248 16.6888C19.4862 16.6 19.4294 16.5203 19.358 16.455C19.2912 16.383 19.2101 16.3259 19.1198 16.2873C19.0295 16.2487 18.9322 16.2295 18.834 16.231C18.7374 16.2312 18.6418 16.2512 18.5532 16.2897C18.4646 16.3282 18.3848 16.3845 18.3188 16.455C18.2474 16.5203 18.1905 16.6 18.1519 16.6888C18.1134 16.7775 18.0939 16.8734 18.0948 16.9702C18.0948 17.1766 18.1668 17.3542 18.31 17.503C18.4588 17.6526 18.6348 17.727 18.8348 17.727ZM16.1956 23.7166C16.7348 23.7166 17.2244 23.5846 17.6652 23.3214C18.1035 23.0666 18.468 22.7021 18.7228 22.2638C18.9856 21.8192 19.1223 21.3114 19.118 20.795C19.118 20.2558 18.986 19.7662 18.7228 19.3254C18.468 18.8871 18.1035 18.5226 17.6652 18.2678C17.221 18.0035 16.7125 17.8667 16.1956 17.8726C15.6572 17.8726 15.1676 18.0046 14.7268 18.2678C14.2885 18.5226 13.924 18.8871 13.6692 19.3254C13.4049 19.7696 13.2681 20.2781 13.274 20.795C13.274 21.3278 13.406 21.8174 13.6692 22.2638C13.9332 22.7118 14.2852 23.0638 14.7268 23.3214C15.1676 23.5854 15.6572 23.7166 16.1956 23.7166ZM13.5404 17.727C13.6386 17.7285 13.736 17.7094 13.8262 17.6708C13.9165 17.6322 13.9977 17.575 14.0644 17.503C14.1339 17.4329 14.1887 17.3497 14.2256 17.2583C14.2626 17.1668 14.2809 17.0689 14.2796 16.9702C14.2796 16.7702 14.2076 16.5982 14.0644 16.455C13.9977 16.383 13.9165 16.3258 13.8262 16.2872C13.736 16.2486 13.6386 16.2295 13.5404 16.231C13.441 16.23 13.3424 16.2493 13.2508 16.2879C13.1592 16.3264 13.0764 16.3833 13.0076 16.455C12.9386 16.5217 12.884 16.6018 12.8471 16.6904C12.8102 16.779 12.7919 16.8742 12.7932 16.9702C12.7932 17.1766 12.8652 17.3542 13.0076 17.503C13.0764 17.5747 13.1592 17.6316 13.2508 17.6701C13.3424 17.7087 13.441 17.728 13.5404 17.727ZM11.9164 15.939C12.1164 15.939 12.2884 15.8646 12.4316 15.7158C12.5027 15.6484 12.5593 15.5671 12.5978 15.477C12.6364 15.3869 12.656 15.2898 12.6556 15.1918C12.6573 15.0935 12.6382 14.9959 12.5996 14.9055C12.561 14.8151 12.5037 14.7338 12.4316 14.667C12.3662 14.5957 12.2865 14.539 12.1977 14.5006C12.109 14.4621 12.0131 14.4428 11.9164 14.4438C11.7164 14.4438 11.5404 14.5182 11.3924 14.6678C11.3204 14.7345 11.2632 14.8157 11.2246 14.9059C11.186 14.9962 11.1668 15.0936 11.1684 15.1918C11.1684 15.3918 11.2404 15.567 11.3836 15.7158C11.4524 15.7875 11.5352 15.8444 11.6268 15.8829C11.7184 15.9215 11.817 15.94 11.9164 15.939Z" fill="#F8792A"/>
</svg>
