<svg width="current" height="current" viewBox="0 0 56 56" fill="none" xmlns="http://www.w3.org/2000/svg">
<g clip-path="url(#clip0_5262_8532)">
<mask id="mask0_5262_8532" style="mask-type:luminance" maskUnits="userSpaceOnUse" x="0" y="0" width="56" height="56">
<path d="M56 0H0V55.9354H56V0Z" fill="white"/>
</mask>
<g mask="url(#mask0_5262_8532)">
<path d="M54.43 8.23383C55.4437 9.14792 56 10.4021 56 11.7645V48.9887C56 49.0037 55.9994 49.0187 55.9987 49.0338C55.9962 49.0816 55.991 49.1293 55.991 49.1772L55.9955 49.1989C55.9955 51.4452 54.1664 53.3924 51.8687 53.6632C51.7043 53.6891 51.5398 53.7087 51.3709 53.7195L13.4819 55.9246C13.3625 55.9311 13.2454 55.9354 13.1282 55.9354C13.1148 55.9354 13.1018 55.9343 13.0888 55.9332C13.0759 55.9322 13.0629 55.9311 13.0494 55.9311C13.0224 55.9311 12.9959 55.9322 12.9694 55.9332C12.9429 55.9343 12.9165 55.9354 12.8895 55.9354C11.5401 55.9354 10.2764 55.4588 9.30104 54.5774C8.2446 53.622 7.65666 52.3115 7.65666 50.8906V49.1208C7.65666 48.7613 7.58453 48.5685 7.1498 48.5685C7.1498 48.5685 5.95818 48.5902 5.83425 48.5902C4.32952 48.5902 2.92164 48.0574 1.83363 47.0739C0.655514 46.0081 0.00675786 44.5482 0.00675786 42.9649L0 8.34642C0 5.12981 2.71665 2.35072 6.055 2.15145L42.0226 0.0113515C43.6647 -0.0861226 45.2212 0.446734 46.3994 1.51028C47.5774 2.57384 48.2262 4.03161 48.2262 5.61718V6.71106C48.2262 6.71106 48.2036 7.07711 48.697 7.06198L50.668 6.94718C52.0804 6.86054 53.4163 7.31974 54.43 8.23383Z" fill="white"/>
<path d="M6.07752 46.3099C5.06608 46.2991 4.1673 46.0501 3.46899 45.4241C3.46899 45.4241 3.46673 45.4241 3.46447 45.4197C3.38338 45.3439 3.30679 45.266 3.23471 45.188C2.68282 44.5814 2.38322 43.8038 2.38322 42.9633L2.37646 8.34498C2.37646 6.34137 4.13351 4.5435 6.21265 4.42002L42.1757 2.27994C42.2545 2.27561 42.331 2.27344 42.4099 2.27344C43.3087 2.27344 44.1467 2.58536 44.7865 3.16587C44.8743 3.24601 44.9576 3.32832 45.0343 3.41497C45.1679 3.56171 45.2867 3.71836 45.3904 3.88378C45.2868 3.71952 45.1675 3.5634 45.0343 3.41713C45.5726 4.0193 45.8678 4.7861 45.8678 5.61789V6.50382C45.8678 6.50382 45.8902 7.22945 45.1423 7.27711L45.1468 7.28141L12.0695 9.27421C9.64343 9.41938 7.67235 11.4403 7.67235 13.7775C7.67235 13.7775 7.65885 45.7296 7.65661 45.7814C7.6318 46.3099 7.17904 46.3099 6.80513 46.3099H6.07752Z" fill="black"/>
<path d="M53.6327 49.1449C53.6371 49.0929 53.6416 49.0409 53.6416 48.9889L53.6327 11.5785C53.619 11.3813 53.5852 11.1886 53.5289 11.0044C53.3983 10.5734 53.155 10.1856 52.8103 9.8759C52.317 9.43183 51.6728 9.19141 50.9812 9.19141C50.9204 9.19141 50.8595 9.19356 50.7988 9.19792L12.4142 11.5113C12.4007 11.5122 12.3872 11.5143 12.3737 11.5165C12.3557 11.5193 12.3376 11.5221 12.3196 11.5221C11.0987 11.6435 10.076 12.6701 9.99264 13.8464C9.98816 13.8984 9.98816 13.9481 9.98816 14.0001V50.6547C9.98816 50.6722 9.98933 50.6893 9.99045 50.706C9.99157 50.7224 9.99264 50.7383 9.99264 50.7543C10.0174 51.5753 10.3576 52.3246 10.9635 52.8727C11.5042 53.3622 12.198 53.6395 12.9481 53.6763H13.0675L51.4318 51.4431C51.4431 51.4431 51.4543 51.4414 51.4655 51.4398C51.4738 51.4387 51.4821 51.4375 51.4904 51.4369C51.4933 51.4367 51.4963 51.4366 51.4993 51.4366C52.6324 51.2352 53.5536 50.2561 53.6327 49.1449ZM16.0072 49.6258C14.6939 49.7145 13.5315 49.2857 13.5676 47.6308V21.8716C13.5676 20.9879 14.3244 20.4225 15.1601 20.3813L48.553 18.4557C49.3864 18.4146 50.0689 18.9951 50.0689 19.7987V45.6034C50.0689 46.5478 49.8234 47.7629 48.1339 47.8257H48.1294L48.1271 47.8278L16.0072 49.6258Z" fill="black"/>
<path d="M23.7268 28.3622C22.1766 28.4543 21.6497 29.5918 21.6518 31.3401V31.6474C21.4669 31.6893 21.3122 31.729 21.1249 31.7395C20.008 31.8064 19.2024 30.9344 19.2002 29.3702C19.198 26.9779 21.4276 24.7256 25.6754 24.4725C29.4574 24.2467 31.8785 26.0033 31.8829 29.1025C31.885 31.4341 29.8711 33.0883 27.8875 33.6069C31.6086 33.7826 33.1609 35.7776 33.1653 38.3226C33.1696 42.6786 29.8558 45.1483 24.7392 45.4558L24.6151 45.464C20.7699 45.6942 18.0703 44.2909 18.0681 41.8672C18.0681 40.4871 19.1196 39.318 20.7004 39.224C20.8245 39.2156 20.9486 39.2407 21.0727 39.2323C21.3862 41.6999 23.1237 42.6075 24.8589 42.5051C26.5334 42.4047 27.7111 41.3214 27.709 39.7864V39.7258C27.7068 37.3314 25.6276 37.2122 22.4966 37.0931L21.998 34.2385C24.9113 33.7262 26.3678 32.8102 26.3656 31.154C26.3656 29.3744 25.338 28.2701 23.7268 28.3663V28.3622Z" fill="black"/>
<path d="M37.7096 27.1877C34.6091 28.0492 33.9255 26.7401 34.2651 25.3684C36.1245 24.95 40.9602 23.5553 42.7892 22.9258L42.8109 41.3054L46.1923 41.778C46.1923 42.9742 45.4825 43.7228 44.2109 43.8001C43.1571 43.8628 40.7076 43.9487 39.5297 44.0198C37.7009 44.1286 34.3522 44.392 34.3522 44.392C34.2586 44.1516 34.2281 43.9089 34.2281 43.6935C34.2281 43.1101 34.4741 42.5121 35.2797 42.2505L37.7292 41.4894L37.7118 27.1898L37.7096 27.1877Z" fill="black"/>
</g>
</g>
<defs>
<clipPath id="clip0_5262_8532">
<rect width="56" height="56" fill="white"/>
</clipPath>
</defs>
</svg>
