<svg width="32" height="32" viewBox="0 0 32 32" fill="none" xmlns="http://www.w3.org/2000/svg">
<path d="M0 5C0 2.23858 2.23858 0 5 0H27C29.7614 0 32 2.23858 32 5V27C32 29.7614 29.7614 32 27 32H5C2.23858 32 0 29.7614 0 27V5Z" fill="#FFF6D6"/>
<g clip-path="url(#clip0_3924_34489)">
<path fill-rule="evenodd" clip-rule="evenodd" d="M25.675 9.73711L23.1625 12.2871L23.15 12.2621C21.9125 13.5246 20.9875 13.8121 19.1875 13.6246L17.9 14.9246C18.35 15.7496 18.2375 16.8121 17.55 17.5121C16.7125 18.3746 15.325 18.3746 14.4625 17.5371C13.6 16.6996 13.5875 15.3121 14.4375 14.4496C15.125 13.7496 16.175 13.6246 17.0125 14.0621L18.3 12.7621C18.0875 10.9621 18.35 10.0371 19.5875 8.77461L22.1 6.22461L22.8 9.09961L25.675 9.73711ZM19.7376 14.9496H20.0751V14.9746C20.5376 14.9746 20.9501 14.9246 21.3376 14.8371C21.4251 15.2246 21.4751 15.6121 21.4751 16.0246C21.4751 19.0496 19.0251 21.4996 16.0001 21.4996C12.9751 21.4996 10.5251 19.0496 10.5251 16.0246C10.5251 12.9996 12.9751 10.5496 16.0001 10.5496C16.3751 10.5496 16.7501 10.5871 17.1001 10.6621C17.0001 11.1496 16.9626 11.6746 17.0001 12.2621C16.6751 12.1746 16.3501 12.1121 16.0001 12.1121C13.8501 12.1121 12.1001 13.8621 12.1001 16.0121C12.1001 18.1621 13.8501 19.9121 16.0001 19.9121C18.1501 19.9121 19.9001 18.1621 19.9001 16.0121C19.9001 15.6371 19.8376 15.2871 19.7376 14.9496ZM23.2 13.9121C23.4875 13.6996 23.7625 13.4496 24.05 13.1621L24.7 12.4996C25.125 13.5871 25.375 14.7621 25.375 15.9996C25.375 21.1746 21.175 25.3746 16 25.3746C10.825 25.3746 6.625 21.1746 6.625 15.9996C6.625 10.8246 10.825 6.6246 16 6.6246C17.175 6.6246 18.3 6.8496 19.3375 7.2496L18.7 7.8996C18.4125 8.1871 18.175 8.4746 17.9625 8.7621C17.3375 8.5996 16.675 8.4996 16 8.4996C11.8625 8.4996 8.5 11.8621 8.5 15.9996C8.5 20.1371 11.8625 23.4996 16 23.4996C20.1375 23.4996 23.5 20.1371 23.5 15.9996C23.5 15.2746 23.3875 14.5746 23.2 13.9121Z" fill="#FAA700"/>
</g>
<defs>
<clipPath id="clip0_3924_34489">
<rect width="20" height="20" fill="white" transform="translate(6 6)"/>
</clipPath>
</defs>
</svg>
