<svg viewBox="0 0 32 32" fill="none" xmlns="http://www.w3.org/2000/svg">
<path d="M0 5C0 2.23858 2.23858 0 5 0H27C29.7614 0 32 2.23858 32 5V27C32 29.7614 29.7614 32 27 32H5C2.23858 32 0 29.7614 0 27V5Z" fill="#E2ECF3"/>
<path d="M6.2998 20.3167C6.2998 20.5506 6.38139 20.7463 6.54455 20.9041C6.71315 21.0563 6.92254 21.1325 7.17272 21.1325H9.08988C9.79147 21.1325 10.3761 21.0156 10.8439 20.7817C11.317 20.5478 11.7957 20.1481 12.2797 19.5825L17.2969 13.627C17.5362 13.3442 17.7647 13.1212 17.9822 12.9581C18.2052 12.7895 18.439 12.6698 18.6838 12.5991C18.934 12.523 19.2168 12.4849 19.5323 12.4849H21.1639V14.2797C21.1639 14.4755 21.2182 14.6305 21.3271 14.7447C21.4358 14.8535 21.5908 14.9079 21.7921 14.9079C21.8845 14.9079 21.9715 14.8916 22.0531 14.8589C22.1347 14.8263 22.2081 14.7828 22.2734 14.7284L25.4795 12.0607C25.6264 11.9302 25.6998 11.7779 25.6998 11.6038C25.6998 11.4298 25.6264 11.2775 25.4795 11.147L22.2734 8.47113C22.2081 8.41674 22.1347 8.37595 22.0531 8.34875C21.9715 8.31612 21.8845 8.2998 21.7921 8.2998C21.5908 8.2998 21.4358 8.35419 21.3271 8.46297C21.2182 8.57174 21.1639 8.72403 21.1639 8.91982V10.8533H19.5404C18.8171 10.8533 18.2025 10.9729 17.6967 11.2122C17.1909 11.4461 16.6769 11.8731 16.1548 12.4931L11.2273 18.3506C10.8792 18.7693 10.5393 19.0658 10.2075 19.2398C9.87578 19.4139 9.48418 19.5009 9.03277 19.5009H7.17272C6.92254 19.5009 6.71315 19.5798 6.54455 19.7375C6.38139 19.8898 6.2998 20.0828 6.2998 20.3167ZM6.2998 11.6691C6.2998 11.9084 6.38139 12.1042 6.54455 12.2565C6.71315 12.4088 6.92254 12.4849 7.17272 12.4849H8.98382C9.43524 12.4849 9.83499 12.5719 10.1831 12.746C10.5311 12.92 10.8792 13.2164 11.2273 13.6352L16.2038 19.5498C16.6987 20.1372 17.2018 20.5478 17.713 20.7817C18.2243 21.0156 18.8307 21.1325 19.5323 21.1325H21.1639V23.0986C21.1639 23.2944 21.2182 23.4467 21.3271 23.5554C21.4358 23.6643 21.5908 23.7187 21.7921 23.7187C21.8845 23.7187 21.9715 23.7023 22.0531 23.6697C22.1347 23.6425 22.2081 23.6017 22.2734 23.5473L25.4795 20.8796C25.6264 20.7491 25.6998 20.5968 25.6998 20.4227C25.6998 20.2487 25.6264 20.0964 25.4795 19.9659L22.2734 17.29C22.2081 17.2356 22.1347 17.1921 22.0531 17.1595C21.9715 17.1269 21.8845 17.1106 21.7921 17.1106C21.5908 17.1106 21.4358 17.1677 21.3271 17.2819C21.2182 17.3906 21.1639 17.5429 21.1639 17.7387V19.5009H19.5731C19.0944 19.5009 18.6811 19.4139 18.333 19.2398C17.9904 19.0658 17.6423 18.7693 17.2888 18.3506L12.2797 12.4033C11.7957 11.8323 11.3089 11.4325 10.8194 11.2041C10.3353 10.9702 9.74253 10.8533 9.04093 10.8533H7.17272C6.92254 10.8533 6.71315 10.9294 6.54455 11.0817C6.38139 11.234 6.2998 11.4298 6.2998 11.6691Z" fill="#0A85D1"/>
</svg>
