<svg viewBox="0 0 32 32" fill="none" xmlns="http://www.w3.org/2000/svg">
<path d="M0 5C0 2.23858 2.23858 0 5 0H27C29.7614 0 32 2.23858 32 5V27C32 29.7614 29.7614 32 27 32H5C2.23858 32 0 29.7614 0 27V5Z" fill="#FCE9E8"/>
<path d="M21.5533 7.66699H10.4446C8.91002 7.66699 7.6665 8.91051 7.6665 10.4451V21.5556C7.6665 23.0902 8.91002 24.3337 10.4446 24.3337H21.5551C23.0896 24.3337 24.3332 23.0902 24.3332 21.5556V10.4451C24.3332 8.91051 23.0896 7.66699 21.5551 7.66699H21.5533ZM21.1158 22.6103H10.8838C10.0565 22.6103 9.38626 21.9401 9.38626 21.1128V12.2372H22.6134V21.1146C22.6134 21.9418 21.9431 22.6121 21.1158 22.6121V22.6103Z" fill="#EA4E43"/>
<path d="M13.9706 16.1367C13.9706 15.5093 13.6136 15.0982 13.051 15.0982C12.5101 15.0982 12.3262 15.4877 12.3262 16.1043V16.2125C12.2613 16.2233 12.2072 16.2342 12.1423 16.2342C11.7528 16.2342 11.4715 15.9096 11.4715 15.3578C11.4715 14.514 12.2505 13.7676 13.7326 13.7676C15.0524 13.7676 15.8962 14.4383 15.8962 15.531C15.8962 16.3532 15.193 16.8941 14.5007 17.0347C15.7989 17.1753 16.3397 17.911 16.3397 18.8089C16.3397 20.3451 15.1822 21.1457 13.3972 21.1457H13.3539C12.0125 21.1457 11.0713 20.5939 11.0713 19.7392C11.0713 19.2524 11.4391 18.863 11.9908 18.863C12.0341 18.863 12.0774 18.8738 12.1207 18.8738C12.2288 19.7501 12.8347 20.1071 13.4405 20.1071C14.0247 20.1071 14.4357 19.7501 14.4357 19.2092V19.1876C14.4357 18.3437 13.7109 18.2572 12.6183 18.149L12.4452 17.1321C13.4621 17.0131 13.9706 16.721 13.9706 16.1367Z" fill="#EA4E43"/>
<path d="M18.0958 20.0209V14.9796C17.014 15.2176 16.776 14.7416 16.895 14.2655C17.5442 14.1574 19.2317 13.7679 19.8701 13.584V20.0642L21.0492 20.3022C21.0492 20.7241 20.8004 20.9729 20.3569 20.9729C19.9891 20.9729 19.1344 20.9512 18.7233 20.9512C18.0851 20.9512 16.9167 20.9729 16.9167 20.9729C16.8842 20.8863 16.8734 20.7998 16.8734 20.7241C16.8734 20.5185 16.9599 20.313 17.2412 20.2372L18.0958 20.0209Z" fill="#EA4E43"/>
<path d="M13.3553 16.1446C13.3553 15.5171 12.9983 15.106 12.4358 15.106C11.8949 15.106 11.711 15.4955 11.711 16.1121V16.2203C11.6461 16.2311 11.592 16.2419 11.5271 16.2419C11.1376 16.2419 10.8563 15.9174 10.8563 15.3656C10.8563 14.5218 11.6353 13.7754 13.1173 13.7754C14.4372 13.7754 15.281 14.4461 15.281 15.5387C15.281 16.361 14.5778 16.9018 13.8854 17.0425C15.1836 17.1831 15.7246 17.9187 15.7246 18.8167C15.7246 20.3529 14.567 21.1534 12.782 21.1534H12.7387C11.3973 21.1534 10.4561 20.6017 10.4561 19.7471C10.4561 19.2602 10.8239 18.8708 11.3756 18.8708C11.4189 18.8708 11.4621 18.8816 11.5054 18.8816C11.6136 19.7579 12.2194 20.1149 12.8253 20.1149C13.4094 20.1149 13.8206 19.7579 13.8206 19.217V19.1953C13.8206 18.3515 13.0957 18.265 12.0031 18.1568L11.83 17.1399C12.8469 17.0208 13.3553 16.7287 13.3553 16.1446Z" fill="#EA4E43"/>
<path d="M19.0101 13.7168C20.6901 13.7168 21.6451 14.7543 21.6451 17.2552C21.6451 19.6906 20.6194 21.1648 18.7713 21.1648C17.0912 21.1648 16.1362 20.1274 16.1362 17.6265C16.1362 15.1911 17.162 13.7168 19.0101 13.7168ZM18.789 14.787C17.9931 14.787 17.7191 15.8136 17.7191 17.1569C17.7191 18.7295 18.1611 20.0837 18.9924 20.0837C19.7881 20.0837 20.0623 19.0681 20.0623 17.7248C20.0623 16.1522 19.6201 14.787 18.789 14.787Z" fill="#EA4E43"/>
<path d="M13.3988 16.1407C13.3988 15.5132 13.0418 15.1022 12.4793 15.1022C11.9059 15.1022 11.7328 15.5349 11.7544 16.2164C11.2676 16.3246 10.8998 16.0001 10.8998 15.3618C10.8998 14.5179 11.6571 13.7715 13.2149 13.7715C14.5347 13.7715 15.4435 14.5829 15.4435 15.6214C15.4435 16.7032 14.8593 17.4605 13.3556 18.8237L12.5442 19.5592C14.0479 19.5917 15.0432 19.516 15.5084 19.2347C15.7031 19.4187 15.8113 19.6782 15.8113 20.0028C15.8113 20.6627 15.0648 21.0414 14.3183 21.0414C13.5936 21.0414 10.6618 20.9548 10.6618 20.9548L10.4995 20.3382L11.9275 18.6613C12.9012 17.5147 13.3988 16.898 13.3988 16.1407Z" fill="#EA4E43"/>
<path d="M18.5793 20.0077C19.2923 19.9703 19.6381 19.3348 19.701 18.2589C17.8568 19.0381 16.2103 18.2144 16.1215 16.5183C16.0348 14.8653 17.0273 13.7517 18.637 13.6673C20.4087 13.5745 21.4007 14.725 21.5043 16.7019C21.6368 19.23 20.6652 20.9492 18.537 21.0608C17.1757 21.1321 16.3258 20.6241 16.2805 19.7598C16.2527 19.2305 16.664 18.8081 17.2831 18.8407C17.437 19.7101 18.0067 20.0377 18.5793 20.0077ZM17.779 15.6948C17.8345 16.7534 18.5645 17.6577 19.7147 17.4891C19.7119 17.4351 19.708 17.3594 19.7045 17.2946C19.6219 15.7173 19.07 14.6954 18.4326 14.7288C18.0329 14.7498 17.7462 15.0681 17.779 15.6948Z" fill="#EA4E43"/>
<path d="M13.2734 16.1367C13.2734 15.5093 12.9164 15.0982 12.3538 15.0982C11.7804 15.0982 11.6073 15.531 11.629 16.2125C11.1421 16.3207 10.7743 15.9962 10.7743 15.3578C10.7743 14.5141 11.5316 13.7676 13.0894 13.7676C14.4092 13.7676 15.318 14.579 15.318 15.6175C15.318 16.6993 14.7338 17.4566 13.2301 18.8197L12.4187 19.5553C13.9224 19.5878 14.9177 19.5121 15.3829 19.2308C15.5776 19.4147 15.6858 19.6743 15.6858 19.9989C15.6858 20.6588 14.9394 21.0375 14.1929 21.0375C13.4681 21.0375 10.5363 20.9509 10.5363 20.9509L10.374 20.3342L11.8021 18.6574C12.7757 17.5107 13.2734 16.8941 13.2734 16.1367Z" fill="#EA4E43"/>
<path d="M21.5043 18.9603C21.5043 20.2477 20.3576 21.1457 18.7349 21.1457C16.8525 21.1457 16.0195 20.2693 16.0195 19.2957C16.0195 18.4735 16.5388 17.8244 17.3285 17.4999C16.6037 16.9049 16.3765 16.4289 16.3765 15.8014C16.3765 14.7412 17.1879 13.7676 18.8755 13.7676C20.3252 13.7676 21.1149 14.5032 21.1149 15.4227C21.1149 16.245 20.6281 16.721 20.0764 17.0563C21.1582 17.7271 21.5043 18.2463 21.5043 18.9603ZM19.7194 15.7041C19.7194 15.1199 19.3191 14.7521 18.7133 14.7521C18.1724 14.7521 17.9668 15.0333 17.9668 15.3578C17.9668 15.65 18.0749 15.8663 18.5943 16.1801L19.3948 16.6669C19.6328 16.3423 19.7194 16.0719 19.7194 15.7041ZM19.6653 19.5012C19.6653 19.1876 19.4597 18.9603 18.7674 18.5277L18.0317 18.0624C17.7071 18.3978 17.5881 18.7115 17.5881 19.101C17.5881 19.7826 18.0749 20.1071 18.8431 20.1071C19.3515 20.1071 19.6653 19.8799 19.6653 19.5012Z" fill="#EA4E43"/>
<path d="M13.6844 16.1367C13.6844 15.5093 13.3274 15.0982 12.7649 15.0982C12.1915 15.0982 12.0184 15.531 12.0401 16.2125C11.5532 16.3207 11.1854 15.9962 11.1854 15.3578C11.1854 14.5141 11.9427 13.7676 13.5005 13.7676C14.8204 13.7676 15.7291 14.579 15.7291 15.6175C15.7291 16.6993 15.1449 17.4566 13.6412 18.8197L12.8298 19.5553C14.3335 19.5878 15.3288 19.5121 15.794 19.2308C15.9887 19.4147 16.0969 19.6743 16.0969 19.9989C16.0969 20.6588 15.3504 21.0375 14.604 21.0375C13.8792 21.0375 10.9474 20.9509 10.9474 20.9509L10.7852 20.3342L12.2132 18.6574C13.1868 17.5107 13.6844 16.8941 13.6844 16.1367Z" fill="#EA4E43"/>
<path d="M21.342 13.9195C20.5197 15.4233 19.0917 18.7986 18.4751 21.1462H18.3886C17.5556 21.1462 16.9497 20.6702 16.9497 19.8696C16.9497 19.4585 17.0904 18.9717 17.3933 18.4199C17.6205 18.0088 17.9342 17.5761 18.2371 17.1542L19.4487 15.4558C19.0161 15.5207 18.2804 15.6072 17.5556 15.6072C16.7334 15.6072 16.1816 15.1745 16.1816 14.4605C16.1816 14.2765 16.2249 14.0602 16.3115 13.833C16.8848 13.9195 18.1614 13.952 19.3081 13.952C20.1086 13.952 20.9416 13.9412 21.342 13.9195Z" fill="#EA4E43"/>
<path d="M18.9115 14.8063C18.1001 14.8063 17.8189 15.5852 17.7756 16.97C19.6796 16.2559 21.3564 16.8402 21.3564 18.5386C21.3564 20.0964 20.3071 21.1458 18.7276 21.1458C16.6614 21.1458 15.9365 19.6745 15.9365 17.8895C15.9365 15.477 16.9751 13.7677 18.9006 13.7677C20.2638 13.7569 21.086 14.3087 21.086 15.1741C21.086 15.7042 20.6532 16.1045 20.0366 16.0396C19.9284 15.239 19.4849 14.8063 18.9115 14.8063ZM19.6688 19.1661C19.6688 18.1059 18.9223 17.5757 17.7647 17.7164C17.8189 19.231 18.2949 20.0964 18.9006 20.0964C19.301 20.0964 19.6688 19.7935 19.6688 19.1661Z" fill="#EA4E43"/>
<path d="M13.3636 16.1367C13.3636 15.5093 13.0067 15.0982 12.4441 15.0982C11.8707 15.0982 11.6976 15.531 11.7193 16.2125C11.2325 16.3207 10.8646 15.9962 10.8646 15.3578C10.8646 14.5141 11.6219 13.7676 13.1798 13.7676C14.4996 13.7676 15.4083 14.579 15.4083 15.6175C15.4083 16.6993 14.8241 17.4566 13.3204 18.8197L12.509 19.5553C14.0128 19.5878 15.0081 19.5121 15.4732 19.2308C15.6679 19.4147 15.7761 19.6743 15.7761 19.9989C15.7761 20.6588 15.0297 21.0375 14.2832 21.0375C13.5584 21.0375 10.6266 20.9509 10.6266 20.9509L10.4644 20.3342L11.8924 18.6574C12.866 17.5107 13.3636 16.8941 13.3636 16.1367Z" fill="#EA4E43"/>
<path d="M13.4237 16.1367C13.4237 15.5093 13.0667 15.0982 12.5042 15.0982C11.9308 15.0982 11.7577 15.531 11.7793 16.2125C11.2925 16.3207 10.9247 15.9962 10.9247 15.3578C10.9247 14.5141 11.682 13.7676 13.2398 13.7676C14.5596 13.7676 15.4684 14.579 15.4684 15.6175C15.4684 16.6993 14.8842 17.4566 13.3804 18.8197L12.569 19.5553C14.0728 19.5878 15.0681 19.5121 15.5332 19.2308C15.728 19.4147 15.8362 19.6743 15.8362 19.9989C15.8362 20.6588 15.0897 21.0375 14.3432 21.0375C13.6184 21.0375 10.6867 20.9509 10.6867 20.9509L10.5244 20.3342L11.9524 18.6574C12.926 17.5107 13.4237 16.8941 13.4237 16.1367Z" fill="#EA4E43"/>
<path d="M21.3405 18.6572C21.3514 20.2908 20.2587 21.1455 18.4196 21.1455C17.0565 21.1563 16.1045 20.6046 16.1045 19.7391C16.1045 19.209 16.5372 18.8087 17.1539 18.8736C17.262 19.7499 17.8462 20.1069 18.452 20.1069C19.0254 20.1069 19.4689 19.7499 19.4689 19.209C19.4689 18.2353 18.5169 17.7701 16.6562 17.9757V13.9189H19.047C19.6204 13.9189 20.1505 13.8864 20.6698 13.7891C20.7671 13.9514 20.832 14.1677 20.832 14.3949C20.832 15.0331 20.3344 15.6174 19.3283 15.6174C18.6576 15.6174 18.0734 15.5416 17.5865 15.4659V16.5802C19.999 16.2124 21.3405 17.0021 21.3405 18.6572Z" fill="#EA4E43"/>
<path d="M13.4198 16.1367C13.4198 15.5093 13.0628 15.0982 12.5003 15.0982C11.9269 15.0982 11.7538 15.531 11.7754 16.2125C11.2886 16.3207 10.9208 15.9962 10.9208 15.3578C10.9208 14.5141 11.678 13.7676 13.2359 13.7676C14.5557 13.7676 15.4645 14.579 15.4645 15.6175C15.4645 16.6993 14.8803 17.4566 13.3765 18.8197L12.5652 19.5553C14.0689 19.5878 15.0642 19.5121 15.5293 19.2308C15.7241 19.4147 15.8323 19.6743 15.8323 19.9989C15.8323 20.6588 15.0858 21.0375 14.3393 21.0375C13.6145 21.0375 10.6828 20.9509 10.6828 20.9509L10.5205 20.3342L11.9485 18.6574C12.9222 17.5107 13.4198 16.8941 13.4198 16.1367Z" fill="#EA4E43"/>
<path d="M21.4662 18.484C21.7691 18.9059 21.6933 19.8795 20.6332 19.8038L20.644 19.9877C20.6981 20.9181 20.2437 21.1453 19.5946 21.1453C19.335 21.1453 19.0321 21.0804 18.7832 20.9505L18.8157 19.7714H16.2626L15.9272 18.841C16.5114 17.3697 17.9719 14.8599 18.8265 13.8213L20.6332 14.1026V18.5921C20.9577 18.5921 21.1957 18.5597 21.4662 18.484ZM18.859 15.2169C18.2856 16.0282 17.3336 17.77 16.9766 18.6463H18.859V15.2169Z" fill="#EA4E43"/>
<path d="M19.0351 16.1367C19.0351 15.5093 18.6781 15.0982 18.1155 15.0982C17.5746 15.0982 17.3907 15.4877 17.3907 16.1043V16.2125C17.3257 16.2233 17.2717 16.2342 17.2067 16.2342C16.8173 16.2342 16.536 15.9096 16.536 15.3578C16.536 14.5141 17.3149 13.7676 18.7971 13.7676C20.1169 13.7676 20.9607 14.4383 20.9607 15.531C20.9607 16.3532 20.2575 16.8941 19.5652 17.0347C20.8633 17.1753 21.4042 17.911 21.4042 18.8089C21.4042 20.3451 20.2467 21.1457 18.4617 21.1457H18.4184C17.0769 21.1457 16.1357 20.5939 16.1357 19.7392C16.1357 19.2524 16.5036 18.863 17.0553 18.863C17.0986 18.863 17.1418 18.8738 17.1852 18.8738C17.2933 19.7501 17.8992 20.1071 18.505 20.1071C19.0892 20.1071 19.5002 19.7501 19.5002 19.2092V19.1876C19.5002 18.3437 18.7754 18.2572 17.6827 18.149L17.5097 17.1321C18.5266 17.0131 19.0351 16.721 19.0351 16.1367Z" fill="#EA4E43"/>
<path d="M13.455 16.1367C13.455 15.5093 13.098 15.0982 12.5354 15.0982C11.962 15.0982 11.789 15.531 11.8106 16.2125C11.3237 16.3207 10.956 15.9962 10.956 15.3578C10.956 14.5141 11.7132 13.7676 13.271 13.7676C14.5909 13.7676 15.4996 14.579 15.4996 15.6175C15.4996 16.6993 14.9154 17.4566 13.4117 18.8197L12.6003 19.5553C14.104 19.5878 15.0993 19.5121 15.5645 19.2308C15.7592 19.4147 15.8674 19.6743 15.8674 19.9989C15.8674 20.6588 15.121 21.0375 14.3745 21.0375C13.6497 21.0375 10.7179 20.9509 10.7179 20.9509L10.5557 20.3342L11.9837 18.6574C12.9573 17.5107 13.455 16.8941 13.455 16.1367Z" fill="#EA4E43"/>
<path d="M19.0483 16.1367C19.0483 15.5093 18.6912 15.0982 18.1287 15.0982C17.5553 15.0982 17.3822 15.531 17.4038 16.2125C16.917 16.3207 16.5492 15.9962 16.5492 15.3578C16.5492 14.5141 17.3065 13.7676 18.8643 13.7676C20.1842 13.7676 21.0928 14.579 21.0928 15.6175C21.0928 16.6993 20.5087 17.4566 19.0049 18.8197L18.1936 19.5553C19.6973 19.5878 20.6926 19.5121 21.1578 19.2308C21.3525 19.4147 21.4607 19.6743 21.4607 19.9989C21.4607 20.6588 20.7143 21.0375 19.9678 21.0375C19.2429 21.0375 16.3112 20.9509 16.3112 20.9509L16.1489 20.3342L17.5769 18.6574C18.5506 17.5107 19.0483 16.8941 19.0483 16.1367Z" fill="#EA4E43"/>
<path d="M13.5541 16.1367C13.5541 15.5093 13.1971 15.0982 12.6345 15.0982C12.0612 15.0982 11.888 15.531 11.9097 16.2125C11.4229 16.3207 11.0551 15.9962 11.0551 15.3578C11.0551 14.5141 11.8123 13.7676 13.3702 13.7676C14.69 13.7676 15.5987 14.579 15.5987 15.6175C15.5987 16.6993 15.0145 17.4566 13.5108 18.8197L12.6994 19.5553C14.2032 19.5878 15.1985 19.5121 15.6636 19.2308C15.8584 19.4147 15.9665 19.6743 15.9665 19.9989C15.9665 20.6588 15.2201 21.0375 14.4736 21.0375C13.7488 21.0375 10.817 20.9509 10.817 20.9509L10.6548 20.3342L12.0828 18.6574C13.0564 17.5107 13.5541 16.8941 13.5541 16.1367Z" fill="#EA4E43"/>
<path d="M13.9364 16.1367C13.9364 15.5093 13.5794 15.0982 13.0169 15.0982C12.4435 15.0982 12.2704 15.531 12.2921 16.2125C11.8052 16.3207 11.4374 15.9962 11.4374 15.3578C11.4374 14.514 12.1947 13.7676 13.7525 13.7676C15.0724 13.7676 15.9811 14.579 15.9811 15.6175C15.9811 16.6993 15.3969 17.4566 13.8932 18.8197L13.0818 19.5553C14.5855 19.5878 15.5808 19.5121 16.046 19.2308C16.2407 19.4147 16.3489 19.6743 16.3489 19.9989C16.3489 20.6588 15.6024 21.0375 14.856 21.0375C14.1312 21.0375 11.1994 20.9509 11.1994 20.9509L11.0371 20.3342L12.4652 18.6574C13.4388 17.5107 13.9364 16.8941 13.9364 16.1367Z" fill="#EA4E43"/>
<path d="M18.1095 20.0209V14.9796C17.0277 15.2176 16.7897 14.7416 16.9087 14.2655C17.5578 14.1574 19.2454 13.7679 19.8838 13.584V20.0642L21.0629 20.3022C21.0629 20.7241 20.8141 20.9729 20.3706 20.9729C20.0028 20.9729 19.1481 20.9512 18.737 20.9512C18.0987 20.9512 16.9303 20.9729 16.9303 20.9729C16.8978 20.8863 16.8871 20.7998 16.8871 20.7241C16.8871 20.5185 16.9736 20.313 17.2549 20.2372L18.1095 20.0209Z" fill="#EA4E43"/>
<path d="M13.4379 16.1407C13.4379 15.5132 13.0809 15.1022 12.5183 15.1022C11.9449 15.1022 11.7719 15.5349 11.7935 16.2164C11.3067 16.3246 10.9389 16.0001 10.9389 15.3618C10.9389 14.5179 11.6961 13.7715 13.2539 13.7715C14.5738 13.7715 15.4825 14.5829 15.4825 15.6214C15.4825 16.7032 14.8983 17.4605 13.3946 18.8237L12.5832 19.5592C14.0869 19.5917 15.0822 19.516 15.5474 19.2347C15.7422 19.4187 15.8503 19.6782 15.8503 20.0028C15.8503 20.6627 15.1039 21.0414 14.3574 21.0414C13.6326 21.0414 10.7008 20.9548 10.7008 20.9548L10.5386 20.3382L11.9666 18.6613C12.9402 17.5147 13.4379 16.898 13.4379 16.1407Z" fill="#EA4E43"/>
<path d="M18.9236 13.6924C20.6037 13.6924 21.5587 14.7299 21.5587 17.2308C21.5587 19.6662 20.533 21.1404 18.6849 21.1404C17.0048 21.1404 16.0498 20.103 16.0498 17.6021C16.0498 15.1667 17.0756 13.6924 18.9236 13.6924ZM18.7026 14.7626C17.9067 14.7626 17.6326 15.7892 17.6326 17.1325C17.6326 18.7051 18.0747 20.0593 18.906 20.0593C19.7018 20.0593 19.9759 19.0437 19.9759 17.7003C19.9759 16.1278 19.5338 14.7626 18.7026 14.7626Z" fill="#EA4E43"/>
<path d="M12.3668 20.0209V14.9796C11.285 15.2176 11.047 14.7416 11.166 14.2655C11.8151 14.1574 13.5027 13.7679 14.141 13.584V20.0642L15.3202 20.3022C15.3202 20.7241 15.0714 20.9729 14.6278 20.9729C14.26 20.9729 13.4054 20.9512 12.9943 20.9512C12.356 20.9512 11.1876 20.9729 11.1876 20.9729C11.1552 20.8863 11.1444 20.7998 11.1444 20.7241C11.1444 20.5185 11.2309 20.313 11.5122 20.2372L12.3668 20.0209Z" fill="#EA4E43"/>
<path d="M18.2233 19.9897C18.9449 19.9519 19.2949 19.3086 19.3585 18.2198C17.4921 19.0083 15.8257 18.1747 15.7358 16.4581C15.6481 14.7852 16.6525 13.658 18.2817 13.5727C20.0749 13.4787 21.0789 14.6431 21.1837 16.644C21.3178 19.2026 20.3345 20.9426 18.1804 21.0555C16.8028 21.1277 15.9426 20.6136 15.8967 19.7388C15.8687 19.2031 16.2848 18.7756 16.9115 18.8086C17.0673 19.6885 17.6438 20.0201 18.2233 19.9897ZM17.4134 15.6246C17.4696 16.6962 18.2083 17.6113 19.3725 17.4407C19.3696 17.386 19.3656 17.3094 19.3622 17.2438C19.2785 15.6474 18.7199 14.6132 18.0749 14.647C17.6703 14.6683 17.3802 14.9904 17.4134 15.6246Z" fill="#EA4E43"/>
<path d="M12.1974 20.0209V14.9796C11.1156 15.2176 10.8776 14.7416 10.9966 14.2655C11.6456 14.1574 13.3333 13.7679 13.9716 13.584V20.0642L15.1508 20.3022C15.1508 20.7241 14.902 20.9729 14.4584 20.9729C14.0906 20.9729 13.2359 20.9512 12.8249 20.9512C12.1866 20.9512 11.0182 20.9729 11.0182 20.9729C10.9857 20.8863 10.9749 20.7998 10.9749 20.7241C10.9749 20.5185 11.0615 20.313 11.3428 20.2372L12.1974 20.0209ZM12.1974 20.0209V14.9796C11.1156 15.2176 10.8776 14.7416 10.9966 14.2655C11.6456 14.1574 13.3333 13.7679 13.9716 13.584V20.0642L15.1508 20.3022C15.1508 20.7241 14.902 20.9729 14.4584 20.9729C14.0906 20.9729 13.2359 20.9512 12.8249 20.9512C12.1866 20.9512 11.0182 20.9729 11.0182 20.9729M12.1974 20.0209V14.9796C11.1156 15.2176 10.8776 14.7416 10.9966 14.2655C11.6456 14.1574 13.3333 13.7679 13.9716 13.584V20.0642L15.1508 20.3022M12.1974 20.0209V14.9796C11.1156 15.2176 10.8776 14.7416 10.9966 14.2655C11.6456 14.1574 13.3333 13.7679 13.9716 13.584V20.0642L15.1508 20.3022" fill="#EA4E43"/>
<path d="M18.3263 21.1457C19.949 21.1457 21.0957 20.2477 21.0957 18.9603C21.0957 18.2463 20.7495 17.7271 19.6677 17.0563C20.2194 16.721 20.7063 16.245 20.7063 15.4227C20.7063 14.5032 19.9165 13.7676 18.4668 13.7676C16.7792 13.7676 15.9678 14.7412 15.9678 15.8014C15.9678 16.4289 16.195 16.9049 16.9198 17.4999C16.1301 17.8244 15.6108 18.4735 15.6108 19.2957C15.6108 20.2693 16.4438 21.1457 18.3263 21.1457ZM18.3048 14.7519C18.9106 14.7519 19.3108 15.1197 19.3108 15.7039C19.3108 16.0717 19.2243 16.3422 18.9863 16.6667L18.1858 16.1799C17.6665 15.8662 17.5583 15.6498 17.5583 15.3577C17.5583 15.0332 17.7638 14.7519 18.3048 14.7519ZM19.2569 19.5012C19.2569 19.8799 18.9432 20.1071 18.4348 20.1071C17.6667 20.1071 17.1798 19.7826 17.1798 19.101C17.1798 18.7115 17.2988 18.3978 17.6233 18.0624L18.359 18.5277C19.0514 18.9603 19.2569 19.1876 19.2569 19.5012Z" fill="#EA4E43"/>
<path d="M12.8219 20.0209V14.9796C11.7401 15.2176 11.5021 14.7416 11.6211 14.2655C12.2702 14.1574 13.9578 13.7679 14.5961 13.584V20.0642L15.7753 20.3022C15.7753 20.7241 15.5264 20.9729 15.0829 20.9729C14.7151 20.9729 13.8604 20.9512 13.4494 20.9512C12.8111 20.9512 11.6427 20.9729 11.6427 20.9729C11.6102 20.8863 11.5994 20.7998 11.5994 20.7241C11.5994 20.5185 11.686 20.313 11.9672 20.2372L12.8219 20.0209ZM12.8219 20.0209V14.9796C11.7401 15.2176 11.5021 14.7416 11.6211 14.2655C12.2702 14.1574 13.9578 13.7679 14.5961 13.584V20.0642L15.7753 20.3022C15.7753 20.7241 15.5264 20.9729 15.0829 20.9729C14.7151 20.9729 13.8604 20.9512 13.4494 20.9512C12.8111 20.9512 11.6427 20.9729 11.6427 20.9729C11.6102 20.8863 11.5994 20.7998 11.5994 20.7241C11.5994 20.5185 11.686 20.313 11.9672 20.2372L12.8219 20.0209Z" fill="#EA4E43"/>
<path d="M18.1738 21.1462C18.7905 18.7986 20.2185 15.4233 21.0407 13.9195C20.6404 13.9412 19.8074 13.952 19.0068 13.952C17.8601 13.952 16.5835 13.9195 16.0102 13.833C15.9236 14.0602 15.8804 14.2765 15.8804 14.4605C15.8804 15.1745 16.4321 15.6072 17.2542 15.6072C17.9791 15.6072 18.7147 15.5207 19.1475 15.4558L17.9358 17.1542C17.6329 17.5761 17.3192 18.0088 17.092 18.4199C16.7891 18.9717 16.6484 19.4585 16.6484 19.8696C16.6484 20.6702 17.2542 21.1462 18.0872 21.1462H18.1738Z" fill="#EA4E43"/>
<path d="M12.2848 20.0209V14.9796C11.203 15.2176 10.965 14.7416 11.084 14.2655C11.733 14.1574 13.4207 13.7679 14.059 13.584V20.0642L15.2382 20.3022C15.2382 20.7241 14.9894 20.9729 14.5458 20.9729C14.178 20.9729 13.3233 20.9512 12.9123 20.9512C12.274 20.9512 11.1056 20.9729 11.1056 20.9729C11.0732 20.8863 11.0623 20.7998 11.0623 20.7241C11.0623 20.5185 11.1489 20.313 11.4302 20.2372L12.2848 20.0209ZM12.2848 20.0209V14.9796C11.203 15.2176 10.965 14.7416 11.084 14.2655C11.733 14.1574 13.4207 13.7679 14.059 13.584V20.0642L15.2382 20.3022C15.2382 20.7241 14.9894 20.9729 14.5458 20.9729C14.178 20.9729 13.3233 20.9512 12.9123 20.9512C12.274 20.9512 11.1056 20.9729 11.1056 20.9729M12.2848 20.0209V14.9796C11.203 15.2176 10.965 14.7416 11.084 14.2655C11.733 14.1574 13.4207 13.7679 14.059 13.584" fill="#EA4E43"/>
<path d="M18.4931 14.8063C17.6817 14.8063 17.4004 15.5852 17.3572 16.97C19.2612 16.2559 20.938 16.8402 20.938 18.5386C20.938 20.0964 19.8886 21.1458 18.3092 21.1458C16.2429 21.1458 15.5181 19.6745 15.5181 17.8895C15.5181 15.477 16.5566 13.7677 18.4823 13.7677C19.8454 13.7569 20.6675 14.3087 20.6675 15.1741C20.6675 15.7042 20.2349 16.1045 19.6182 16.0396C19.51 15.239 19.0664 14.8063 18.4931 14.8063ZM19.2499 19.1657C19.2499 18.1056 18.5034 17.5754 17.3459 17.7161C17.3999 19.2307 17.8759 20.0961 18.4818 20.0961C18.882 20.0961 19.2499 19.7932 19.2499 19.1657Z" fill="#EA4E43"/>
<path d="M12.3414 20.0209V14.9796C11.2596 15.2176 11.0216 14.7416 11.1406 14.2655C11.7897 14.1574 13.4774 13.7679 14.1156 13.584V20.0642L15.2948 20.3022C15.2948 20.7241 15.046 20.9729 14.6025 20.9729C14.2346 20.9729 13.38 20.9512 12.9689 20.9512C12.3306 20.9512 11.1623 20.9729 11.1623 20.9729C11.1298 20.8863 11.119 20.7998 11.119 20.7241C11.119 20.5185 11.2055 20.313 11.4868 20.2372L12.3414 20.0209Z" fill="#EA4E43"/>
<path d="M20.9226 18.6572C20.9334 20.2908 19.8408 21.1455 18.0017 21.1455C16.6385 21.1563 15.6865 20.6046 15.6865 19.7391C15.6865 19.209 16.1193 18.8087 16.7359 18.8736C16.8441 19.7499 17.4283 20.1069 18.0341 20.1069C18.6075 20.1069 19.051 19.7499 19.051 19.209C19.051 18.2353 18.099 17.7701 16.2383 17.9757V13.9189H18.6291C19.2025 13.9189 19.7326 13.8864 20.2519 13.7891C20.3492 13.9513 20.4141 14.1677 20.4141 14.3949C20.4141 15.0331 19.9165 15.6173 18.9104 15.6173C18.2397 15.6173 17.6554 15.5416 17.1687 15.4659V16.5801C19.5811 16.2123 20.9226 17.0021 20.9226 18.6572Z" fill="#EA4E43"/>
<path d="M12.4278 20.0209V14.9796C11.346 15.2176 11.108 14.7416 11.227 14.2655C11.8761 14.1574 13.5638 13.7679 14.202 13.584V20.0642L15.3813 20.3022C15.3813 20.7241 15.1324 20.9729 14.6889 20.9729C14.321 20.9729 13.4664 20.9512 13.0553 20.9512C12.417 20.9512 11.2487 20.9729 11.2487 20.9729C11.2162 20.8863 11.2054 20.7998 11.2054 20.7241C11.2054 20.5185 11.2919 20.313 11.5732 20.2372L12.4278 20.0209ZM12.4278 20.0209V14.9796C11.346 15.2176 11.108 14.7416 11.227 14.2655C11.8761 14.1574 13.5638 13.7679 14.202 13.584V20.0642L15.3813 20.3022C15.3813 20.7241 15.1324 20.9729 14.6889 20.9729C14.321 20.9729 13.4664 20.9512 13.0553 20.9512C12.417 20.9512 11.2487 20.9729 11.2487 20.9729C11.2162 20.8863 11.2054 20.7998 11.2054 20.7241C11.2054 20.5185 11.2919 20.313 11.5732 20.2372L12.4278 20.0209ZM12.4278 20.0209V14.9796C11.346 15.2176 11.108 14.7416 11.227 14.2655C11.8761 14.1574 13.5638 13.7679 14.202 13.584" fill="#EA4E43"/>
<path d="M21.0351 18.4849C21.338 18.9068 21.2622 19.8805 20.2021 19.8048L20.2128 19.9887C20.267 20.9191 19.8126 21.1463 19.1635 21.1463C18.9038 21.1463 18.6009 21.0813 18.3521 20.9515L18.3846 19.7723H15.8315L15.4961 18.8419C16.0803 17.3707 17.5407 14.8608 18.3954 13.8223L20.2021 14.1036V18.5931C20.5266 18.5931 20.7646 18.5607 21.0351 18.4849ZM18.4282 15.2179C17.8549 16.0293 16.9029 17.771 16.5459 18.6473H18.4282V15.2179Z" fill="#EA4E43"/>
<path d="M12.3439 20.0209V14.9796C11.262 15.2176 11.024 14.7416 11.143 14.2655C11.7921 14.1574 13.4798 13.7679 14.1181 13.584V20.0642L15.2973 20.3022C15.2973 20.7241 15.0484 20.9729 14.6049 20.9729C14.2371 20.9729 13.3824 20.9512 12.9713 20.9512C12.333 20.9512 11.1647 20.9729 11.1647 20.9729C11.1322 20.8863 11.1214 20.7998 11.1214 20.7241C11.1214 20.5185 11.208 20.313 11.4892 20.2372L12.3439 20.0209Z" fill="#EA4E43"/>
<path d="M18.4808 16.1367C18.4808 15.5093 18.1238 15.0982 17.5613 15.0982C17.0204 15.0982 16.8365 15.4877 16.8365 16.1043V16.2125C16.7715 16.2233 16.7175 16.2342 16.6525 16.2342C16.263 16.2342 15.9818 15.9096 15.9818 15.3578C15.9818 14.514 16.7607 13.7676 18.2428 13.7676C19.5626 13.7676 20.4065 14.4383 20.4065 15.531C20.4065 16.3532 19.7033 16.8941 19.011 17.0347C20.3091 17.1753 20.85 17.911 20.85 18.8089C20.85 20.3451 19.6925 21.1457 17.9075 21.1457H17.8642C16.5227 21.1457 15.5815 20.5939 15.5815 19.7392C15.5815 19.2524 15.9494 18.863 16.501 18.863C16.5444 18.863 16.5876 18.8738 16.6309 18.8738C16.739 19.7501 17.3449 20.1071 17.9507 20.1071C18.5349 20.1071 18.946 19.7501 18.946 19.2092V19.1876C18.946 18.3437 18.2212 18.2572 17.1285 18.149L16.9555 17.1321C17.9724 17.0131 18.4808 16.721 18.4808 16.1367Z" fill="#EA4E43"/>
<path d="M12.3897 20.0209V14.9796C11.3079 15.2176 11.0699 14.7416 11.1889 14.2655C11.838 14.1574 13.5257 13.7679 14.1639 13.584V20.0642L15.3432 20.3022C15.3432 20.7241 15.0943 20.9729 14.6508 20.9729C14.2829 20.9729 13.4283 20.9512 13.0172 20.9512C12.3789 20.9512 11.2106 20.9729 11.2106 20.9729C11.1781 20.8863 11.1673 20.7998 11.1673 20.7241C11.1673 20.5185 11.2538 20.313 11.5351 20.2372L12.3897 20.0209Z" fill="#EA4E43"/>
<path d="M18.5478 16.1367C18.5478 15.5093 18.1907 15.0982 17.6282 15.0982C17.0548 15.0982 16.8817 15.531 16.9034 16.2125C16.4166 16.3207 16.0487 15.9962 16.0487 15.3578C16.0487 14.514 16.8061 13.7676 18.3639 13.7676C19.6837 13.7676 20.5924 14.579 20.5924 15.6175C20.5924 16.6993 20.0082 17.4566 18.5045 18.8197L17.6931 19.5553C19.1969 19.5878 20.1921 19.5121 20.6573 19.2308C20.852 19.4147 20.9602 19.6743 20.9602 19.9989C20.9602 20.6588 20.2138 21.0375 19.4673 21.0375C18.7425 21.0375 15.8107 20.9509 15.8107 20.9509L15.6484 20.3342L17.0765 18.6574C18.0501 17.5107 18.5478 16.8941 18.5478 16.1367Z" fill="#EA4E43"/>
<path d="M12.7794 20.0209V14.9796C11.6976 15.2176 11.4596 14.7416 11.5786 14.2655C12.2277 14.1574 13.9153 13.7679 14.5536 13.584V20.0642L15.7328 20.3022C15.7328 20.7241 15.484 20.9729 15.0404 20.9729C14.6726 20.9729 13.818 20.9512 13.4069 20.9512C12.7686 20.9512 11.6002 20.9729 11.6002 20.9729C11.5678 20.8863 11.557 20.7998 11.557 20.7241C11.557 20.5185 11.6435 20.313 11.9248 20.2372L12.7794 20.0209ZM12.7794 20.0209V14.9796C11.6976 15.2176 11.4596 14.7416 11.5786 14.2655C12.2277 14.1574 13.9153 13.7679 14.5536 13.584V20.0642L15.7328 20.3022C15.7328 20.7241 15.484 20.9729 15.0404 20.9729C14.6726 20.9729 13.818 20.9512 13.4069 20.9512C12.7686 20.9512 11.6002 20.9729 11.6002 20.9729C11.5678 20.8863 11.557 20.7998 11.557 20.7241C11.557 20.5185 11.6435 20.313 11.9248 20.2372L12.7794 20.0209Z" fill="#EA4E43"/>
<path d="M17.6124 14.9796V20.0209L16.7578 20.2372C16.4765 20.313 16.39 20.5185 16.39 20.7241C16.39 20.7998 16.4008 20.8863 16.4332 20.9729C16.4332 20.9729 17.6016 20.9512 18.2399 20.9512C18.651 20.9512 19.5056 20.9729 19.8735 20.9729C20.317 20.9729 20.5658 20.7241 20.5658 20.3022L19.3866 20.0642V13.584C18.7483 13.7679 17.0607 14.1574 16.4116 14.2655C16.2925 14.7416 16.5306 15.2176 17.6124 14.9796Z" fill="#EA4E43"/>
<path d="M12.2945 20.0268V14.9854C11.2127 15.2234 10.9748 14.7474 11.0937 14.2714C11.7428 14.1632 13.4305 13.7738 14.0688 13.5898V20.07L15.2479 20.308C15.2479 20.7299 14.9991 20.9788 14.5556 20.9788C14.1878 20.9788 13.3331 20.9571 12.922 20.9571C12.2838 20.9571 11.1154 20.9788 11.1154 20.9788C11.0829 20.8922 11.0721 20.8057 11.0721 20.7299C11.0721 20.5243 11.1586 20.3188 11.4399 20.2431L12.2945 20.0268Z" fill="#EA4E43"/>
<path d="M18.3856 13.6367C20.0656 13.6367 21.0206 14.6742 21.0206 17.1751C21.0206 19.6104 19.9949 21.0848 18.1468 21.0848C16.4667 21.0848 15.5117 20.0473 15.5117 17.5464C15.5117 15.1111 16.5375 13.6367 18.3856 13.6367ZM18.1645 14.707C17.3686 14.707 17.0946 15.7336 17.0946 17.0768C17.0946 18.6494 17.5366 20.0036 18.3679 20.0036C19.1637 20.0036 19.4378 18.988 19.4378 17.6447C19.4378 16.0721 18.9956 14.707 18.1645 14.707Z" fill="#EA4E43"/>
<path d="M15.884 20.1142C16.597 20.0768 16.9429 19.4412 17.0057 18.3654C15.1615 19.1446 13.5151 18.3208 13.4261 16.6247C13.3395 14.9718 14.332 13.8582 15.9417 13.7738C17.7134 13.6809 18.7054 14.8314 18.809 16.8084C18.9415 19.3364 17.9699 21.0557 15.8417 21.1672C14.4804 21.2385 13.6305 20.7306 13.5852 19.8663C13.5575 19.3369 13.9686 18.9146 14.5879 18.9471C14.7417 19.8165 15.3114 20.1442 15.884 20.1142ZM15.0838 15.8012C15.1393 16.8599 15.8691 17.7642 17.0195 17.5955C17.0167 17.5415 17.0127 17.4659 17.0093 17.4011C16.9266 15.8238 16.3748 14.8019 15.7373 14.8353C15.3376 14.8562 15.0509 15.1746 15.0838 15.8012Z" fill="#EA4E43"/>
<path d="M18.8018 18.9603C18.8018 20.2477 17.655 21.1457 16.0323 21.1457C14.1499 21.1457 13.3169 20.2693 13.3169 19.2957C13.3169 18.4735 13.8362 17.8244 14.6259 17.4999C13.9011 16.9049 13.6739 16.4289 13.6739 15.8014C13.6739 14.7412 14.4853 13.7676 16.1729 13.7676C17.6226 13.7676 18.4124 14.5032 18.4124 15.4227C18.4124 16.245 17.9255 16.721 17.3738 17.0563C18.4556 17.7271 18.8018 18.2463 18.8018 18.9603ZM17.0168 15.7041C17.0168 15.1199 16.6165 14.752 16.0107 14.752C15.4698 14.752 15.2642 15.0333 15.2642 15.3578C15.2642 15.65 15.3724 15.8663 15.8916 16.1801L16.6922 16.6669C16.9302 16.3423 17.0168 16.0719 17.0168 15.7041ZM16.9627 19.5012C16.9627 19.1876 16.7571 18.9603 16.0648 18.5277L15.3291 18.0624C15.0046 18.3978 14.8856 18.7115 14.8856 19.101C14.8856 19.7826 15.3724 20.1071 16.1404 20.1071C16.6489 20.1071 16.9627 19.8799 16.9627 19.5012Z" fill="#EA4E43"/>
<path d="M18.7986 13.9186C17.9763 15.4223 16.5483 18.7976 15.9317 21.1452H15.8451C15.0121 21.1452 14.4063 20.6692 14.4063 19.8686C14.4063 19.4575 14.5469 18.9707 14.8498 18.4189C15.077 18.0079 15.3908 17.5751 15.6937 17.1532L16.9053 15.4548C16.4726 15.5197 15.7369 15.6062 15.0121 15.6062C14.1899 15.6062 13.6382 15.1735 13.6382 14.4595C13.6382 14.2756 13.6815 14.0592 13.768 13.832C14.3414 13.9186 15.6179 13.951 16.7647 13.951C17.5652 13.951 18.3982 13.9402 18.7986 13.9186Z" fill="#EA4E43"/>
<path d="M16.3642 14.8053C15.5528 14.8053 15.2715 15.5843 15.2282 16.969C17.1323 16.2549 18.8091 16.8392 18.8091 18.5376C18.8091 20.0954 17.7597 21.1448 16.1803 21.1448C14.114 21.1448 13.3892 19.6735 13.3892 17.8885C13.3892 15.476 14.4277 13.7668 16.3534 13.7668C17.7165 13.756 18.5386 14.3077 18.5386 15.1731C18.5386 15.7033 18.1059 16.1035 17.4893 16.0386C17.3811 15.238 16.9375 14.8053 16.3642 14.8053ZM17.1215 19.1651C17.1215 18.1049 16.375 17.5748 15.2174 17.7154C15.2715 19.23 15.7475 20.0954 16.3534 20.0954C16.7536 20.0954 17.1215 19.7925 17.1215 19.1651Z" fill="#EA4E43"/>
<path d="M18.6311 18.6582C18.6419 20.2918 17.5493 21.1465 15.7101 21.1465C14.3471 21.1573 13.395 20.6056 13.395 19.7401C13.395 19.21 13.8278 18.8097 14.4444 18.8747C14.5526 19.7509 15.1368 20.1079 15.7426 20.1079C16.3159 20.1079 16.7595 19.7509 16.7595 19.21C16.7595 18.2363 15.8075 17.7712 13.9468 17.9767V13.9199H16.3376C16.9109 13.9199 17.4411 13.8874 17.9604 13.79C18.0577 13.9523 18.1226 14.1687 18.1226 14.3959C18.1226 15.0342 17.625 15.6183 16.6189 15.6183C15.9481 15.6183 15.364 15.5426 14.8771 15.4669V16.5812C17.2896 16.2133 18.6311 17.0031 18.6311 18.6582Z" fill="#EA4E43"/>
<path d="M18.4926 18.4839C18.7955 18.9058 18.7197 19.8795 17.6596 19.8037L17.6703 19.9877C17.7245 20.9181 17.2701 21.1452 16.621 21.1452C16.3613 21.1452 16.0584 21.0803 15.8096 20.9505L15.8421 19.7713H13.2889L12.9536 18.8409C13.5378 17.3697 14.9982 14.8598 15.8529 13.8213L17.6596 14.1025V18.5921C17.9841 18.5921 18.2221 18.5597 18.4926 18.4839ZM15.8854 15.2168C15.312 16.0282 14.3599 17.7699 14.0029 18.6462H15.8854V15.2168Z" fill="#EA4E43"/>
<path d="M16.2519 16.1358C16.2519 15.5084 15.8948 15.0972 15.3323 15.0972C14.7914 15.0972 14.6075 15.4867 14.6075 16.1034V16.2115C14.5425 16.2224 14.4885 16.2332 14.4235 16.2332C14.0341 16.2332 13.7528 15.9086 13.7528 15.3569C13.7528 14.5131 14.5317 13.7666 16.0139 13.7666C17.3337 13.7666 18.1775 14.4373 18.1775 15.53C18.1775 16.3522 17.4742 16.8931 16.7819 17.0337C18.0801 17.1744 18.621 17.91 18.621 18.8079C18.621 20.3441 17.4634 21.1446 15.6785 21.1446H15.6352C14.2937 21.1446 13.3525 20.5929 13.3525 19.7382C13.3525 19.2514 13.7203 18.862 14.2721 18.862C14.3154 18.862 14.3586 18.8728 14.4019 18.8728C14.5101 19.7491 15.1159 20.1061 15.7217 20.1061C16.3059 20.1061 16.717 19.7491 16.717 19.2081V19.1866C16.717 18.3428 15.9922 18.2561 14.8995 18.148L14.7265 17.1311C15.7434 17.0121 16.2519 16.72 16.2519 16.1358Z" fill="#EA4E43"/>
<path d="M16.2655 16.1358C16.2655 15.5084 15.9085 15.0972 15.346 15.0972C14.7726 15.0972 14.5995 15.53 14.6211 16.2115C14.1343 16.3197 13.7665 15.9952 13.7665 15.3569C13.7665 14.5131 14.5238 13.7666 16.0816 13.7666C17.4015 13.7666 18.3101 14.578 18.3101 15.6165C18.3101 16.6984 17.726 17.4556 16.2222 18.8187L15.4109 19.5543C16.9146 19.5868 17.9099 19.5111 18.375 19.2298C18.5698 19.4137 18.678 19.6733 18.678 19.9979C18.678 20.6578 17.9315 21.0365 17.185 21.0365C16.4602 21.0365 13.5285 20.9499 13.5285 20.9499L13.3662 20.3332L14.7942 18.6564C15.7679 17.5098 16.2655 16.8931 16.2655 16.1358Z" fill="#EA4E43"/>
<path d="M15.1656 20.0199V14.9785C14.0838 15.2165 13.8458 14.7405 13.9648 14.2645C14.6139 14.1563 16.3016 13.7669 16.9398 13.583V20.0631L18.1191 20.3011C18.1191 20.723 17.8702 20.9719 17.4267 20.9719C17.0588 20.9719 16.2042 20.9502 15.7931 20.9502C15.1548 20.9502 13.9864 20.9719 13.9864 20.9719C13.954 20.8853 13.9432 20.7988 13.9432 20.723C13.9432 20.5175 14.0297 20.312 14.311 20.2362L15.1656 20.0199Z" fill="#EA4E43"/>
</svg>
