<svg viewBox="0 0 94 98" fill="none" xmlns="http://www.w3.org/2000/svg">
<path d="M6.05933 78.6865C6.99321 76.0497 6.59867 73.7109 6.05932 70.5154C5.38513 66.521 4.26148 57.5525 9.95462 51.8247C14.5091 47.2424 19.6929 44.891 21.7155 44.2881" stroke="#111111" stroke-width="1.5" stroke-linecap="round"/>
<path d="M17.5405 78.5762C17.8662 77.4353 21.0682 72.4743 20.661 69.1276C20.5146 68.1754 20.6171 65.9854 22.6387 64.8428" stroke="#111111" stroke-width="1.5" stroke-linecap="round"/>
<path d="M15.7173 56.1628C17.2554 53.6359 21.4304 50.3399 24.7264 49.7906C28.0224 49.2412 28.3139 51.482 27.8889 52.4333C27.2515 53.8603 25.864 55.4374 23.0891 58.4416C20.3401 61.4177 18.8393 66.9283 18.6643 69.5569" stroke="#111111" stroke-width="1.5" stroke-linecap="round"/>
<path d="M70.1882 47.2699C68.0521 45.4368 62.7396 42.1923 58.5781 43.8798C58.2012 44.0305 57.4171 44.7387 57.2965 46.366" stroke="#111111" stroke-width="1.5" stroke-linecap="round"/>
<path d="M81.0441 73.6386C80.8431 72.835 80.4259 70.2635 80.6671 68.2143C80.9687 65.6529 80.6957 55.9847 76.4739 53.1973" stroke="#111111" stroke-width="1.5" stroke-linecap="round"/>
<path d="M80.3192 53.4167L71.6361 52.8477" stroke="#111111" stroke-width="1.5" stroke-linecap="round"/>
<ellipse cx="80.2751" cy="50.7701" rx="2.30722" ry="3.18616" fill="#111111"/>
<path d="M77.0021 52.3262C76.1349 50.6826 76.7729 49.3396 77.494 48.5806C77.7939 48.2649 78.2364 48.1545 78.6714 48.1747L79.204 48.1995C80.3059 48.2507 81.1583 49.1843 81.1092 50.2863L81.0643 51.2931C81.013 52.4446 80.0016 53.3145 78.8554 53.1929L78.3206 53.1362C77.7763 53.0785 77.2575 52.8103 77.0021 52.3262Z" fill="#111111"/>
<path d="M52.057 48.2551C51.9931 48.8231 51.3661 49.1375 50.8726 48.8491C50.2812 48.5034 50.3795 47.6204 51.0324 47.4132C51.578 47.2401 52.121 47.6863 52.057 48.2551Z" fill="#111111"/>
<path d="M22.5481 50.2312L21.496 21.2123C21.4959 16.9294 22.2926 9.6713 31.1913 9.79151C40.0899 9.91173 44.92 9.8416 46.2228 9.79151" stroke="#111111" stroke-width="1.5" stroke-linecap="round"/>
<path d="M56.4441 9.79102H71.4004C75.5341 9.86615 79.0665 11.6694 79.0665 18.582C79.0665 25.4946 78.862 39.9453 78.5614 47.484" stroke="#111111" stroke-width="1.5" stroke-linecap="round"/>
<path d="M66.0364 83.3013C59.8735 83.7521 43.3917 84.9532 33.4458 85.3789C29.237 85.3789 23.6603 84.838 22.9989 77.2642L22.548 59.1562" stroke="#111111" stroke-width="1.5" stroke-linecap="round"/>
<circle cx="51.2702" cy="6.38344" r="2.6559" stroke="#111111" stroke-width="1.5"/>
<path d="M46.6101 8.24316C47.1493 9.80286 46.3855 10.9426 44.6631 11.3176C43.8394 11.4969 42.6861 11.5125 40.4695 12.2924C37.6987 13.2671 37.1745 16.0416 37.0996 18.4412C37.0397 20.3608 38.148 20.9907 40.095 21.0657C45.7614 21.0407 57.898 21.2156 61.138 21.2156C64.5079 21.2156 64.998 19.9409 65.107 19.116C65.6462 15.0368 64.2084 13.4015 62.9353 12.8173C62.3362 12.5423 60.5839 11.8574 58.3672 11.3176C56.1506 10.7777 55.7514 10.0428 55.9709 8.99299C56.5101 6.41349 56.1955 4.31891 55.9709 3.59405C55.7213 2.59425 54.2635 0.684615 50.4293 1.04455C45.6366 1.49446 45.9362 6.29354 46.6101 8.24316Z" stroke="#111111" stroke-width="1.5" stroke-linecap="round"/>
<path d="M72.8484 46.9339L73.1338 19.1375C73.1338 18.5374 72.7939 17.4873 71.4083 17.4873C69.9828 17.4873 66.7819 17.5373 65.3314 17.4873" stroke="#111111" stroke-width="1.5" stroke-linecap="round"/>
<path d="M36.7476 17.4883H29.8455C29.0953 17.4132 27.6549 17.8483 27.8949 20.1886C28.135 22.5288 29.2954 58.818 29.8455 76.67C29.8205 77.5701 30.2207 79.3403 32.0212 79.2203C33.391 79.129 54.7069 77.9286 67.4648 77.3682" stroke="#111111" stroke-width="1.5" stroke-linecap="round"/>
<path d="M74.9359 47.2639L75.3312 19.6537C75.3312 18.827 74.9711 17.6245 72.9303 17.9251" stroke="#111111" stroke-width="1.5" stroke-linecap="round"/>
<path d="M28.5135 17.7002C27.7632 17.7002 26.0377 17.7002 26.1126 19.6542C26.1846 21.5322 26.8629 40.7629 27.088 49.6815" stroke="#111111" stroke-width="1.5" stroke-linecap="round"/>
<path d="M27.088 54.001L27.7633 77.4501C27.8383 78.2768 28.1384 79.4793 31.7397 79.1787" stroke="#111111" stroke-width="1.5" stroke-linecap="round"/>
<path d="M35.7788 30.4443H49.8419" stroke="#E65787" stroke-width="1.5" stroke-linecap="round"/>
<path d="M35.8729 35.4336L66.2342 35.2833" stroke="#E65787" stroke-width="1.5" stroke-linecap="round"/>
<path d="M35.9482 40.4688L59.7713 40.2433" stroke="#E65787" stroke-width="1.5" stroke-linecap="round"/>
<path d="M36.1769 48.2891L47.8972 47.7586" stroke="#E65787" stroke-width="1.5" stroke-linecap="round"/>
<path d="M75.8149 47.8135C75.2655 48.8389 74.0569 50.2306 75.3753 52.8674" stroke="#111111" stroke-width="1.5" stroke-linecap="round"/>
<path d="M58.3458 60.0303C57.6133 60.9021 57.2032 63.3929 61.4221 66.3813C63.5096 67.7363 67.8384 71.8527 68.4536 77.4779" stroke="#111111" stroke-width="1.5" stroke-linecap="round"/>
<path d="M57.247 51.2188C56.8544 51.9548 56.6821 53.3714 57.9062 54.7285C58.5093 55.397 59.4512 56.0511 60.8726 56.6023" stroke="#111111" stroke-width="1.5" stroke-linecap="round"/>
<path d="M57.9063 54.7285C57.1209 55.8646 56.4048 58.1942 58.3458 60.0295C58.8484 60.5048 60.5181 61.3864 61.4221 61.7661" stroke="#111111" stroke-width="1.5" stroke-linecap="round"/>
<path d="M73.1633 96.7066C70.8195 91.2499 67.5381 79.4354 73.1633 75.8318C80.1949 71.3272 89.3139 81.5449 92.5 90.3343" stroke="#111111" stroke-width="1.5" stroke-linecap="round"/>
<path d="M80.4291 48.1423L54.6887 46.2888C54.4663 46.2728 54.2405 46.2925 54.0274 46.358C50.7173 47.3743 51.8075 49.2278 53.0589 50.3909C53.3441 50.6559 53.718 50.7979 54.1057 50.8331L59.5543 51.3284" stroke="#111111" stroke-width="1.5" stroke-linecap="round"/>
<path d="M1.5 92.4203C2.04934 87.2931 5.87273 76.8286 12.3769 78.147C18.8811 79.4655 20.6536 91.2213 20.7268 96.9344" stroke="#111111" stroke-width="1.5" stroke-linecap="round"/>
<path d="M65.7069 63.0849C61.5319 58.3606 59.1149 54.6251 59.6642 49.9008C59.9704 47.2676 61.4869 46.1817 62.8753 47.4965C64.7181 49.2416 66.1464 51.4389 68.1526 52.318C68.5459 52.5011 69.794 52.8672 71.6398 52.8672" stroke="#111111" stroke-width="1.5" stroke-linecap="round"/>
</svg>
