<svg width="current" height="current" viewBox="0 0 116 108" fill="none" xmlns="http://www.w3.org/2000/svg">
<path d="M49.3984 84.1998C48.0732 77.3588 52.9875 61.7336 55.6102 54.7761C56.4845 55.1899 63.8006 53.7647 66.1473 50.3627C68.0248 47.641 71.2132 46.572 72.7733 46.087C74.8439 45.4433 78.295 45.5353 78.9392 47.0984L79.6293 48.7076C81.8841 55.1899 79.9208 65.0438 78.525 69.442L73.3715 70.3615C69.4695 64.0355 71.4696 56.324 72.9574 53.259C71.3745 55.3923 66.9296 57.6419 64.905 58.5C64.813 64.1549 56.1624 83.6481 54.2759 84.8894C52.7666 85.8824 50.3954 84.8435 49.3984 84.1998Z" fill="#111111"/>
<path d="M52.7036 85.327L52.0594 86.4978M50.0343 84.585L48.805 87.8311L48.6996 88.1093C48.5826 88.3903 48.5016 88.8617 48.6996 89.2633C48.8393 89.5465 49.1177 89.795 49.6202 89.9178C50.8351 90.2145 55.4037 90.5361 57.5361 90.6597C57.9043 90.7061 58.6039 90.5299 58.4566 89.4541C58.3093 88.3781 57.5361 87.3937 56.6617 86.9964C55.9524 86.6741 54.1233 86.1739 52.0594 86.4978L50.0343 84.585ZM51.415 86.6253C51.6317 86.5734 51.8468 86.5312 52.0594 86.4978L51.415 86.6253Z" stroke="#111111" stroke-width="1.5" stroke-linecap="round"/>
<path d="M74.1066 70.1124C74.0606 71.4765 74.1849 74.1622 74.5218 74.5729C74.937 75.0787 75.4445 75.1246 78.5353 74.159C81.008 73.3864 81.9952 73.3772 82.5948 73.2853C83.01 73.2216 83.5175 73.1657 83.5175 72.1357C83.5175 70.8481 83.01 69.9744 81.4415 69.7904C80.1868 69.6433 78.3969 70.4036 77.6588 70.8021V69.5605" stroke="#111111" stroke-width="1.5" stroke-linecap="round"/>
<path d="M68.2019 23.8271C63.4631 24.306 54.1513 26.3244 54.8138 30.5668C54.9154 30.927 55.2072 31.5018 55.7512 32.0424C56.2751 32.5631 57.033 33.0523 58.0803 33.2875" stroke="#111111" stroke-width="1.5" stroke-linecap="round"/>
<path d="M55.751 32.042C57.2328 34.3476 61.5766 39.3555 67.0975 40.9418" stroke="#111111" stroke-width="1.5" stroke-linecap="round"/>
<path d="M67.0625 40.9425C67.4 40.4892 68.2869 39.6697 69.3281 39.6309" stroke="#111111" stroke-width="1.5" stroke-linecap="round"/>
<path d="M69.3277 39.6305C69.2969 38.3357 68.2047 34.9968 64.0811 31.999" stroke="#111111" stroke-width="1.5" stroke-linecap="round"/>
<path d="M62.8887 33.0724C63.3166 32.3795 64.6314 30.9086 66.4659 30.5684" stroke="#111111" stroke-width="1.5" stroke-linecap="round"/>
<path d="M73.1436 31.7607C73.3422 31.9956 73.7398 32.6345 73.7398 33.3109" stroke="#111111" stroke-width="1.5" stroke-linecap="round"/>
<path d="M73.0964 41.6587C74.0361 41.6128 75.9986 41.475 76.3314 41.2911C76.7473 41.0615 76.8397 41.0615 76.8397 40.6019C76.8397 40.1425 73.0964 40.9236 73.0964 39.4532C73.4354 39.1163 73.9838 38.3597 73.4661 38.0288C72.9485 37.698 71.864 38.6568 71.3866 39.1776C70.8936 39.6983 69.7875 40.5193 69.3069 39.637" stroke="#111111" stroke-width="1.5" stroke-linecap="round"/>
<path d="M67.1814 40.9238C67.5973 42.1338 69.0946 44.3055 71.7565 43.3131C74.4184 42.3206 74.5293 41.7968 74.2519 41.659" stroke="#111111" stroke-width="1.5" stroke-linecap="round"/>
<path d="M90.1069 41.4387C90.7538 41.2619 92.1677 40.4394 92.6482 38.5638C93.1288 36.6882 92.4788 36.679 92.0937 36.9088" stroke="#111111" stroke-width="1.5" stroke-linecap="round"/>
<path d="M87.7041 40.0813C87.9043 39.0393 88.6097 37.0289 89.8296 37.323" stroke="#111111" stroke-width="1.5" stroke-linecap="round"/>
<path d="M88.2122 38.3796C87.362 37.6808 86.8414 39.2837 86.6873 40.1725C85.7264 40.4667 85.3628 41.8581 85.3013 42.517C87.5252 42.7451 89.1057 42.1479 90.1066 41.4384C90.7194 41.004 91.1149 40.5275 91.3079 40.1725C91.7854 38.9007 92.4815 36.2466 91.4465 35.8053C90.4115 35.364 90.122 36.3569 90.1066 36.9085C90.2175 38.159 89.5675 39.5442 89.2287 40.0806" stroke="#111111" stroke-width="1.5" stroke-linecap="round"/>
<path d="M74.813 41.6436C76.8152 43.513 81.716 46.3049 85.3016 42.517" stroke="#111111" stroke-width="1.5" stroke-linecap="round"/>
<path d="M74.4553 41.8965C74.4553 42.7644 74.2406 44.7427 73.3821 45.7122" stroke="#111111" stroke-width="1.5" stroke-linecap="round"/>
<path d="M55.734 43.9238C53.8444 46.4744 51.1989 52.2391 55.734 54.894" stroke="#111111" stroke-width="1.5" stroke-linecap="round"/>
<path d="M112.255 32.9527L113.328 31.1641" stroke="#6664E3" stroke-width="1.5" stroke-linecap="round"/>
<path d="M112.779 33.888L114.759 33.7959" stroke="#6664E3" stroke-width="1.5" stroke-linecap="round"/>
<path d="M112.374 34.9805L113.566 36.5306" stroke="#6664E3" stroke-width="1.5" stroke-linecap="round"/>
<path d="M73.3961 91.1436H41.1868V106.883" stroke="#111111" stroke-width="1.5" stroke-linecap="round"/>
<path d="M95.7907 75.4512H69.4333V94.6416" stroke="#111111" stroke-width="1.5" stroke-linecap="round"/>
<path d="M113.208 53.4531H91.8276V79.0866" stroke="#111111" stroke-width="1.5" stroke-linecap="round"/>
<path d="M109.43 36.709V57.0424" stroke="#111111" stroke-width="1.5" stroke-linecap="round"/>
<path d="M109.43 29.6143V31.3433" stroke="#111111" stroke-width="1.5" stroke-linecap="round"/>
<path d="M67.663 42.0793L41.2662 45.1157C38.2126 42.6695 38.9516 39.0175 39.7027 37.4973L58.0517 35.2979" stroke="#111111" stroke-width="1.5" stroke-linecap="round"/>
<path d="M76.7227 41.3462L85.7823 40.4756" stroke="#111111" stroke-width="1.5" stroke-linecap="round"/>
<path d="M92.4041 39.5138L98.3365 39.1013L106.292 35.4952C105.336 34.4797 105.861 33.5752 106.259 33.2516L98.3365 31.4033L66.9731 34.0152" stroke="#111111" stroke-width="1.5" stroke-linecap="round"/>
<path d="M36.8602 37.5355L39.5492 37.2461C37.6843 41.4241 39.8221 44.2664 41.1867 45.3724L38.0482 45.8315C35.425 42.6368 36.1012 39.0615 36.8602 37.5355Z" fill="#6664E3"/>
<path d="M106.579 35.6956C105.581 34.6539 106.141 33.4133 106.557 33.0127L110.347 33.9479L106.579 35.6956Z" fill="#6664E3"/>
<path d="M98.423 31.4033C97.4332 32.6599 96.0475 35.9455 98.423 39.0348" stroke="#111111" stroke-width="1.5"/>
<path d="M75.6257 24.6313C76.4144 24.1459 82.3477 24.6138 83.5013 17.1504C85.4761 17.1735 86.55 15.5558 85.0432 14.8634C83.4368 14.0351 83.5573 12.5143 83.8484 11.6182C84.311 10.443 84.3391 9.20923 84.2393 8.95117" stroke="#111111" stroke-width="1.5" stroke-linecap="round"/>
<path d="M81.7602 14.4555C81.9843 14.4581 82.1691 14.1877 82.1731 13.8516C82.177 13.5154 81.9985 13.2408 81.7744 13.2382C81.5503 13.2355 81.3655 13.5059 81.3615 13.842C81.3576 14.1782 81.5361 14.4528 81.7602 14.4555Z" fill="#111111"/>
<path d="M80.6582 11.9923C80.9877 11.6401 81.8398 11.1249 82.6117 11.8817" stroke="#111111" stroke-width="1.5" stroke-linecap="round"/>
<path d="M78.4204 18.8506C79.026 19.7825 79.6908 20.0471 80.9823 19.4457" stroke="#111111" stroke-width="1.5" stroke-linecap="round"/>
<path d="M73.4624 12.3184C73.3221 12.6265 73.2046 13.3259 73.8568 13.6589" stroke="#111111" stroke-width="1.5" stroke-linecap="round"/>
<path d="M66.5118 9.15483C65.7434 13.3587 68.1475 16.5233 69.8905 18.956C71.7519 17.9503 74.8029 15.5588 73.6327 15.3007C72.4029 15.0294 71.1058 11.6747 72.3001 10.6485C73.7013 9.44456 74.9644 11.2662 75.2052 12.6476L76.3338 10.6958C76.0146 9.33066 75.8895 6.93601 77.942 8.27846C79.9945 9.62091 83.0052 9.26925 84.2541 8.92562C86.7164 7.16316 90.5419 3.05214 86.1457 0.707748C82.4892 -1.24214 77.7311 1.22305 74.8266 3.43815C72.8601 2.91898 67.5594 3.42298 66.5118 9.15483Z" fill="#111111"/>
<path d="M70.0276 18.6748C70.9164 19.7449 71.358 20.6335 71.303 22.4742" stroke="#111111" stroke-width="1.5" stroke-linecap="round"/>
<path d="M69.0386 24.9386C68.7273 23.853 68.545 21.7825 70.3052 22.185C72.5053 22.6879 76.9897 24.8636 76.6612 26.0696" stroke="#111111" stroke-width="1.5" stroke-linecap="round"/>
<path d="M76.6611 27.7656C78.2709 29.2561 78.6286 30.2101 78.8671 31.9987" stroke="#111111" stroke-width="1.5" stroke-linecap="round"/>
<path d="M1.24097 76.1124C3.42769 75.9133 8.58041 77.2172 12.0224 83.9235C12.1125 84.0989 12.3663 84.1035 12.456 83.928C15.9866 77.0163 20.3199 70.005 34.0164 78.4468C34.227 78.5765 34.5033 78.3415 34.3989 78.1172C32.1767 73.3379 30.9759 64.2235 41.3309 59.7017C41.5386 59.6111 41.5294 59.3024 41.3119 59.2387L38.6334 58.4559C38.3879 58.3841 38.4146 58.0472 38.6694 58.0242C41.4287 57.7756 45.3213 57.9376 43.9812 59.5656C42.4165 61.4664 42.0317 62.6682 42.4131 64.6526" stroke="#6664E3" stroke-width="1.5" stroke-linecap="round"/>
</svg>
