<svg viewBox="0 0 134 98" fill="none" xmlns="http://www.w3.org/2000/svg">
<path d="M102.292 90.8038C98.2603 87.5185 103.723 87.1327 106.959 87.3505V89.4972L114.705 91.4572C112.248 92.6082 106.324 94.0891 102.292 90.8038Z" fill="#111111"/>
<path d="M123.479 88.8439C120.866 89.1426 120.088 87.9728 120.026 87.3506H125.626C125.999 87.7239 126.092 88.5452 123.479 88.8439Z" fill="#111111"/>
<path d="M117.599 79.7903C114.706 79.7903 113.119 79.6037 110.786 79.417" stroke="#27998D" stroke-width="1.5" stroke-linecap="round"/>
<path d="M119.839 80.9102V89.8701" stroke="#27998D" stroke-width="1.5" stroke-linecap="round"/>
<path d="M113.119 81.3768L106.959 80.9102" stroke="#27998D" stroke-width="1.5" stroke-linecap="round"/>
<path d="M116.012 82.3105V91.3638" stroke="#27998D" stroke-width="1.5" stroke-linecap="round"/>
<path d="M115.919 91.5505L119.839 89.9639" stroke="#27998D" stroke-width="1.5" stroke-linecap="round"/>
<path d="M110.692 79.417L106.959 80.9103" stroke="#27998D" stroke-width="1.5" stroke-linecap="round"/>
<path d="M106.866 81.0039V89.5905" stroke="#27998D" stroke-width="1.5" stroke-linecap="round"/>
<path d="M106.773 89.4971L115.919 91.5504" stroke="#27998D" stroke-width="1.5" stroke-linecap="round"/>
<path d="M117.599 79.9776V77.3643" stroke="#27998D" stroke-width="1.5" stroke-linecap="round"/>
<path d="M125.719 87.2573V78.2041" stroke="#27998D" stroke-width="1.5" stroke-linecap="round"/>
<path d="M130.105 75.2168V85.2967" stroke="#27998D" stroke-width="1.5" stroke-linecap="round"/>
<path d="M125.719 87.4435L130.105 85.2969" stroke="#27998D" stroke-width="1.5" stroke-linecap="round"/>
<path d="M130.106 75.1243L120.212 74.751" stroke="#27998D" stroke-width="1.5" stroke-linecap="round"/>
<path d="M117.599 77.3643L120.212 74.751" stroke="#27998D" stroke-width="1.5" stroke-linecap="round"/>
<path d="M125.719 78.1105L130.012 75.3105" stroke="#27998D" stroke-width="1.5" stroke-linecap="round"/>
<path d="M125.719 87.2568H120.212" stroke="#27998D" stroke-width="1.5" stroke-linecap="round"/>
<path d="M117.692 77.3643L123.012 77.5509" stroke="#27998D" stroke-width="1.5" stroke-linecap="round"/>
<path d="M43.1136 94.7324C43.2069 92.1191 53.6601 92.9591 54.3135 93.0525V94.7324L57.4868 96.9723C52.6646 97.0968 43.0389 96.8231 43.1136 94.7324Z" fill="#111111"/>
<path d="M69.0597 94.4525V84.9326" stroke="#27998D" stroke-width="1.5" stroke-linecap="round"/>
<path d="M60.9398 96.879V86.4258" stroke="#27998D" stroke-width="1.5" stroke-linecap="round"/>
<path d="M54.2202 94.4522V83.999" stroke="#27998D" stroke-width="1.5" stroke-linecap="round"/>
<path d="M54.2202 83.9995L61.5935 82.1328" stroke="#27998D" stroke-width="1.5" stroke-linecap="round"/>
<path d="M69.0597 84.8389L60.9398 86.3322" stroke="#27998D" stroke-width="1.5" stroke-linecap="round"/>
<path d="M60.9398 96.9725L69.0597 94.5459" stroke="#27998D" stroke-width="1.5" stroke-linecap="round"/>
<path d="M69.06 84.8394L61.5934 82.1328" stroke="#27998D" stroke-width="1.5" stroke-linecap="round"/>
<path d="M54.2202 84.0918L61.0335 86.3318" stroke="#27998D" stroke-width="1.5" stroke-linecap="round"/>
<path d="M78.1588 94.2656C76.4415 91.2789 81.9232 90.8434 84.8787 90.9989V93.1457L94.4919 94.2656C89.7631 95.51 79.8761 97.2522 78.1588 94.2656Z" fill="#111111"/>
<path d="M99.2515 90.252L95.6116 93.9852" stroke="#27998D" stroke-width="1.5" stroke-linecap="round"/>
<path d="M94.7718 82.5986L85.3452 81.9453" stroke="#27998D" stroke-width="1.5" stroke-linecap="round"/>
<path d="M89.1719 79.5186L99.2518 79.9852" stroke="#27998D" stroke-width="1.5" stroke-linecap="round"/>
<path d="M85.1586 81.9453L84.6919 92.7719" stroke="#27998D" stroke-width="1.5" stroke-linecap="round"/>
<path d="M99.252 80.1719V90.0651" stroke="#27998D" stroke-width="1.5" stroke-linecap="round"/>
<path d="M95.6116 86.0527V93.986" stroke="#27998D" stroke-width="1.5" stroke-linecap="round"/>
<path d="M85.1586 81.9452L89.1719 79.5186" stroke="#27998D" stroke-width="1.5" stroke-linecap="round"/>
<path d="M95.6118 93.9852L84.5986 92.8652" stroke="#27998D" stroke-width="1.5" stroke-linecap="round"/>
<path d="M76.2126 24.3156C76.6171 24.1911 77.6873 24.073 78.7326 24.5956" stroke="#111111" stroke-width="1.5" stroke-linecap="round"/>
<path d="M72.4794 29.1691C73.201 29.1691 73.786 28.5423 73.786 27.7691C73.786 26.9959 73.201 26.3691 72.4794 26.3691C71.7577 26.3691 71.1727 26.9959 71.1727 27.7691C71.1727 28.5423 71.7577 29.1691 72.4794 29.1691Z" fill="#111111"/>
<path d="M83.1193 31.0353C83.8409 31.0353 84.4259 30.4085 84.4259 29.6353C84.4259 28.8621 83.8409 28.2354 83.1193 28.2354C82.3976 28.2354 81.8126 28.8621 81.8126 29.6353C81.8126 30.4085 82.3976 31.0353 83.1193 31.0353Z" fill="#111111"/>
<path d="M69.3059 25.5292C69.3992 24.938 69.9779 23.8119 71.5459 24.0359" stroke="#111111" stroke-width="1.5" stroke-linecap="round"/>
<path d="M81.2524 25.3423C81.9991 24.689 83.8657 23.7743 85.3591 25.3423" stroke="#111111" stroke-width="1.5" stroke-linecap="round"/>
<path d="M77.2393 26.9287C78.1105 28.3599 79.3299 31.4273 77.2393 32.2486L76.2126 32.622" stroke="#111111" stroke-width="1.5" stroke-linecap="round"/>
<path d="M73.6925 35.5156C73.9103 36.1068 74.7378 37.0836 76.3058 36.2623" stroke="#111111" stroke-width="1.5" stroke-linecap="round"/>
<path d="M43.6396 21.7957C40.5783 31.8756 49.0838 39.1866 53.7195 41.5821C57.9007 39.0435 63.8615 37.7555 66.4126 37.3822C63.2393 34.7689 62.2749 29.9777 62.026 27.7689C60.3461 28.3289 55.8661 26.1823 57.9194 21.7957C59.5621 18.2864 61.3415 20.0845 62.026 21.4224L66.5993 23.4757C66.5993 19.2197 69.5236 17.7824 70.9859 17.5957C71.8819 16.9984 72.8526 15.0446 73.2259 14.1424C73.6739 17.6517 78.2658 20.209 80.5058 21.049C83.4178 18.7344 85.7634 20.0845 86.5724 21.049L88.6257 20.769C92.639 19.4002 99.8442 14.7211 96.559 6.95586C93.2737 -0.809381 86.4791 0.609268 83.4924 2.28925C73.2632 -4.50534 62.9903 5.43137 59.1327 11.2491C55.2438 10.5646 46.7009 11.7158 43.6396 21.7957Z" fill="#111111"/>
<path d="M66.5061 23.5687L62.0261 21.2354" stroke="#111111" stroke-width="1.5" stroke-linecap="round"/>
<path d="M76.119 23.3827C76.119 26.6017 73.919 29.076 71.3591 29.076C68.7991 29.076 66.5991 26.6017 66.5991 23.3827C66.5991 20.1635 68.7991 17.6895 71.3591 17.6895C73.919 17.6895 76.119 20.1635 76.119 23.3827Z" stroke="#111111" stroke-width="1.5"/>
<path d="M88.4391 25.4355C88.4391 28.6545 86.239 31.1287 83.6791 31.1287C81.1192 31.1287 78.9192 28.6545 78.9192 25.4355C78.9192 22.2162 81.1192 19.7422 83.6791 19.7422C86.239 19.7422 88.4391 22.2162 88.4391 25.4355Z" stroke="#111111" stroke-width="1.5"/>
<path d="M88.6259 43.4272C95.7938 37.6779 91.7059 29.9252 88.7192 26.7207C87.0766 34.4859 83.275 37.8272 81.626 38.5739L84.2393 39.9739L88.6259 43.4272Z" fill="#111111"/>
<path d="M62.5861 23.3825C62.4306 21.6714 60.4395 17.5959 58.2928 21.4226C57.3595 23.1647 56.6875 26.8918 61.4661 27.8625" stroke="#111111" stroke-width="1.5" stroke-linecap="round"/>
<path d="M60.9991 22.7295C60.5637 23.1028 59.9165 24.0735 60.8125 24.9695" stroke="#111111" stroke-width="1.5" stroke-linecap="round"/>
<path d="M88.0659 27.582C87.5433 30.5687 86.3858 33.274 85.1725 34.9553C84.4138 36.0066 83.1847 37.3336 81.6174 38.4903" stroke="#111111" stroke-width="1.5" stroke-linecap="round"/>
<path d="M61.9326 27.8623C61.8705 31.6578 63.3515 37.2889 70.1461 40.2755C71.1912 40.7349 72.2188 40.9984 73.2174 41.1047" stroke="#111111" stroke-width="1.5" stroke-linecap="round"/>
<path d="M80.9724 44.8492C79.479 44.4758 78.0481 45.6892 77.5191 46.3425C77.2391 46.9337 77.1084 48.0971 78.8257 48.0225C80.9724 47.9291 81.6257 44.8492 84.1457 49.7958C86.1616 53.7531 86.2923 61.5245 86.1056 64.9156" stroke="#111111" stroke-width="1.5" stroke-linecap="round" stroke-linejoin="round"/>
<path d="M76.0868 43.8223C75.5998 44.8801 75.2045 46.8649 77.5191 46.3422" stroke="#111111" stroke-width="1.5" stroke-linecap="round" stroke-linejoin="round"/>
<path d="M76.9875 40.1826C75.6808 40.7426 73.7858 42.7586 74.5325 44.1026C74.6258 44.2581 74.9058 44.5506 75.2791 44.4759C75.4427 44.4432 75.7092 44.1586 76.0868 43.8226C76.7872 43.1993 77.8699 42.3994 79.3858 42.7026" stroke="#111111" stroke-width="1.5" stroke-linecap="round" stroke-linejoin="round"/>
<path d="M103.105 72.2308C104.039 67.6575 103.129 56.9262 91.7056 46.6223L84.1457 39.9957L79.3858 37.4757L78.4526 37.2891L74.906 38.1291L74.5325 38.5024L73.3192 40.7424C73.1325 41.209 73.9353 41.7503 75.2793 41.3023" stroke="#111111" stroke-width="1.5" stroke-linecap="round" stroke-linejoin="round"/>
<path d="M66.1327 37.7559C60.0661 38.5647 44.3172 42.0422 34.7731 56.1423C25.7781 69.431 35.9513 75.0309 43.5112 75.3109" stroke="#111111" stroke-width="1.5" stroke-linecap="round" stroke-linejoin="round"/>
<path d="M1 77.1773L43.0928 75.124" stroke="#111111" stroke-width="1.5" stroke-linecap="round" stroke-linejoin="round"/>
<path d="M54.573 74.6571L133 71.2402" stroke="#111111" stroke-width="1.5" stroke-linecap="round"/>
<path d="M47.5813 75.4541C47.6967 75.8119 47.6118 76.0692 47.1623 76.1078C45.8319 76.2219 44.252 74.1596 43.6285 73.1143" stroke="#111111" stroke-width="1.5" stroke-linecap="round"/>
<path d="M47.5781 71.4033C48.242 72.4641 49.3999 74.0988 50.415 75.0261C50.3224 75.7388 49.626 76.8222 47.5814 75.4538C47.2701 74.488 45.4994 72.7902 45.4994 72.6863" stroke="#111111" stroke-width="1.5" stroke-linecap="round"/>
<path d="M49.3794 70.4062C50.6496 71.8079 52.9548 74.811 52.0125 75.6091C51.8454 75.7506 51.6324 75.7643 51.3888 75.6814C51.0987 75.5826 50.7654 75.3469 50.4148 75.0268C49.3997 74.0994 48.2418 72.4648 47.5779 71.404" stroke="#111111" stroke-width="1.5" stroke-linecap="round"/>
<path d="M38.9381 74.0584C41.0629 71.3975 47.8553 65.63 51.7354 69.1225C53.2829 70.6667 55.2115 73.4579 54.1029 74.5983C53.5485 75.0259 52.3486 74.4557 51.5747 73.3153" stroke="#111111" stroke-width="1.5" stroke-linecap="round"/>
<path d="M46.5075 58.8838C45.1696 59.9416 43.0728 62.6917 45.3875 65.2304" stroke="#111111" stroke-width="1.5" stroke-linecap="round"/>
</svg>
