<svg
  viewBox="0 0 32 32"
  fill="none"
  xmlns="http://www.w3.org/2000/svg"
>
  <g clip-path="url(#clip0_2564_1671)">
    <path
      d="M32 16.0001C32 21.0745 29.6378 25.5972 25.9528 28.5283C23.2211 30.7019 19.7628 32 16.0001 32C12.2373 32 8.77909 30.7019 6.04715 28.5283C2.36235 25.5972 0 21.0745 0 16.0001C0 7.16363 7.16378 0 16.0001 0C24.8364 0 32 7.16363 32 16.0001Z"
      fill="#E6E9EF"
    />
    <path
      opacity="0.7"
      d="M15.9996 21.1007C19.4339 21.1007 22.2179 18.3167 22.2179 14.8824C22.2179 11.4481 19.4339 8.66406 15.9996 8.66406C12.5653 8.66406 9.78125 11.4481 9.78125 14.8824C9.78125 18.3167 12.5653 21.1007 15.9996 21.1007Z"
      fill="currentColor"
    />
    <path
      opacity="0.7"
      d="M25.9526 28.5277C23.2208 30.7014 19.7625 31.9995 15.9998 31.9995C12.2371 31.9995 8.77881 30.7014 6.04688 28.5277C8.04736 25.5889 11.7559 23.6152 15.9998 23.6152C20.2437 23.6152 23.9525 25.5885 25.9526 28.5277Z"
      fill="currentColor"
    />
  </g>
  <defs>
    <clipPath id="clip0_2564_1671">
      <rect width="32" height="32" fill="white" />
    </clipPath>
  </defs>
</svg>
