<svg
  viewBox="0 0 19 18"
  fill="none"
  xmlns="http://www.w3.org/2000/svg"
>
  <path
    d="M6.36426 5.25V2.25M12.3643 5.25V2.25M5.61426 8.25H13.1143M4.11426 15.75H14.6143C15.0121 15.75 15.3936 15.592 15.6749 15.3107C15.9562 15.0294 16.1143 14.6478 16.1143 14.25V5.25C16.1143 4.85218 15.9562 4.47064 15.6749 4.18934C15.3936 3.90804 15.0121 3.75 14.6143 3.75H4.11426C3.71643 3.75 3.3349 3.90804 3.0536 4.18934C2.77229 4.47064 2.61426 4.85218 2.61426 5.25V14.25C2.61426 14.6478 2.77229 15.0294 3.0536 15.3107C3.3349 15.592 3.71643 15.75 4.11426 15.75Z"
    stroke="#767676"
    stroke-width="1.25"
    stroke-linecap="round"
    stroke-linejoin="round"
  />
</svg>
