<svg
  width="current"
  height="current"
  viewBox="0 0 203 175"
  fill="none"
  xmlns="http://www.w3.org/2000/svg"
>
  <path
    d="M106.996 174.47C148.048 174.47 181.327 141.19 181.327 100.138C181.327 59.086 148.048 25.8066 106.996 25.8066C65.9435 25.8066 32.6641 59.086 32.6641 100.138C32.6641 141.19 65.9435 174.47 106.996 174.47Z"
    fill="url(#paint0_linear_2564_2537)"
  />
  <path
    d="M69.4105 109.082L93.4197 43.1543L159.286 112.798L101.974 139.106C82.6031 147.999 62.1168 129.11 69.4105 109.082Z"
    fill="#E1DCEB"
  />
  <path
    d="M94.4594 42.7789C94.8971 42.3683 95.5354 42.1325 96.4136 42.1126C97.296 42.0927 98.3861 42.293 99.6691 42.7215C102.235 43.5787 105.471 45.3127 109.163 47.7999C116.541 52.7696 125.653 60.6834 134.741 70.3657C143.828 80.0481 151.15 89.6435 155.642 97.3216C157.891 101.164 159.416 104.503 160.109 107.118C160.455 108.425 160.587 109.526 160.511 110.406C160.435 111.281 160.16 111.903 159.722 112.314C159.284 112.725 158.646 112.961 157.767 112.981C156.885 113.001 155.794 112.8 154.511 112.371C151.945 111.514 148.71 109.781 145.018 107.294C137.639 102.324 128.527 94.4095 119.439 84.727C110.352 75.0447 103.031 65.4498 98.5385 57.7718C96.2901 53.9291 94.7645 50.5901 94.0716 47.9751C93.7251 46.6676 93.5943 45.5669 93.67 44.6876C93.7455 43.8122 94.0217 43.1897 94.4594 42.7789Z"
    fill="#111111"
    stroke="#111111"
  />
  <mask
    id="mask0_2564_2537"
    style="mask-type:alpha"
    maskUnits="userSpaceOnUse"
    x="67"
    y="43"
    width="93"
    height="99"
  >
    <path
      d="M69.4105 109.082L93.4197 43.1543L159.286 112.798L101.974 139.106C82.6031 147.999 62.1168 129.11 69.4105 109.082Z"
      fill="#E1DCEB"
    />
  </mask>
  <g mask="url(#mask0_2564_2537)">
    <path
      fill-rule="evenodd"
      clip-rule="evenodd"
      d="M91.9546 100.185C78.7582 82.9026 72.0813 62.2993 69.9277 48.4669L80.5541 46.8125C82.4926 59.2635 88.6111 78.0854 100.502 93.6578C112.281 109.084 129.514 121.113 154.091 121.113V131.867C125.409 131.867 105.263 117.613 91.9546 100.185Z"
      fill="#111111"
    />
    <path
      fill-rule="evenodd"
      clip-rule="evenodd"
      d="M93.3716 96.8798C80.1752 79.5979 73.4983 58.9947 71.3447 45.1622L81.9711 43.5078C83.9095 55.9588 90.0281 74.7807 101.919 90.3531C113.698 105.779 130.931 117.808 155.508 117.808V128.562C126.826 128.562 106.68 114.308 93.3716 96.8798Z"
      fill="white"
    />
    <path
      fill-rule="evenodd"
      clip-rule="evenodd"
      d="M76.3736 121.903C63.1772 104.621 56.5002 84.0181 54.3467 70.1857L64.973 68.5312C66.9115 80.9822 73.03 99.8042 84.921 115.377C96.7 130.802 113.933 142.832 138.51 142.832V153.586C109.828 153.586 89.6818 139.332 76.3736 121.903Z"
      fill="white"
    />
  </g>
  <circle cx="122.495" cy="135.881" r="18.9783" fill="#E65787" />
  <path
    fill-rule="evenodd"
    clip-rule="evenodd"
    d="M130.174 130.122C130.909 130.87 130.898 132.071 130.151 132.806L121.141 141.662C120.403 142.388 119.219 142.388 118.48 141.662L114.838 138.082C114.09 137.347 114.08 136.146 114.815 135.398C115.55 134.651 116.751 134.641 117.499 135.375L119.811 137.648L127.49 130.099C128.238 129.364 129.439 129.375 130.174 130.122Z"
    fill="white"
  />
  <path
    d="M159.436 45.2042C159.282 45.5966 158.837 45.7903 158.445 45.6359L158.443 45.6346C158.051 45.4824 157.856 45.0391 158.01 44.6475C159.298 41.3751 159.656 38.0934 160.199 34.7814C160.268 34.3641 160.663 34.081 161.079 34.1495C161.497 34.2187 161.779 34.6121 161.711 35.0274C161.128 38.5873 160.741 41.8895 159.436 45.2042Z"
    fill="#111111"
    stroke="#111111"
  />
  <path
    d="M166.03 52.7268C165.684 52.9669 165.206 52.8807 164.964 52.5347C164.739 52.2126 164.799 51.7746 165.094 51.5224L165.155 51.4745C171.541 47.0545 177.795 41.1028 182.449 34.8657C182.7 34.5289 183.181 34.4579 183.522 34.71C183.859 34.9596 183.93 35.4367 183.679 35.7745C178.935 42.1331 172.548 48.2111 166.03 52.7258L166.03 52.7268Z"
    fill="#111111"
    stroke="#111111"
  />
  <path
    d="M182.965 58.0384C178.017 59.4522 172.605 60.1855 167.64 58.8162L167.161 58.6771C166.757 58.5534 166.531 58.1242 166.654 57.7252C166.776 57.3257 167.204 57.0969 167.609 57.2207C172.203 58.6224 177.16 58.0128 181.65 56.8187L182.541 56.5725C182.949 56.4576 183.373 56.6938 183.489 57.0976L183.489 57.0987C183.604 57.4962 183.374 57.9192 182.965 58.0384Z"
    fill="#111111"
    stroke="#111111"
  />
  <circle cx="167.411" cy="68.1902" r="3.79566" fill="#417BA4" />
  <circle cx="135.78" cy="28.9695" r="3.79566" fill="#417BA4" />
  <path
    d="M143.081 45.7087C142.754 44.3523 140.825 44.3523 140.497 45.7087L140.073 47.4655C139.956 47.9502 139.578 48.3286 139.093 48.4456L137.336 48.8697C135.98 49.1972 135.98 51.1264 137.336 51.4538L139.093 51.8779C139.578 51.9949 139.956 52.3733 140.073 52.858L140.497 54.6149C140.825 55.9712 142.754 55.9712 143.081 54.6149L143.506 52.858C143.623 52.3733 144.001 51.9949 144.486 51.8779L146.243 51.4538C147.599 51.1264 147.599 49.1971 146.243 48.8697L144.486 48.4456C144.001 48.3286 143.623 47.9502 143.506 47.4655L143.081 45.7087Z"
    fill="#417BA4"
  />
  <path
    fill-rule="evenodd"
    clip-rule="evenodd"
    d="M126.902 16.514C127.285 17.4894 126.806 18.5911 125.83 18.9747C123.046 20.0695 119.478 23.5962 117.095 27.9857C115.282 31.327 114.401 34.7014 114.771 37.4629C115.885 35.8726 117.219 34.5682 118.766 33.7302C121.539 32.228 124.703 32.3875 127.766 34.4749C130.443 36.2989 131.534 38.8942 131.245 41.4802C130.969 43.9527 129.461 46.1878 127.414 47.592C125.338 49.0171 122.58 49.6743 119.736 48.8033C118.123 48.3095 116.577 47.3547 115.162 45.9049C113.812 51.1608 113.86 57.7444 116.092 63.5671C116.467 64.5458 115.977 65.6433 114.999 66.0184C114.02 66.3935 112.922 65.9041 112.547 64.9254C109.604 57.2463 109.987 48.4761 112.386 42.0886C112.318 41.9654 112.251 41.8406 112.184 41.714C109.659 36.9476 111.171 30.9449 113.759 26.1752C116.368 21.3686 120.505 16.9902 124.441 15.4423C125.417 15.0588 126.518 15.5386 126.902 16.514ZM116.648 41.7623C118.082 43.7984 119.569 44.7825 120.847 45.174C122.457 45.667 124.027 45.3134 125.267 44.4624C126.538 43.5903 127.336 42.2838 127.473 41.0585C127.597 39.9467 127.209 38.6882 125.629 37.6115C123.626 36.2469 121.982 36.3049 120.574 37.0677C119.17 37.8282 117.779 39.4197 116.648 41.7623Z"
    fill="#E3E3E3"
  />
  <path
    fill-rule="evenodd"
    clip-rule="evenodd"
    d="M188.166 90.7387C168.273 83.3448 153.049 92.5388 148.126 97.7389C146.925 99.0076 144.923 99.0624 143.655 97.8615C142.386 96.6605 142.331 94.6585 143.532 93.3899C149.784 86.7861 167.579 76.3383 190.37 84.8089C192.007 85.4176 192.841 87.2384 192.232 88.8758C191.624 90.5133 189.803 91.3473 188.166 90.7387Z"
    fill="#CCC6D9"
  />
  <path
    fill-rule="evenodd"
    clip-rule="evenodd"
    d="M167.928 97.3856C168.372 97.2231 168.839 97.007 169.199 96.6943C169.627 96.3228 169.801 95.8443 169.918 95.3407C170.068 94.6937 170.128 94.0044 170.31 93.3563C170.377 93.1157 170.507 93.0247 170.562 92.9843C170.703 92.8823 170.845 92.8551 170.979 92.8653C171.137 92.8771 171.355 92.9387 171.498 93.2116C171.518 93.2507 171.545 93.3102 171.563 93.3917C171.576 93.4515 171.584 93.6384 171.598 93.7155C171.632 93.9053 171.661 94.0951 171.688 94.286C171.778 94.9212 171.83 95.4608 172.114 96.0444C172.5 96.8366 172.887 97.3214 173.412 97.5361C173.919 97.7437 174.525 97.7047 175.3 97.5419C175.374 97.5235 175.447 97.5078 175.519 97.4949C175.861 97.4336 176.187 97.664 176.254 98.0138C176.321 98.3633 176.104 98.7038 175.766 98.7806C175.695 98.7966 175.625 98.8118 175.557 98.8257C174.51 99.0921 173.297 100.043 172.593 100.875C172.376 101.132 172.058 101.849 171.734 102.307C171.494 102.645 171.226 102.867 171 102.946C170.848 102.999 170.721 102.991 170.616 102.964C170.462 102.925 170.335 102.84 170.238 102.705C170.185 102.63 170.136 102.531 170.112 102.404C170.101 102.343 170.1 102.188 170.1 102.118C170.034 101.884 169.953 101.656 169.894 101.42C169.753 100.858 169.478 100.502 169.15 100.031C168.844 99.5912 168.515 99.3147 168.032 99.0939C167.969 99.0782 167.463 98.9508 167.284 98.8776C167.023 98.7704 166.898 98.5908 166.853 98.4941C166.776 98.3299 166.768 98.1865 166.784 98.067C166.806 97.8906 166.884 97.7396 167.02 97.6176C167.105 97.5419 167.232 97.4682 167.401 97.4323C167.532 97.4042 167.879 97.388 167.928 97.3856ZM170.899 96.4691C170.922 96.5228 170.947 96.5768 170.974 96.6314C171.539 97.7917 172.171 98.4395 172.94 98.7539L172.965 98.7641C172.451 99.1563 171.986 99.5947 171.63 100.015C171.484 100.188 171.29 100.547 171.081 100.916C170.89 100.28 170.579 99.8309 170.188 99.2685C169.889 98.8394 169.575 98.5164 169.19 98.2531C169.489 98.0956 169.774 97.911 170.022 97.6955C170.436 97.3366 170.709 96.9208 170.899 96.4691Z"
    fill="#417BA4"
  />
  <path
    d="M56.3174 97.4242C56.821 96.9707 57.5976 97.0145 58.048 97.5207C58.5009 98.0263 58.4589 98.8038 57.9563 99.2565C55.5207 101.447 54.1397 104.152 53.7373 107.408C53.657 108.083 53.0438 108.563 52.3695 108.479L52.3685 108.479C51.6995 108.393 51.2208 107.779 51.305 107.106L51.304 107.106C51.7795 103.255 53.4278 100.025 56.3174 97.4242Z"
    fill="#111111"
    stroke="#111111"
  />
  <path
    d="M5.1476 103.892C10.4008 100.376 17.1263 101.378 21.1809 106.085C21.5431 105.644 21.9295 105.222 22.3347 104.822C27.588 99.6361 36.4485 99.6779 43.9687 104.792L44.1988 104.956C45.3374 105.801 46.3244 107.071 47.178 108.583C48.0911 110.201 48.8691 112.127 49.5208 114.183C50.6792 117.837 51.4746 121.937 52.0217 125.396C52.3991 123.961 52.8353 122.544 53.3054 121.127C56.1255 112.629 58.8089 103.588 64.6325 96.4236L64.6333 96.4225C65.0621 95.8991 65.8346 95.8174 66.3592 96.2497L66.452 96.3347C66.8923 96.7767 66.9322 97.4884 66.5336 97.9793C60.9648 104.832 58.4193 113.508 55.6326 121.907C54.763 124.527 54.0244 127.115 53.5676 129.816L53.5668 129.818C53.4268 130.634 53.2848 131.424 53.1893 132.224L53.2024 132.294C53.2102 132.328 53.2186 132.363 53.2302 132.411L53.2645 132.563L53.2653 132.567C53.3124 132.823 53.35 133.112 53.3269 133.357L53.3266 133.361C53.2808 133.81 53.0705 134.16 52.7661 134.389L52.7635 134.392C52.5406 134.558 52.2488 134.675 51.8812 134.668L51.8762 134.668C51.6116 134.66 51.1644 134.578 50.8562 134.082L50.857 134.081C50.8147 134.013 50.7852 133.936 50.7686 133.889C50.7466 133.826 50.7239 133.749 50.7012 133.66C50.6556 133.483 50.6068 133.245 50.5673 132.951L50.567 132.949C50.2676 130.681 49.5013 123.027 47.6153 116.369C47.0101 114.232 46.3052 112.212 45.4673 110.536C44.678 108.957 43.791 107.724 42.7951 106.972L42.5949 106.828C35.9675 102.321 28.4192 102.269 24.054 106.576C23.5195 107.103 23.0318 107.675 22.5925 108.282C22.759 108.76 22.9077 109.353 22.9975 109.963C23.1039 110.687 23.1354 111.476 22.9994 112.152C22.8564 112.86 22.5273 113.485 21.9847 113.875L21.9846 113.874C21.4133 114.285 20.6488 114.432 19.7007 114.126C18.842 113.848 18.4418 113.115 18.3837 112.309C18.3291 111.579 18.5776 110.73 18.7196 110.345C18.9947 109.597 19.3338 108.877 19.7262 108.191C16.5255 104 10.8875 103.01 6.51061 105.94L6.50965 105.94C5.94297 106.318 5.18407 106.16 4.80784 105.598L4.80545 105.596C4.45743 105.068 4.56475 104.365 5.04603 103.967L5.1476 103.892Z"
    fill="#111111"
    stroke="#111111"
  />
  <defs>
    <linearGradient
      id="paint0_linear_2564_2537"
      x1="106.423"
      y1="1.60244"
      x2="107.945"
      y2="262.644"
      gradientUnits="userSpaceOnUse"
    >
      <stop stop-color="#F2F2F2" />
      <stop offset="1" stop-color="#EFEFEF" />
    </linearGradient>
  </defs>
</svg>
