<svg viewBox="0 0 20 20" fill="none" xmlns="http://www.w3.org/2000/svg">
<path d="M2.86426 6.66699L9.43926 11.0503C9.71314 11.2331 10.035 11.3306 10.3643 11.3306C10.6935 11.3306 11.0154 11.2331 11.2893 11.0503L17.8643 6.66699M4.53092 15.8337H16.1976C16.6396 15.8337 17.0635 15.6581 17.3761 15.3455C17.6887 15.0329 17.8643 14.609 17.8643 14.167V5.83366C17.8643 5.39163 17.6887 4.96771 17.3761 4.65515C17.0635 4.34259 16.6396 4.16699 16.1976 4.16699H4.53092C4.0889 4.16699 3.66497 4.34259 3.35241 4.65515C3.03985 4.96771 2.86426 5.39163 2.86426 5.83366V14.167C2.86426 14.609 3.03985 15.0329 3.35241 15.3455C3.66497 15.6581 4.0889 15.8337 4.53092 15.8337Z" stroke="#767676" stroke-width="1.5" stroke-linecap="round" stroke-linejoin="round"/>
</svg>
