<svg viewBox="0 0 21 20" fill="none" xmlns="http://www.w3.org/2000/svg">
<path d="M5.57227 6.45801H6.19727C6.19727 7.49354 7.03673 8.33301 8.07227 8.33301V8.95801V9.58301C6.34638 9.58301 4.94727 8.1839 4.94727 6.45801H5.57227ZM8.07227 8.95801V8.33301C9.1078 8.33301 9.94727 7.49354 9.94727 6.45801H10.5723H11.1973C11.1973 8.1839 9.79816 9.58301 8.07227 9.58301V8.95801ZM10.5723 6.45801H9.94727C9.94727 5.42247 9.1078 4.58301 8.07227 4.58301V3.95801V3.33301C9.79816 3.33301 11.1973 4.73212 11.1973 6.45801H10.5723ZM8.07227 3.95801V4.58301C7.03673 4.58301 6.19727 5.42247 6.19727 6.45801H5.57227H4.94727C4.94727 4.73212 6.34638 3.33301 8.07227 3.33301V3.95801ZM10.5723 11.458V12.083H5.57227V11.458V10.833H10.5723V11.458ZM5.57227 16.458V15.833H10.5723V16.458V17.083H5.57227V16.458ZM10.5723 16.458V15.833C11.6078 15.833 12.4473 14.9935 12.4473 13.958H13.0723H13.6973C13.6973 15.6839 12.2982 17.083 10.5723 17.083V16.458ZM3.07227 13.958H3.69727C3.69727 14.9935 4.53673 15.833 5.57227 15.833V16.458V17.083C3.84638 17.083 2.44727 15.6839 2.44727 13.958H3.07227ZM5.57227 11.458V12.083C4.53673 12.083 3.69727 12.9225 3.69727 13.958H3.07227H2.44727C2.44727 12.2321 3.84638 10.833 5.57227 10.833V11.458ZM10.5723 11.458V10.833C12.2982 10.833 13.6973 12.2321 13.6973 13.958H13.0723H12.4473C12.4473 12.9225 11.6078 12.083 10.5723 12.083V11.458Z" fill="#505050"/>
<path d="M11.6125 8.65689C11.7439 8.44573 11.9905 8.33301 12.2393 8.33301C13.2748 8.33301 14.1143 7.49354 14.1143 6.45801C14.1143 5.42247 13.2748 4.58301 12.2393 4.58301C11.9905 4.58301 11.7439 4.47028 11.6125 4.25913C11.6067 4.24979 11.6008 4.24048 11.5949 4.23119C11.3761 3.88576 11.487 3.39667 11.8934 3.35193C12.007 3.33943 12.1224 3.33301 12.2393 3.33301C13.9651 3.33301 15.3643 4.73212 15.3643 6.45801C15.3643 8.1839 13.9651 9.58301 12.2393 9.58301C12.1224 9.58301 12.007 9.57659 11.8934 9.56409C11.487 9.51934 11.3761 9.03025 11.5949 8.68483C11.6008 8.67554 11.6067 8.66622 11.6125 8.65689Z" fill="#505050"/>
<path d="M14.149 15.2637C14.2436 15.1059 14.4106 14.9997 14.5946 14.9997H14.7393C15.7748 14.9997 16.6143 14.1602 16.6143 13.1247C16.6143 12.0891 15.7748 11.2497 14.7393 11.2497H14.5946C14.4106 11.2497 14.2436 11.1434 14.149 10.9856C13.9181 10.6004 14.1687 9.99967 14.6178 9.99967H14.7393C16.4651 9.99967 17.8643 11.3988 17.8643 13.1247C17.8643 14.8506 16.4651 16.2497 14.7393 16.2497H14.6178C14.1687 16.2497 13.9181 15.649 14.149 15.2637Z" fill="#505050"/>
</svg>
