<svg
  width="current"
  height="current"
  viewBox="0 0 19 18"
  fill="none"
  xmlns="http://www.w3.org/2000/svg"
>
  <path
    d="M16.1143 15.75L11.6143 11.25M13.1143 7.5C13.1143 8.18944 12.9785 8.87213 12.7146 9.50909C12.4508 10.146 12.0641 10.7248 11.5766 11.2123C11.0891 11.6998 10.5103 12.0865 9.87335 12.3504C9.23639 12.6142 8.5537 12.75 7.86426 12.75C7.17482 12.75 6.49213 12.6142 5.85517 12.3504C5.21821 12.0865 4.63945 11.6998 4.15195 11.2123C3.66444 10.7248 3.27773 10.146 3.01389 9.50909C2.75005 8.87213 2.61426 8.18944 2.61426 7.5C2.61426 6.10761 3.16738 4.77226 4.15195 3.78769C5.13651 2.80312 6.47187 2.25 7.86426 2.25C9.25664 2.25 10.592 2.80312 11.5766 3.78769C12.5611 4.77226 13.1143 6.10761 13.1143 7.5Z"
    stroke="#999999"
    stroke-width="1.25"
    stroke-linecap="round"
    stroke-linejoin="round"
  />
</svg>
