<svg
  width="current"
  height="current"
  viewBox="0 0 37 36"
  fill="none"
  xmlns="http://www.w3.org/2000/svg"
>
  <path
    d="M18.3643 2.25C22.5414 2.25 26.5475 3.90937 29.5012 6.86307C32.4549 9.81677 34.1143 13.8228 34.1143 18C34.1143 22.1772 32.4549 26.1832 29.5012 29.1369C26.5475 32.0906 22.5414 33.75 18.3643 33.75C14.1871 33.75 10.181 32.0906 7.22733 29.1369C4.27363 26.1832 2.61426 22.1772 2.61426 18C2.61426 13.8228 4.27363 9.81677 7.22733 6.86307C10.181 3.90937 14.1871 2.25 18.3643 2.25ZM18.3643 31.5C21.9447 31.5 25.3785 30.0777 27.9102 27.5459C30.4419 25.0142 31.8643 21.5804 31.8643 18C31.8643 14.4196 30.4419 10.9858 27.9102 8.45406C25.3785 5.92232 21.9447 4.5 18.3643 4.5C14.7838 4.5 11.3501 5.92232 8.81832 8.45406C6.28658 10.9858 4.86426 14.4196 4.86426 18C4.86426 21.5804 6.28658 25.0142 8.81832 27.5459C11.3501 30.0777 14.7838 31.5 18.3643 31.5ZM20.0518 25.3125C20.0518 25.7601 19.874 26.1893 19.5575 26.5057C19.241 26.8222 18.8118 27 18.3643 27C17.9167 27 17.4875 26.8222 17.171 26.5057C16.8545 26.1893 16.6768 25.7601 16.6768 25.3125C16.6768 24.8649 16.8545 24.4357 17.171 24.1193C17.4875 23.8028 17.9167 23.625 18.3643 23.625C18.8118 23.625 19.241 23.8028 19.5575 24.1193C19.874 24.4357 20.0518 24.8649 20.0518 25.3125ZM18.3643 9C18.6626 9 18.9488 9.11853 19.1598 9.3295C19.3707 9.54048 19.4893 9.82663 19.4893 10.125V20.25C19.4893 20.5484 19.3707 20.8345 19.1598 21.0455C18.9488 21.2565 18.6626 21.375 18.3643 21.375C18.0659 21.375 17.7797 21.2565 17.5688 21.0455C17.3578 20.8345 17.2393 20.5484 17.2393 20.25V10.125C17.2393 9.82663 17.3578 9.54048 17.5688 9.3295C17.7797 9.11853 18.0659 9 18.3643 9Z"
    fill="#303030"
  />
</svg>
