<svg xmlns="http://www.w3.org/2000/svg" width="40" height="40" viewBox="0 0 200 200" fill="none">
    <path d="M79.8664 178.847C79.8977 184.49 82.1169 189.888 86.036 193.855C89.955 197.822 95.2528 200.033 100.764 200.001C106.275 199.969 111.547 197.697 115.422 193.684C119.297 189.672 121.456 184.248 121.425 178.605C121.359 166.745 100.409 136.177 100.409 136.177C100.409 136.177 79.8004 166.987 79.8664 178.847Z"
          fill="url(#paint0_linear_6091_44439)"/>
    <path d="M179.339 120.931C184.85 120.899 190.123 118.627 193.997 114.615C197.872 110.602 200.031 105.178 200 99.5359C199.969 93.8934 197.75 88.495 193.83 84.5276C189.911 80.5607 184.614 78.3501 179.103 78.3822C167.518 78.4494 137.662 99.8988 137.662 99.8988C137.662 99.8988 167.754 120.999 179.339 120.931Z"
          fill="url(#paint1_linear_6091_44439)"/>
    <path d="M161.696 64.1714C164.586 61.1793 166.196 57.1346 166.172 52.9274C166.149 48.7201 164.494 44.6943 161.572 41.7363C158.649 38.778 154.699 37.1295 150.59 37.1536C146.48 37.1776 142.548 38.872 139.659 41.8638C133.586 48.1531 128.89 75.5805 128.89 75.5805C128.89 75.5805 155.623 70.4607 161.696 64.1714Z"
          fill="url(#paint2_linear_6091_44439)"/>
    <path d="M137.903 158.021C140.825 160.978 144.776 162.627 148.885 162.603C152.995 162.579 156.926 160.885 159.816 157.893C162.705 154.901 164.315 150.856 164.292 146.649C164.268 142.441 162.613 138.416 159.691 135.458C153.548 129.239 126.76 124.432 126.76 124.432C126.76 124.432 131.76 151.802 137.903 158.021Z"
          fill="url(#paint3_linear_6091_44439)"/>
    <path d="M120.405 21.1541C120.374 15.5117 118.154 10.1131 114.235 6.146C110.316 2.1789 105.018 -0.0317463 99.5074 0.000344565C93.9964 0.0324355 88.7235 2.30463 84.8486 6.31712C80.9741 10.3296 78.8147 15.7537 78.846 21.3961C78.912 33.2567 99.8619 63.8245 99.8619 63.8245C99.8619 63.8245 120.471 33.0147 120.405 21.1541Z"
          fill="url(#paint4_linear_6091_44439)"/>
    <path d="M20.6615 79.4386C15.1505 79.4707 9.87761 81.7429 6.00287 85.7555C2.12817 89.768 -0.0310031 95.1922 0.000336455 100.834C0.0316794 106.477 2.25097 111.875 6.17002 115.843C10.0891 119.81 15.3868 122.02 20.8978 121.988C32.4823 121.921 62.3383 100.472 62.3383 100.472C62.3383 100.472 32.246 79.3714 20.6615 79.4386Z"
          fill="url(#paint5_linear_6091_44439)"/>
    <path d="M40.9996 136.178C38.1106 139.17 36.5006 143.214 36.5237 147.422C36.5472 151.629 38.2021 155.655 41.1244 158.613C44.0468 161.571 47.9972 163.219 52.1064 163.195C56.2159 163.171 60.1479 161.477 63.037 158.485C69.1106 152.196 73.8066 124.769 73.8066 124.769C73.8066 124.769 47.0733 129.888 40.9996 136.178Z"
          fill="url(#paint6_linear_6091_44439)"/>
    <path d="M62.3535 42.3222C59.4315 39.3639 55.4808 37.7155 51.3716 37.7395C47.262 37.7632 43.3304 39.4576 40.441 42.4497C37.5516 45.4418 35.9416 49.4864 35.9651 53.6937C35.9882 57.901 37.6431 61.9268 40.5655 64.8848C46.7086 71.103 73.4971 75.9111 73.4971 75.9111C73.4971 75.9111 68.4966 48.5402 62.3535 42.3222Z"
          fill="url(#paint7_linear_6091_44439)"/>
    <defs>
        <linearGradient id="paint0_linear_6091_44439" x1="100.409" y1="136.177" x2="100.781" y2="200.001"
                        gradientUnits="userSpaceOnUse">
            <stop stop-color="#E65787" stop-opacity="0.7"/>
            <stop offset="1" stop-color="#E65787"/>
        </linearGradient>
        <linearGradient id="paint1_linear_6091_44439" x1="137.662" y1="99.8988" x2="200" y2="99.5526"
                        gradientUnits="userSpaceOnUse">
            <stop stop-color="#E65787" stop-opacity="0.7"/>
            <stop offset="1" stop-color="#E65787"/>
        </linearGradient>
        <linearGradient id="paint2_linear_6091_44439" x1="128.89" y1="75.5805" x2="162.351" y2="42.5247"
                        gradientUnits="userSpaceOnUse">
            <stop stop-color="#E65787" stop-opacity="0.7"/>
            <stop offset="1" stop-color="#E65787"/>
        </linearGradient>
        <linearGradient id="paint3_linear_6091_44439" x1="126.76" y1="124.432" x2="160.585" y2="157.096"
                        gradientUnits="userSpaceOnUse">
            <stop stop-color="#E65787" stop-opacity="0.7"/>
            <stop offset="1" stop-color="#E65787"/>
        </linearGradient>
        <linearGradient id="paint4_linear_6091_44439" x1="99.8619" y1="63.8245" x2="99.4903" y2="0.000446606"
                        gradientUnits="userSpaceOnUse">
            <stop stop-color="#E65787" stop-opacity="0.7"/>
            <stop offset="1" stop-color="#E65787"/>
        </linearGradient>
        <linearGradient id="paint5_linear_6091_44439" x1="62.3383" y1="100.472" x2="0.000248696" y2="100.818"
                        gradientUnits="userSpaceOnUse">
            <stop stop-color="#E65787" stop-opacity="0.7"/>
            <stop offset="1" stop-color="#E65787"/>
        </linearGradient>
        <linearGradient id="paint6_linear_6091_44439" x1="73.8066" y1="124.769" x2="40.3456" y2="157.824"
                        gradientUnits="userSpaceOnUse">
            <stop stop-color="#E65787" stop-opacity="0.7"/>
            <stop offset="1" stop-color="#E65787"/>
        </linearGradient>
        <linearGradient id="paint7_linear_6091_44439" x1="73.4971" y1="75.9111" x2="39.6714" y2="43.2467"
                        gradientUnits="userSpaceOnUse">
            <stop stop-color="#E65787" stop-opacity="0.7"/>
            <stop offset="1" stop-color="#E65787"/>
        </linearGradient>
    </defs>
</svg>