<svg
  width="current"
  height="current"
  viewBox="0 0 16 16"
  fill="none"
  xmlns="http://www.w3.org/2000/svg"
>
  <path
    d="M3.27107 3.37373L3.31735 3.31833C3.45621 3.17948 3.67175 3.16405 3.82764 3.27204L3.88304 3.31833L8.0002 7.43557L12.1174 3.31833C12.2562 3.17948 12.4717 3.16405 12.6276 3.27204L12.683 3.31833C12.8219 3.45718 12.8373 3.67272 12.7293 3.82862L12.683 3.88401L8.56579 8.00117L12.683 12.1183C12.8219 12.2572 12.8373 12.4727 12.7293 12.6286L12.683 12.684C12.5442 12.8229 12.3286 12.8383 12.1728 12.7303L12.1174 12.684L8.0002 8.56677L3.88304 12.684C3.74418 12.8229 3.52865 12.8383 3.37275 12.7303L3.31735 12.684C3.1785 12.5452 3.16307 12.3296 3.27107 12.1737L3.31735 12.1183L7.4346 8.00117L3.31735 3.88401C3.1785 3.74516 3.16307 3.52962 3.27107 3.37373L3.31735 3.31833L3.27107 3.37373Z"
    fill="currentColor"
  />
</svg>
