<svg viewBox="0 0 20 20" fill="none" xmlns="http://www.w3.org/2000/svg">
<path d="M8.51464 2.56341C9.07837 1.23664 11.0676 1.27843 11.5359 2.69661H11.5349L12.8264 6.60338C12.832 6.61945 12.8424 6.63345 12.8563 6.64354C12.8708 6.65389 12.8892 6.66017 12.9071 6.66019H17.0825C18.6488 6.66019 19.2942 8.62913 18.0325 9.53273L18.0315 9.53371L14.6527 11.9459C14.6382 11.9563 14.6284 11.9722 14.6229 11.989C14.6174 12.0057 14.6174 12.0233 14.6229 12.04L15.9124 15.9467L15.9512 16.0829C16.29 17.4832 14.6547 18.5988 13.4289 17.7224L10.0502 15.3082C10.0357 15.2979 10.0182 15.2926 10.0004 15.2925C9.99131 15.2925 9.98198 15.2937 9.97348 15.2964L9.94958 15.3082L6.57084 17.7224C5.30513 18.6272 3.60326 17.4073 4.08732 15.9458L5.37688 12.04H5.37788C5.38324 12.0235 5.3832 12.0055 5.37788 11.989C5.3751 11.9806 5.37015 11.9726 5.36493 11.9655L5.34701 11.9469L1.96827 9.53371V9.53273C0.70261 8.62771 1.35445 6.66023 2.91726 6.66019H7.09363C7.1114 6.6601 7.12903 6.65381 7.14342 6.64354C7.15737 6.63345 7.16768 6.61947 7.1733 6.60338L8.46485 2.69661L8.51464 2.56341ZM10.0004 3.10403C9.97462 3.10403 9.95595 3.11147 9.94659 3.11775C9.94247 3.12051 9.93915 3.12398 9.93564 3.12852L9.91871 3.16182L8.62816 7.06761V7.06859C8.52253 7.38718 8.3174 7.66509 8.04163 7.86189C7.76584 8.0587 7.43338 8.16461 7.09264 8.16452H2.91726C2.89703 8.16453 2.88569 8.16764 2.88042 8.16942C2.87492 8.17128 2.87049 8.17322 2.86648 8.17628C2.85753 8.18309 2.84463 8.19813 2.8366 8.22231C2.82858 8.24658 2.83047 8.26653 2.83362 8.27715C2.83501 8.28175 2.83635 8.28629 2.83959 8.29086C2.84283 8.29541 2.85091 8.30448 2.86747 8.31633L6.24522 10.7295H6.24621C6.52187 10.9266 6.72643 11.205 6.83174 11.5238C6.92386 11.8029 6.93578 12.101 6.86659 12.3847L6.83174 12.5052L5.54218 16.411V16.4119C5.53588 16.431 5.53513 16.4427 5.53521 16.4482C5.53531 16.4538 5.53654 16.4583 5.5382 16.4629C5.54197 16.4732 5.5522 16.4901 5.57305 16.505C5.59381 16.5198 5.61287 16.5242 5.62384 16.5246C5.6287 16.5247 5.63338 16.5242 5.63878 16.5226C5.64399 16.521 5.65523 16.5167 5.67164 16.505H5.67263L9.05037 14.0908C9.32625 13.8936 9.65932 13.7882 10.0004 13.7882C10.341 13.7882 10.6727 13.894 10.9484 14.0908H10.9494L14.3281 16.505C14.3444 16.5166 14.3556 16.521 14.361 16.5226C14.3664 16.5242 14.3711 16.5247 14.3759 16.5246C14.3869 16.5242 14.4069 16.5198 14.4277 16.505C14.4478 16.4905 14.4577 16.4741 14.4615 16.4638C14.4632 16.4592 14.4644 16.454 14.4645 16.4482C14.4646 16.4425 14.4638 16.4309 14.4576 16.4119V16.411L13.168 12.5052C13.0626 12.1863 13.0627 11.8427 13.168 11.5238C13.2733 11.205 13.4779 10.9266 13.7535 10.7295H13.7545L17.1323 8.31633L17.1591 8.29086C17.1625 8.28615 17.1647 8.28191 17.1661 8.27715C17.1693 8.26631 17.171 8.24642 17.1631 8.22231C17.1551 8.1981 17.142 8.18296 17.1333 8.17628C17.1295 8.17343 17.1255 8.17123 17.1203 8.16942C17.115 8.16764 17.1029 8.16452 17.0825 8.16452H12.9051C12.5648 8.16419 12.2335 8.05761 11.9581 7.86091C11.6826 7.66413 11.4771 7.38695 11.3716 7.06859V7.06761L10.081 3.16182C10.0747 3.14276 10.0674 3.13289 10.0641 3.12852C10.0606 3.12396 10.0572 3.12049 10.0531 3.11775C10.044 3.11165 10.0259 3.10405 10.0004 3.10403Z" fill="currentColor"/>
</svg>
