<svg viewBox="0 0 20 20" fill="none" xmlns="http://www.w3.org/2000/svg">
<path d="M7.66563 17.2121V14.6942C7.66562 14.0537 8.18774 13.5333 8.83464 13.529H11.2043C11.8543 13.529 12.3812 14.0507 12.3812 14.6942V17.2199C12.381 17.7637 12.8194 18.2081 13.3685 18.2209H14.9483C16.5231 18.2209 17.7997 16.957 17.7997 15.3979V8.23508C17.7913 7.62175 17.5004 7.0458 17.0098 6.67114L11.6071 2.36247C10.6606 1.61225 9.31512 1.61225 8.36862 2.36247L2.98958 6.67896C2.49714 7.0521 2.20577 7.629 2.19971 8.2429V15.3979C2.19971 16.957 3.47634 18.2209 5.05115 18.2209H6.6309C7.19364 18.2209 7.64983 17.7692 7.64983 17.2121" stroke="currentColor" stroke-width="1.5" stroke-linecap="round" stroke-linejoin="round"/>
</svg>
