<svg viewBox="0 0 20 20" fill="none" xmlns="http://www.w3.org/2000/svg">
<path d="M2.2002 9.80611C2.2002 6.86671 2.2002 5.39662 3.11374 4.48386C4.02728 3.57109 5.4966 3.57031 8.436 3.57031H11.5539C14.4933 3.57031 15.9634 3.57031 16.8761 4.48386C17.7889 5.3974 17.7897 6.86671 17.7897 9.80611V11.3651C17.7897 14.3045 17.7897 15.7746 16.8761 16.6873C15.9626 17.6001 14.4933 17.6009 11.5539 17.6009H8.436C5.4966 17.6009 4.02651 17.6009 3.11374 16.6873C2.20097 15.7738 2.2002 14.3045 2.2002 11.3651V9.80611Z" stroke="currentColor" stroke-width="1.5"/>
<path d="M6.09766 3.5696V2.40039M13.8924 3.5696V2.40039" stroke="currentColor" stroke-width="1.5" stroke-linecap="round"/>
<path d="M2.59082 7.4668H17.4008" stroke="currentColor" stroke-width="1.5" stroke-linecap="round"/>
</svg>
