<svg width="current" height="current" viewBox="0 0 20 20" fill="none" xmlns="http://www.w3.org/2000/svg">
<path d="M14.3335 5.66686H16.0669C16.5266 5.66686 16.9675 5.84948 17.2925 6.17454C17.6176 6.49961 17.8002 6.94049 17.8002 7.4002V12.6002C17.8002 13.0599 17.6176 13.5008 17.2925 13.8258C16.9675 14.1509 16.5266 14.3335 16.0669 14.3335H14.3335V17.8002L10.8669 14.3335H7.4002C7.17255 14.3338 6.94709 14.289 6.73679 14.2019C6.52649 14.1147 6.33548 13.9869 6.17473 13.8257M6.17473 13.8257L9.13353 10.8669H12.6002C13.0599 10.8669 13.5008 10.6842 13.8258 10.3592C14.1509 10.0341 14.3335 9.59324 14.3335 9.13353V3.93353C14.3335 3.47382 14.1509 3.03294 13.8258 2.70788C13.5008 2.38281 13.0599 2.2002 12.6002 2.2002H3.93353C3.47382 2.2002 3.03294 2.38281 2.70788 2.70788C2.38281 3.03294 2.2002 3.47382 2.2002 3.93353V9.13353C2.2002 9.59324 2.38281 10.0341 2.70788 10.3592C3.03294 10.6842 3.47382 10.8669 3.93353 10.8669H5.66686V14.3335L6.17473 13.8257Z" stroke="currentColor" stroke-width="1.4" stroke-linecap="round" stroke-linejoin="round"/>
</svg>
