<svg width="current" height="current" viewBox="0 0 13 15" fill="none" xmlns="http://www.w3.org/2000/svg">
<path d="M7.33366 9.29134C7.67884 9.29134 7.95866 9.01152 7.95866 8.66634C7.95866 8.32116 7.67884 8.04134 7.33366 8.04134V9.29134ZM7.33366 14.6247C7.67884 14.6247 7.95866 14.3449 7.95866 13.9997C7.95866 13.6545 7.67884 13.3747 7.33366 13.3747V14.6247ZM8.00033 10.708C7.65515 10.708 7.37533 10.9878 7.37533 11.333C7.37533 11.6782 7.65515 11.958 8.00033 11.958V10.708ZM12.0003 11.958C12.3455 11.958 12.6253 11.6782 12.6253 11.333C12.6253 10.9878 12.3455 10.708 12.0003 10.708V11.958ZM9.37533 13.333C9.37533 13.6782 9.65515 13.958 10.0003 13.958C10.3455 13.958 10.6253 13.6782 10.6253 13.333H9.37533ZM10.6253 9.33301C10.6253 8.98783 10.3455 8.70801 10.0003 8.70801C9.65515 8.70801 9.37533 8.98783 9.37533 9.33301H10.6253ZM8.00033 3.99967H7.37533C7.37533 5.12726 6.46124 6.04134 5.33366 6.04134V6.66634V7.29134C7.1516 7.29134 8.62533 5.81761 8.62533 3.99967H8.00033ZM5.33366 6.66634V6.04134C4.20608 6.04134 3.29199 5.12726 3.29199 3.99967H2.66699H2.04199C2.04199 5.81761 3.51572 7.29134 5.33366 7.29134V6.66634ZM2.66699 3.99967H3.29199C3.29199 2.87209 4.20608 1.95801 5.33366 1.95801V1.33301V0.708008C3.51572 0.708008 2.04199 2.18174 2.04199 3.99967H2.66699ZM5.33366 1.33301V1.95801C6.46124 1.95801 7.37533 2.87209 7.37533 3.99967H8.00033H8.62533C8.62533 2.18174 7.1516 0.708008 5.33366 0.708008V1.33301ZM3.33366 8.66634V9.29134H7.33366V8.66634V8.04134H3.33366V8.66634ZM7.33366 13.9997V13.3747H3.33366V13.9997V14.6247H7.33366V13.9997ZM3.33366 13.9997V13.3747C2.20608 13.3747 1.29199 12.4606 1.29199 11.333H0.666992H0.0419922C0.0419922 13.1509 1.51572 14.6247 3.33366 14.6247V13.9997ZM3.33366 8.66634V8.04134C1.51572 8.04134 0.0419922 9.51507 0.0419922 11.333H0.666992H1.29199C1.29199 10.2054 2.20608 9.29134 3.33366 9.29134V8.66634ZM8.00033 11.333V11.958H12.0003V11.333V10.708H8.00033V11.333ZM10.0003 13.333H10.6253V9.33301H10.0003H9.37533V13.333H10.0003Z" fill="#767676"/>
</svg>
