<svg
  width="current"
  height="current"
  viewBox="0 0 18 18"
  fill="none"
  xmlns="http://www.w3.org/2000/svg"
>
  <path
    fill-rule="evenodd"
    clip-rule="evenodd"
    d="M4.875 2.25195H7.125C7.5375 2.25195 7.875 2.58945 7.875 3.00195V15.002C7.875 15.4145 7.5375 15.752 7.125 15.752H4.875C4.4625 15.752 4.125 15.4145 4.125 15.002V3.00195C4.125 2.58945 4.4625 2.25195 4.875 2.25195ZM10.875 2.25195H13.125C13.5375 2.25195 13.875 2.58945 13.875 3.00195V15.002C13.875 15.4145 13.5375 15.752 13.125 15.752H10.875C10.4625 15.752 10.125 15.4145 10.125 15.002V3.00195C10.125 2.58945 10.4625 2.25195 10.875 2.25195Z"
    fill="#111111"
  />
</svg>
