<svg
  viewBox="0 0 20 20"
  fill="none"
  xmlns="http://www.w3.org/2000/svg"
>
  <path
    d="M15.8337 9.16797C15.8337 10.7151 15.2191 12.1988 14.1251 13.2928C13.0312 14.3867 11.5474 15.0013 10.0003 15.0013M10.0003 15.0013C8.45323 15.0013 6.9695 14.3867 5.87554 13.2928C4.78157 12.1988 4.16699 10.7151 4.16699 9.16797M10.0003 15.0013V18.3346M10.0003 18.3346H6.66699M10.0003 18.3346H13.3337M10.0003 11.668C9.33728 11.668 8.7014 11.4046 8.23256 10.9357C7.76372 10.4669 7.50033 9.83101 7.50033 9.16797V4.16797C7.50033 3.50493 7.76372 2.86904 8.23256 2.4002C8.7014 1.93136 9.33728 1.66797 10.0003 1.66797C10.6634 1.66797 11.2993 1.93136 11.7681 2.4002C12.2369 2.86904 12.5003 3.50493 12.5003 4.16797V9.16797C12.5003 9.83101 12.2369 10.4669 11.7681 10.9357C11.2993 11.4046 10.6634 11.668 10.0003 11.668Z"
    stroke="#111111"
    stroke-width="1.5"
    stroke-linecap="round"
    stroke-linejoin="round"
  />
</svg>
